<?xml version="1.0" encoding="UTF-8" standalone="no"?>
<!DOCTYPE svg PUBLIC "-//W3C//DTD SVG 1.1//EN"
 "http://www.w3.org/Graphics/SVG/1.1/DTD/svg11.dtd">
<!-- Generated by graphviz version 2.43.0 (0)
 -->
<!-- Title: G Pages: 1 -->
<svg width="1389pt" height="669pt"
 viewBox="0.00 0.00 1389.20 668.70" xmlns="http://www.w3.org/2000/svg" xmlns:xlink="http://www.w3.org/1999/xlink">
<g id="graph0" class="graph" transform="scale(1 1) rotate(0) translate(21.6 647.1)">
<title>G</title>
<polygon fill="#111111" stroke="transparent" points="-21.6,21.6 -21.6,-647.1 1367.6,-647.1 1367.6,21.6 -21.6,21.6"/>
<!-- Logic/dom.ts -->
<g id="node1" class="node">
<title>Logic/dom.ts</title>
<path fill="none" stroke="#cfffac" d="M510.83,-625.5C510.83,-625.5 432.17,-625.5 432.17,-625.5 428.33,-625.5 424.5,-621.67 424.5,-617.83 424.5,-617.83 424.5,-610.17 424.5,-610.17 424.5,-606.33 428.33,-602.5 432.17,-602.5 432.17,-602.5 510.83,-602.5 510.83,-602.5 514.67,-602.5 518.5,-606.33 518.5,-610.17 518.5,-610.17 518.5,-617.83 518.5,-617.83 518.5,-621.67 514.67,-625.5 510.83,-625.5"/>
<text text-anchor="middle" x="471.5" y="-610.3" font-family="Arial" font-size="14.00" fill="#cfffac">Logic/dom.ts</text>
</g>
<!-- Logic/parse.ts -->
<g id="node2" class="node">
<title>Logic/parse.ts</title>
<path fill="none" stroke="#c6c5fe" d="M371.33,-359.5C371.33,-359.5 285.67,-359.5 285.67,-359.5 281.83,-359.5 278,-355.67 278,-351.83 278,-351.83 278,-344.17 278,-344.17 278,-340.33 281.83,-336.5 285.67,-336.5 285.67,-336.5 371.33,-336.5 371.33,-336.5 375.17,-336.5 379,-340.33 379,-344.17 379,-344.17 379,-351.83 379,-351.83 379,-355.67 375.17,-359.5 371.33,-359.5"/>
<text text-anchor="middle" x="328.5" y="-344.3" font-family="Arial" font-size="14.00" fill="#c6c5fe">Logic/parse.ts</text>
</g>
<!-- Logic/parse.ts&#45;&gt;Logic/dom.ts -->
<g id="edge1" class="edge">
<title>Logic/parse.ts&#45;&gt;Logic/dom.ts</title>
<path fill="none" stroke="#757575" d="M333.62,-359.58C350.7,-407.52 415,-588 415,-588 418.23,-591.55 422.04,-594.66 426.14,-597.37"/>
<polygon fill="#757575" stroke="#757575" points="424.42,-600.43 434.83,-602.39 427.92,-594.36 424.42,-600.43"/>
</g>
<!-- fhirR4/Bundle.ts -->
<g id="node3" class="node">
<title>fhirR4/Bundle.ts</title>
<path fill="none" stroke="#c6c5fe" d="M520.33,-319.5C520.33,-319.5 422.67,-319.5 422.67,-319.5 418.83,-319.5 415,-315.67 415,-311.83 415,-311.83 415,-304.17 415,-304.17 415,-300.33 418.83,-296.5 422.67,-296.5 422.67,-296.5 520.33,-296.5 520.33,-296.5 524.17,-296.5 528,-300.33 528,-304.17 528,-304.17 528,-311.83 528,-311.83 528,-315.67 524.17,-319.5 520.33,-319.5"/>
<text text-anchor="middle" x="471.5" y="-304.3" font-family="Arial" font-size="14.00" fill="#c6c5fe">fhirR4/Bundle.ts</text>
</g>
<!-- Logic/parse.ts&#45;&gt;fhirR4/Bundle.ts -->
<g id="edge2" class="edge">
<title>Logic/parse.ts&#45;&gt;fhirR4/Bundle.ts</title>
<path fill="none" stroke="#757575" d="M370.28,-336.43C385.77,-332.04 403.61,-326.98 419.9,-322.35"/>
<polygon fill="#757575" stroke="#757575" points="421.14,-325.64 429.81,-319.54 419.23,-318.91 421.14,-325.64"/>
</g>
<!-- fhirR4/Resources/Consent.ts -->
<g id="node4" class="node">
<title>fhirR4/Resources/Consent.ts</title>
<path fill="none" stroke="#c6c5fe" d="M768.33,-200.5C768.33,-200.5 594.67,-200.5 594.67,-200.5 590.83,-200.5 587,-196.67 587,-192.83 587,-192.83 587,-185.17 587,-185.17 587,-181.33 590.83,-177.5 594.67,-177.5 594.67,-177.5 768.33,-177.5 768.33,-177.5 772.17,-177.5 776,-181.33 776,-185.17 776,-185.17 776,-192.83 776,-192.83 776,-196.67 772.17,-200.5 768.33,-200.5"/>
<text text-anchor="middle" x="681.5" y="-185.3" font-family="Arial" font-size="14.00" fill="#c6c5fe">fhirR4/Resources/Consent.ts</text>
</g>
<!-- Logic/parse.ts&#45;&gt;fhirR4/Resources/Consent.ts -->
<g id="edge3" class="edge">
<title>Logic/parse.ts&#45;&gt;fhirR4/Resources/Consent.ts</title>
<path fill="none" stroke="#757575" d="M336.36,-336.35C349.14,-315.69 378.6,-272.71 415,-250 463.34,-219.84 524.98,-204.56 576.69,-196.83"/>
<polygon fill="#757575" stroke="#757575" points="577.49,-200.25 586.9,-195.38 576.5,-193.32 577.49,-200.25"/>
</g>
<!-- fhirR4/Resources/Encounter.ts -->
<g id="node5" class="node">
<title>fhirR4/Resources/Encounter.ts</title>
<path fill="none" stroke="#c6c5fe" d="M773.83,-545.5C773.83,-545.5 589.17,-545.5 589.17,-545.5 585.33,-545.5 581.5,-541.67 581.5,-537.83 581.5,-537.83 581.5,-530.17 581.5,-530.17 581.5,-526.33 585.33,-522.5 589.17,-522.5 589.17,-522.5 773.83,-522.5 773.83,-522.5 777.67,-522.5 781.5,-526.33 781.5,-530.17 781.5,-530.17 781.5,-537.83 781.5,-537.83 781.5,-541.67 777.67,-545.5 773.83,-545.5"/>
<text text-anchor="middle" x="681.5" y="-530.3" font-family="Arial" font-size="14.00" fill="#c6c5fe">fhirR4/Resources/Encounter.ts</text>
</g>
<!-- Logic/parse.ts&#45;&gt;fhirR4/Resources/Encounter.ts -->
<g id="edge4" class="edge">
<title>Logic/parse.ts&#45;&gt;fhirR4/Resources/Encounter.ts</title>
<path fill="none" stroke="#757575" d="M342.68,-359.73C376.69,-389.38 471.3,-467.8 564,-508 574.92,-512.73 586.8,-516.65 598.66,-519.88"/>
<polygon fill="#757575" stroke="#757575" points="598.04,-523.34 608.6,-522.44 599.79,-516.56 598.04,-523.34"/>
</g>
<!-- fhirR4/Resources/Flag.ts -->
<g id="node6" class="node">
<title>fhirR4/Resources/Flag.ts</title>
<path fill="none" stroke="#c6c5fe" d="M756.33,-241.5C756.33,-241.5 606.67,-241.5 606.67,-241.5 602.83,-241.5 599,-237.67 599,-233.83 599,-233.83 599,-226.17 599,-226.17 599,-222.33 602.83,-218.5 606.67,-218.5 606.67,-218.5 756.33,-218.5 756.33,-218.5 760.17,-218.5 764,-222.33 764,-226.17 764,-226.17 764,-233.83 764,-233.83 764,-237.67 760.17,-241.5 756.33,-241.5"/>
<text text-anchor="middle" x="681.5" y="-226.3" font-family="Arial" font-size="14.00" fill="#c6c5fe">fhirR4/Resources/Flag.ts</text>
</g>
<!-- Logic/parse.ts&#45;&gt;fhirR4/Resources/Flag.ts -->
<g id="edge5" class="edge">
<title>Logic/parse.ts&#45;&gt;fhirR4/Resources/Flag.ts</title>
<path fill="none" stroke="#757575" d="M342.41,-336.43C358.33,-322.78 386.77,-300.39 415,-288 470.2,-263.78 536.43,-249.29 588.94,-240.85"/>
<polygon fill="#757575" stroke="#757575" points="589.57,-244.29 598.91,-239.29 588.49,-237.37 589.57,-244.29"/>
</g>
<!-- fhirR4/Resources/Organization.ts -->
<g id="node7" class="node">
<title>fhirR4/Resources/Organization.ts</title>
<path fill="none" stroke="#c6c5fe" d="M781.83,-159.5C781.83,-159.5 581.17,-159.5 581.17,-159.5 577.33,-159.5 573.5,-155.67 573.5,-151.83 573.5,-151.83 573.5,-144.17 573.5,-144.17 573.5,-140.33 577.33,-136.5 581.17,-136.5 581.17,-136.5 781.83,-136.5 781.83,-136.5 785.67,-136.5 789.5,-140.33 789.5,-144.17 789.5,-144.17 789.5,-151.83 789.5,-151.83 789.5,-155.67 785.67,-159.5 781.83,-159.5"/>
<text text-anchor="middle" x="681.5" y="-144.3" font-family="Arial" font-size="14.00" fill="#c6c5fe">fhirR4/Resources/Organization.ts</text>
</g>
<!-- Logic/parse.ts&#45;&gt;fhirR4/Resources/Organization.ts -->
<g id="edge6" class="edge">
<title>Logic/parse.ts&#45;&gt;fhirR4/Resources/Organization.ts</title>
<path fill="none" stroke="#757575" d="M332.78,-336.33C341.28,-308.34 366.8,-237.11 415,-202 457.51,-171.04 513.52,-156.82 563.14,-150.63"/>
<polygon fill="#757575" stroke="#757575" points="563.77,-154.08 573.3,-149.46 562.96,-147.13 563.77,-154.08"/>
</g>
<!-- fhirR4/Resources/Patient.ts -->
<g id="node8" class="node">
<title>fhirR4/Resources/Patient.ts</title>
<path fill="none" stroke="#c6c5fe" d="M764.33,-359.5C764.33,-359.5 598.67,-359.5 598.67,-359.5 594.83,-359.5 591,-355.67 591,-351.83 591,-351.83 591,-344.17 591,-344.17 591,-340.33 594.83,-336.5 598.67,-336.5 598.67,-336.5 764.33,-336.5 764.33,-336.5 768.17,-336.5 772,-340.33 772,-344.17 772,-344.17 772,-351.83 772,-351.83 772,-355.67 768.17,-359.5 764.33,-359.5"/>
<text text-anchor="middle" x="681.5" y="-344.3" font-family="Arial" font-size="14.00" fill="#c6c5fe">fhirR4/Resources/Patient.ts</text>
</g>
<!-- Logic/parse.ts&#45;&gt;fhirR4/Resources/Patient.ts -->
<g id="edge7" class="edge">
<title>Logic/parse.ts&#45;&gt;fhirR4/Resources/Patient.ts</title>
<path fill="none" stroke="#757575" d="M379.05,-348C431.26,-348 514.92,-348 580.87,-348"/>
<polygon fill="#757575" stroke="#757575" points="580.88,-351.5 590.88,-348 580.88,-344.5 580.88,-351.5"/>
</g>
<!-- fhirR4/Resources/PractitionerRole.ts -->
<g id="node9" class="node">
<title>fhirR4/Resources/PractitionerRole.ts</title>
<path fill="none" stroke="#c6c5fe" d="M791.33,-400.5C791.33,-400.5 571.67,-400.5 571.67,-400.5 567.83,-400.5 564,-396.67 564,-392.83 564,-392.83 564,-385.17 564,-385.17 564,-381.33 567.83,-377.5 571.67,-377.5 571.67,-377.5 791.33,-377.5 791.33,-377.5 795.17,-377.5 799,-381.33 799,-385.17 799,-385.17 799,-392.83 799,-392.83 799,-396.67 795.17,-400.5 791.33,-400.5"/>
<text text-anchor="middle" x="681.5" y="-385.3" font-family="Arial" font-size="14.00" fill="#c6c5fe">fhirR4/Resources/PractitionerRole.ts</text>
</g>
<!-- Logic/parse.ts&#45;&gt;fhirR4/Resources/PractitionerRole.ts -->
<g id="edge8" class="edge">
<title>Logic/parse.ts&#45;&gt;fhirR4/Resources/PractitionerRole.ts</title>
<path fill="none" stroke="#757575" d="M379.16,-356.66C390.89,-358.56 403.37,-360.46 415,-362 460.06,-367.97 509.58,-373.34 553.52,-377.68"/>
<polygon fill="#757575" stroke="#757575" points="553.38,-381.18 563.68,-378.67 554.07,-374.21 553.38,-381.18"/>
</g>
<!-- fhirR4/resources.ts -->
<g id="node10" class="node">
<title>fhirR4/resources.ts</title>
<path fill="none" stroke="#cfffac" d="M1338.33,-357.5C1338.33,-357.5 1223.67,-357.5 1223.67,-357.5 1219.83,-357.5 1216,-353.67 1216,-349.83 1216,-349.83 1216,-342.17 1216,-342.17 1216,-338.33 1219.83,-334.5 1223.67,-334.5 1223.67,-334.5 1338.33,-334.5 1338.33,-334.5 1342.17,-334.5 1346,-338.33 1346,-342.17 1346,-342.17 1346,-349.83 1346,-349.83 1346,-353.67 1342.17,-357.5 1338.33,-357.5"/>
<text text-anchor="middle" x="1281" y="-342.3" font-family="Arial" font-size="14.00" fill="#cfffac">fhirR4/resources.ts</text>
</g>
<!-- Logic/parse.ts&#45;&gt;fhirR4/resources.ts -->
<g id="edge9" class="edge">
<title>Logic/parse.ts&#45;&gt;fhirR4/resources.ts</title>
<path fill="none" stroke="#757575" d="M335.67,-359.82C348.15,-382.88 378.36,-434.53 415,-468 508.82,-553.68 553.44,-574 680.5,-574 680.5,-574 680.5,-574 924,-574 1038.78,-574 1086.15,-606.08 1180,-540 1239.88,-497.84 1266.35,-408.76 1275.72,-367.64"/>
<polygon fill="#757575" stroke="#757575" points="1279.19,-368.12 1277.88,-357.61 1272.35,-366.65 1279.19,-368.12"/>
</g>
<!-- fhirR4/Bundle.ts&#45;&gt;fhirR4/Resources/Consent.ts -->
<g id="edge14" class="edge">
<title>fhirR4/Bundle.ts&#45;&gt;fhirR4/Resources/Consent.ts</title>
<path fill="none" stroke="#757575" d="M479.65,-296.37C493.24,-275.36 524.96,-231.28 564,-210 568.23,-207.69 572.67,-205.63 577.23,-203.79"/>
<polygon fill="#757575" stroke="#757575" points="578.56,-207.03 586.76,-200.32 576.16,-200.46 578.56,-207.03"/>
</g>
<!-- fhirR4/Bundle.ts&#45;&gt;fhirR4/Resources/Encounter.ts -->
<g id="edge15" class="edge">
<title>fhirR4/Bundle.ts&#45;&gt;fhirR4/Resources/Encounter.ts</title>
<path fill="none" stroke="#757575" d="M476.33,-319.76C489.24,-358.66 532.1,-482.17 564,-508 568.91,-511.98 574.31,-515.38 580.01,-518.28"/>
<polygon fill="#757575" stroke="#757575" points="578.63,-521.5 589.18,-522.45 581.52,-515.13 578.63,-521.5"/>
</g>
<!-- fhirR4/Bundle.ts&#45;&gt;fhirR4/Resources/Flag.ts -->
<g id="edge16" class="edge">
<title>fhirR4/Bundle.ts&#45;&gt;fhirR4/Resources/Flag.ts</title>
<path fill="none" stroke="#757575" d="M489.28,-296.42C507.08,-284.65 536.38,-266.65 564,-256 576.33,-251.25 589.74,-247.25 602.93,-243.92"/>
<polygon fill="#757575" stroke="#757575" points="604.05,-247.25 612.95,-241.51 602.41,-240.45 604.05,-247.25"/>
</g>
<!-- fhirR4/Bundle.ts&#45;&gt;fhirR4/Resources/Organization.ts -->
<g id="edge17" class="edge">
<title>fhirR4/Bundle.ts&#45;&gt;fhirR4/Resources/Organization.ts</title>
<path fill="none" stroke="#757575" d="M476.49,-296.35C486.48,-269.11 515.3,-201.15 564,-169 566.83,-167.13 569.78,-165.42 572.82,-163.84"/>
<polygon fill="#757575" stroke="#757575" points="574.57,-166.89 582.19,-159.54 571.64,-160.53 574.57,-166.89"/>
</g>
<!-- fhirR4/Bundle.ts&#45;&gt;fhirR4/Resources/Patient.ts -->
<g id="edge18" class="edge">
<title>fhirR4/Bundle.ts&#45;&gt;fhirR4/Resources/Patient.ts</title>
<path fill="none" stroke="#757575" d="M528.24,-318.72C553.53,-323.58 583.71,-329.39 610.51,-334.54"/>
<polygon fill="#757575" stroke="#757575" points="610.11,-338.03 620.59,-336.48 611.43,-331.15 610.11,-338.03"/>
</g>
<!-- fhirR4/Bundle.ts&#45;&gt;fhirR4/Resources/PractitionerRole.ts -->
<g id="edge19" class="edge">
<title>fhirR4/Bundle.ts&#45;&gt;fhirR4/Resources/PractitionerRole.ts</title>
<path fill="none" stroke="#757575" d="M486.03,-319.71C503.03,-333.76 533.67,-356.92 564,-369 569.37,-371.14 574.98,-373.05 580.69,-374.76"/>
<polygon fill="#757575" stroke="#757575" points="579.83,-378.15 590.4,-377.44 581.69,-371.4 579.83,-378.15"/>
</g>
<!-- fhirR4/Bundle.ts&#45;&gt;fhirR4/resources.ts -->
<g id="edge21" class="edge">
<title>fhirR4/Bundle.ts&#45;&gt;fhirR4/resources.ts</title>
<path fill="none" stroke="#757575" d="M478.59,-319.74C491.04,-342.31 521.86,-391.19 564,-410 804.09,-517.16 1133.92,-404.61 1243.19,-361.39"/>
<polygon fill="#757575" stroke="#757575" points="1244.79,-364.52 1252.77,-357.55 1242.19,-358.02 1244.79,-364.52"/>
</g>
<!-- fhirR4/DomainResource.ts -->
<g id="node12" class="node">
<title>fhirR4/DomainResource.ts</title>
<path fill="none" stroke="#c6c5fe" d="M1003.33,-279.5C1003.33,-279.5 842.67,-279.5 842.67,-279.5 838.83,-279.5 835,-275.67 835,-271.83 835,-271.83 835,-264.17 835,-264.17 835,-260.33 838.83,-256.5 842.67,-256.5 842.67,-256.5 1003.33,-256.5 1003.33,-256.5 1007.17,-256.5 1011,-260.33 1011,-264.17 1011,-264.17 1011,-271.83 1011,-271.83 1011,-275.67 1007.17,-279.5 1003.33,-279.5"/>
<text text-anchor="middle" x="923" y="-264.3" font-family="Arial" font-size="14.00" fill="#c6c5fe">fhirR4/DomainResource.ts</text>
</g>
<!-- fhirR4/Bundle.ts&#45;&gt;fhirR4/DomainResource.ts -->
<g id="edge13" class="edge">
<title>fhirR4/Bundle.ts&#45;&gt;fhirR4/DomainResource.ts</title>
<path fill="none" stroke="#757575" d="M528.05,-298.78C539.89,-297.02 552.34,-295.31 564,-294 651.8,-284.11 752.15,-277.2 824.22,-273"/>
<polygon fill="#757575" stroke="#757575" points="824.86,-276.47 834.65,-272.4 824.46,-269.48 824.86,-276.47"/>
</g>
<!-- fhirR4/dataTypes.ts -->
<g id="node13" class="node">
<title>fhirR4/dataTypes.ts</title>
<path fill="none" stroke="#c6c5fe" d="M1172.33,-299.5C1172.33,-299.5 1054.67,-299.5 1054.67,-299.5 1050.83,-299.5 1047,-295.67 1047,-291.83 1047,-291.83 1047,-284.17 1047,-284.17 1047,-280.33 1050.83,-276.5 1054.67,-276.5 1054.67,-276.5 1172.33,-276.5 1172.33,-276.5 1176.17,-276.5 1180,-280.33 1180,-284.17 1180,-284.17 1180,-291.83 1180,-291.83 1180,-295.67 1176.17,-299.5 1172.33,-299.5"/>
<text text-anchor="middle" x="1113.5" y="-284.3" font-family="Arial" font-size="14.00" fill="#c6c5fe">fhirR4/dataTypes.ts</text>
</g>
<!-- fhirR4/Bundle.ts&#45;&gt;fhirR4/dataTypes.ts -->
<g id="edge20" class="edge">
<title>fhirR4/Bundle.ts&#45;&gt;fhirR4/dataTypes.ts</title>
<path fill="none" stroke="#757575" d="M528.18,-306.26C642.91,-302.67 905.84,-294.46 1036.26,-290.38"/>
<polygon fill="#757575" stroke="#757575" points="1036.67,-293.87 1046.56,-290.06 1036.45,-286.87 1036.67,-293.87"/>
</g>
<!-- fhirR4/Resources/Consent.ts&#45;&gt;fhirR4/resources.ts -->
<g id="edge25" class="edge">
<title>fhirR4/Resources/Consent.ts&#45;&gt;fhirR4/resources.ts</title>
<path fill="none" stroke="#757575" d="M776.05,-186.87C795.53,-186.51 815.93,-186.19 835,-186 989.16,-184.48 1048.65,-141.29 1180,-222 1221.73,-247.65 1253.59,-297.16 1269.25,-325.24"/>
<polygon fill="#757575" stroke="#757575" points="1266.27,-327.08 1274.11,-334.2 1272.42,-323.74 1266.27,-327.08"/>
</g>
<!-- fhirR4/Resources/Consent.ts&#45;&gt;fhirR4/DomainResource.ts -->
<g id="edge23" class="edge">
<title>fhirR4/Resources/Consent.ts&#45;&gt;fhirR4/DomainResource.ts</title>
<path fill="none" stroke="#757575" d="M762.46,-200.54C774.83,-203.15 787.35,-206.28 799,-210 832.35,-220.66 868.34,-238.44 892.72,-251.51"/>
<polygon fill="#757575" stroke="#757575" points="891.32,-254.73 901.78,-256.43 894.67,-248.58 891.32,-254.73"/>
</g>
<!-- fhirR4/Resources/Consent.ts&#45;&gt;fhirR4/dataTypes.ts -->
<g id="edge24" class="edge">
<title>fhirR4/Resources/Consent.ts&#45;&gt;fhirR4/dataTypes.ts</title>
<path fill="none" stroke="#757575" d="M776.28,-187.8C843.37,-189.6 934.88,-197.56 1011,-224 1041,-234.42 1071.26,-255.13 1090.84,-270.17"/>
<polygon fill="#757575" stroke="#757575" points="1088.77,-272.99 1098.79,-276.43 1093.09,-267.49 1088.77,-272.99"/>
</g>
<!-- fhirR4/Resources/Encounter.ts&#45;&gt;fhirR4/resources.ts -->
<g id="edge26" class="edge">
<title>fhirR4/Resources/Encounter.ts&#45;&gt;fhirR4/resources.ts</title>
<path fill="none" stroke="#757575" d="M781.68,-540.44C907.26,-546.76 1115.11,-550.58 1180,-512 1234.75,-479.45 1263.21,-404.26 1274.32,-367.3"/>
<polygon fill="#757575" stroke="#757575" points="1277.73,-368.12 1277.12,-357.55 1271,-366.2 1277.73,-368.12"/>
</g>
<!-- fhirR4/Resources/Flag.ts&#45;&gt;fhirR4/resources.ts -->
<g id="edge29" class="edge">
<title>fhirR4/Resources/Flag.ts&#45;&gt;fhirR4/resources.ts</title>
<path fill="none" stroke="#757575" d="M763.1,-218.47C865.67,-207.63 1045.62,-201.66 1180,-268 1211.27,-283.44 1242.12,-309.63 1261.11,-327.36"/>
<polygon fill="#757575" stroke="#757575" points="1258.83,-330.02 1268.48,-334.38 1263.65,-324.95 1258.83,-330.02"/>
</g>
<!-- fhirR4/Resources/Flag.ts&#45;&gt;fhirR4/DomainResource.ts -->
<g id="edge27" class="edge">
<title>fhirR4/Resources/Flag.ts&#45;&gt;fhirR4/DomainResource.ts</title>
<path fill="none" stroke="#757575" d="M755.01,-241.5C781.62,-245.73 811.93,-250.54 839.36,-254.89"/>
<polygon fill="#757575" stroke="#757575" points="838.9,-258.36 849.33,-256.47 840,-251.45 838.9,-258.36"/>
</g>
<!-- fhirR4/Resources/Flag.ts&#45;&gt;fhirR4/dataTypes.ts -->
<g id="edge28" class="edge">
<title>fhirR4/Resources/Flag.ts&#45;&gt;fhirR4/dataTypes.ts</title>
<path fill="none" stroke="#757575" d="M764.13,-227.28C831.2,-226.75 928.28,-229.93 1011,-248 1034.9,-253.22 1060.53,-263.36 1080.05,-272.12"/>
<polygon fill="#757575" stroke="#757575" points="1078.84,-275.41 1089.38,-276.41 1081.76,-269.05 1078.84,-275.41"/>
</g>
<!-- fhirR4/Resources/Organization.ts&#45;&gt;fhirR4/resources.ts -->
<g id="edge32" class="edge">
<title>fhirR4/Resources/Organization.ts&#45;&gt;fhirR4/resources.ts</title>
<path fill="none" stroke="#757575" d="M727.86,-136.48C820.62,-115.64 1035.46,-81.55 1180,-170 1237.27,-205.04 1264.75,-285.8 1275.01,-324.52"/>
<polygon fill="#757575" stroke="#757575" points="1271.63,-325.41 1277.46,-334.26 1278.42,-323.71 1271.63,-325.41"/>
</g>
<!-- fhirR4/Resources/Organization.ts&#45;&gt;fhirR4/DomainResource.ts -->
<g id="edge30" class="edge">
<title>fhirR4/Resources/Organization.ts&#45;&gt;fhirR4/DomainResource.ts</title>
<path fill="none" stroke="#757575" d="M772.63,-159.54C781.73,-162.09 790.68,-165.2 799,-169 841.61,-188.44 882.13,-226.03 904.37,-248.88"/>
<polygon fill="#757575" stroke="#757575" points="902.01,-251.48 911.45,-256.3 907.08,-246.65 902.01,-251.48"/>
</g>
<!-- fhirR4/Resources/Organization.ts&#45;&gt;fhirR4/dataTypes.ts -->
<g id="edge31" class="edge">
<title>fhirR4/Resources/Organization.ts&#45;&gt;fhirR4/dataTypes.ts</title>
<path fill="none" stroke="#757575" d="M789.55,-142.81C856.31,-143.73 942.29,-152.68 1011,-186 1049.47,-204.65 1081.86,-243.95 1099.12,-267.95"/>
<polygon fill="#757575" stroke="#757575" points="1096.37,-270.14 1104.97,-276.33 1102.11,-266.13 1096.37,-270.14"/>
</g>
<!-- fhirR4/Resources/Patient.ts&#45;&gt;fhirR4/resources.ts -->
<g id="edge35" class="edge">
<title>fhirR4/Resources/Patient.ts&#45;&gt;fhirR4/resources.ts</title>
<path fill="none" stroke="#757575" d="M772.28,-347.7C890.43,-347.3 1095.95,-346.62 1205.78,-346.25"/>
<polygon fill="#757575" stroke="#757575" points="1205.8,-349.75 1215.78,-346.21 1205.77,-342.75 1205.8,-349.75"/>
</g>
<!-- fhirR4/Resources/Patient.ts&#45;&gt;fhirR4/DomainResource.ts -->
<g id="edge33" class="edge">
<title>fhirR4/Resources/Patient.ts&#45;&gt;fhirR4/DomainResource.ts</title>
<path fill="none" stroke="#757575" d="M717.07,-336.45C759.52,-322.27 831.58,-298.2 877.95,-282.71"/>
<polygon fill="#757575" stroke="#757575" points="879.06,-286.03 887.44,-279.54 876.85,-279.39 879.06,-286.03"/>
</g>
<!-- fhirR4/Resources/Patient.ts&#45;&gt;fhirR4/dataTypes.ts -->
<g id="edge34" class="edge">
<title>fhirR4/Resources/Patient.ts&#45;&gt;fhirR4/dataTypes.ts</title>
<path fill="none" stroke="#757575" d="M772.2,-346.79C838.71,-344.47 931.26,-338.26 1011,-322 1032.55,-317.61 1055.88,-310.01 1074.72,-303.11"/>
<polygon fill="#757575" stroke="#757575" points="1076,-306.36 1084.14,-299.58 1073.54,-299.81 1076,-306.36"/>
</g>
<!-- fhirR4/Resources/PractitionerRole.ts&#45;&gt;fhirR4/resources.ts -->
<g id="edge38" class="edge">
<title>fhirR4/Resources/PractitionerRole.ts&#45;&gt;fhirR4/resources.ts</title>
<path fill="none" stroke="#757575" d="M799.28,-386.54C862.08,-384.77 940.83,-381.81 1011,-377 1086.31,-371.84 1105.05,-369.01 1180,-360 1188.32,-359 1197.02,-357.88 1205.66,-356.73"/>
<polygon fill="#757575" stroke="#757575" points="1206.32,-360.18 1215.76,-355.37 1205.39,-353.24 1206.32,-360.18"/>
</g>
<!-- fhirR4/Resources/PractitionerRole.ts&#45;&gt;fhirR4/DomainResource.ts -->
<g id="edge36" class="edge">
<title>fhirR4/Resources/PractitionerRole.ts&#45;&gt;fhirR4/DomainResource.ts</title>
<path fill="none" stroke="#757575" d="M776.02,-377.42C783.96,-375.11 791.72,-372.33 799,-369 842.16,-349.27 882.77,-310.55 904.83,-287.21"/>
<polygon fill="#757575" stroke="#757575" points="907.6,-289.36 911.83,-279.65 902.47,-284.61 907.6,-289.36"/>
</g>
<!-- fhirR4/Resources/PractitionerRole.ts&#45;&gt;fhirR4/dataTypes.ts -->
<g id="edge37" class="edge">
<title>fhirR4/Resources/PractitionerRole.ts&#45;&gt;fhirR4/dataTypes.ts</title>
<path fill="none" stroke="#757575" d="M799.38,-384.73C863.26,-379.68 942.99,-368.89 1011,-346 1039.36,-336.46 1068.71,-318.67 1088.52,-305.3"/>
<polygon fill="#757575" stroke="#757575" points="1090.66,-308.07 1096.9,-299.51 1086.68,-302.31 1090.66,-308.07"/>
</g>
<!-- Logic/validator.ts -->
<g id="node11" class="node">
<title>Logic/validator.ts</title>
<path fill="none" stroke="#c6c5fe" d="M234.33,-359.5C234.33,-359.5 132.67,-359.5 132.67,-359.5 128.83,-359.5 125,-355.67 125,-351.83 125,-351.83 125,-344.17 125,-344.17 125,-340.33 128.83,-336.5 132.67,-336.5 132.67,-336.5 234.33,-336.5 234.33,-336.5 238.17,-336.5 242,-340.33 242,-344.17 242,-344.17 242,-351.83 242,-351.83 242,-355.67 238.17,-359.5 234.33,-359.5"/>
<text text-anchor="middle" x="183.5" y="-344.3" font-family="Arial" font-size="14.00" fill="#c6c5fe">Logic/validator.ts</text>
</g>
<!-- Logic/validator.ts&#45;&gt;Logic/dom.ts -->
<g id="edge10" class="edge">
<title>Logic/validator.ts&#45;&gt;Logic/dom.ts</title>
<path fill="none" stroke="#757575" d="M193.16,-359.71C221.39,-397.22 314.75,-516.15 415,-588 420.11,-591.66 425.81,-595.02 431.57,-598.01"/>
<polygon fill="#757575" stroke="#757575" points="430.05,-601.17 440.57,-602.42 433.13,-594.88 430.05,-601.17"/>
</g>
<!-- Logic/validator.ts&#45;&gt;Logic/parse.ts -->
<g id="edge11" class="edge">
<title>Logic/validator.ts&#45;&gt;Logic/parse.ts</title>
<path fill="none" stroke="#757575" d="M242.25,-348C250.63,-348 259.27,-348 267.68,-348"/>
<polygon fill="#757575" stroke="#757575" points="267.81,-351.5 277.81,-348 267.81,-344.5 267.81,-351.5"/>
</g>
<!-- Logic/validator.ts&#45;&gt;fhirR4/resources.ts -->
<g id="edge12" class="edge">
<title>Logic/validator.ts&#45;&gt;fhirR4/resources.ts</title>
<path fill="none" stroke="#757575" d="M187.62,-336.42C204.64,-276.04 292.2,0 470.5,0 470.5,0 470.5,0 924,0 1049.47,0 1092.18,-29.39 1180,-119 1239.19,-179.39 1266.41,-280.69 1275.88,-324.61"/>
<polygon fill="#757575" stroke="#757575" points="1272.47,-325.4 1277.92,-334.48 1279.33,-323.98 1272.47,-325.4"/>
</g>
<!-- fhirR4/DomainResource.ts&#45;&gt;fhirR4/dataTypes.ts -->
<g id="edge22" class="edge">
<title>fhirR4/DomainResource.ts&#45;&gt;fhirR4/dataTypes.ts</title>
<path fill="none" stroke="#757575" d="M1011.08,-277.24C1019.65,-278.15 1028.3,-279.07 1036.75,-279.96"/>
<polygon fill="#757575" stroke="#757575" points="1036.61,-283.47 1046.93,-281.04 1037.35,-276.51 1036.61,-283.47"/>
</g>
<!-- fhirR4/dataTypes.ts&#45;&gt;fhirR4/resources.ts -->
<g id="edge39" class="edge">
<title>fhirR4/dataTypes.ts&#45;&gt;fhirR4/resources.ts</title>
<path fill="none" stroke="#757575" d="M1147.59,-299.6C1173.41,-308.65 1209.47,-321.28 1237.44,-331.08"/>
<polygon fill="#757575" stroke="#757575" points="1236.37,-334.42 1246.96,-334.42 1238.68,-327.81 1236.37,-334.42"/>
</g>
<!-- main.ts -->
<g id="node14" class="node">
<title>main.ts</title>
<path fill="none" stroke="#c6c5fe" d="M67.33,-359.5C67.33,-359.5 21.67,-359.5 21.67,-359.5 17.83,-359.5 14,-355.67 14,-351.83 14,-351.83 14,-344.17 14,-344.17 14,-340.33 17.83,-336.5 21.67,-336.5 21.67,-336.5 67.33,-336.5 67.33,-336.5 71.17,-336.5 75,-340.33 75,-344.17 75,-344.17 75,-351.83 75,-351.83 75,-355.67 71.17,-359.5 67.33,-359.5"/>
<text text-anchor="middle" x="44.5" y="-344.3" font-family="Arial" font-size="14.00" fill="#c6c5fe">main.ts</text>
</g>
<!-- main.ts&#45;&gt;Logic/validator.ts -->
<g id="edge40" class="edge">
<title>main.ts&#45;&gt;Logic/validator.ts</title>
<path fill="none" stroke="#757575" d="M75.23,-348C86.94,-348 100.91,-348 114.84,-348"/>
<polygon fill="#757575" stroke="#757575" points="114.94,-351.5 124.94,-348 114.94,-344.5 114.94,-351.5"/>
</g>
<!-- vite&#45;env.d.ts -->
<g id="node15" class="node">
<title>vite&#45;env.d.ts</title>
<path fill="none" stroke="#cfffac" d="M81.33,-400.5C81.33,-400.5 7.67,-400.5 7.67,-400.5 3.83,-400.5 0,-396.67 0,-392.83 0,-392.83 0,-385.17 0,-385.17 0,-381.33 3.83,-377.5 7.67,-377.5 7.67,-377.5 81.33,-377.5 81.33,-377.5 85.17,-377.5 89,-381.33 89,-385.17 89,-385.17 89,-392.83 89,-392.83 89,-396.67 85.17,-400.5 81.33,-400.5"/>
<text text-anchor="middle" x="44.5" y="-385.3" font-family="Arial" font-size="14.00" fill="#cfffac">vite&#45;env.d.ts</text>
</g>
</g>
</svg>
