<?xml version="1.0" encoding="UTF-8" standalone="no"?>
<!DOCTYPE svg PUBLIC "-//W3C//DTD SVG 1.1//EN"
 "http://www.w3.org/Graphics/SVG/1.1/DTD/svg11.dtd">
<!-- Generated by graphviz version 2.43.0 (0)
 -->
<!-- Title: G Pages: 1 -->
<svg width="2187pt" height="950pt"
 viewBox="0.00 0.00 2187.20 950.05" xmlns="http://www.w3.org/2000/svg" xmlns:xlink="http://www.w3.org/1999/xlink">
<g id="graph0" class="graph" transform="scale(1 1) rotate(0) translate(21.6 928.45)">
<title>G</title>
<polygon fill="#111111" stroke="transparent" points="-21.6,21.6 -21.6,-928.45 2165.6,-928.45 2165.6,21.6 -21.6,21.6"/>
<!-- Logic/dom.ts -->
<g id="node1" class="node">
<title>Logic/dom.ts</title>
<path fill="none" stroke="#cfffac" d="M524.83,-761.41C524.83,-761.41 446.17,-761.41 446.17,-761.41 442.33,-761.41 438.5,-757.57 438.5,-753.74 438.5,-753.74 438.5,-746.07 438.5,-746.07 438.5,-742.24 442.33,-738.41 446.17,-738.41 446.17,-738.41 524.83,-738.41 524.83,-738.41 528.67,-738.41 532.5,-742.24 532.5,-746.07 532.5,-746.07 532.5,-753.74 532.5,-753.74 532.5,-757.57 528.67,-761.41 524.83,-761.41"/>
<text text-anchor="middle" x="485.5" y="-746.21" font-family="Arial" font-size="14.00" fill="#cfffac">Logic/dom.ts</text>
</g>
<!-- Logic/parse.ts -->
<g id="node2" class="node">
<title>Logic/parse.ts</title>
<path fill="none" stroke="#c6c5fe" d="M371.33,-588.41C371.33,-588.41 285.67,-588.41 285.67,-588.41 281.83,-588.41 278,-584.57 278,-580.74 278,-580.74 278,-573.07 278,-573.07 278,-569.24 281.83,-565.41 285.67,-565.41 285.67,-565.41 371.33,-565.41 371.33,-565.41 375.17,-565.41 379,-569.24 379,-573.07 379,-573.07 379,-580.74 379,-580.74 379,-584.57 375.17,-588.41 371.33,-588.41"/>
<text text-anchor="middle" x="328.5" y="-573.21" font-family="Arial" font-size="14.00" fill="#c6c5fe">Logic/parse.ts</text>
</g>
<!-- Logic/parse.ts&#45;&gt;Logic/dom.ts -->
<g id="edge1" class="edge">
<title>Logic/parse.ts&#45;&gt;Logic/dom.ts</title>
<path fill="none" stroke="#757575" d="M333.22,-588.63C342.54,-616.15 369.42,-685.44 415,-723.91 419.6,-727.79 424.85,-731.13 430.34,-733.98"/>
<polygon fill="#757575" stroke="#757575" points="429.2,-737.31 439.75,-738.34 432.15,-730.96 429.2,-737.31"/>
</g>
<!-- Resources/Bundle.ts -->
<g id="node3" class="node">
<title>Resources/Bundle.ts</title>
<path fill="none" stroke="#c6c5fe" d="M548.33,-510.41C548.33,-510.41 422.67,-510.41 422.67,-510.41 418.83,-510.41 415,-506.57 415,-502.74 415,-502.74 415,-495.07 415,-495.07 415,-491.24 418.83,-487.41 422.67,-487.41 422.67,-487.41 548.33,-487.41 548.33,-487.41 552.17,-487.41 556,-491.24 556,-495.07 556,-495.07 556,-502.74 556,-502.74 556,-506.57 552.17,-510.41 548.33,-510.41"/>
<text text-anchor="middle" x="485.5" y="-495.21" font-family="Arial" font-size="14.00" fill="#c6c5fe">Resources/Bundle.ts</text>
</g>
<!-- Logic/parse.ts&#45;&gt;Resources/Bundle.ts -->
<g id="edge2" class="edge">
<title>Logic/parse.ts&#45;&gt;Resources/Bundle.ts</title>
<path fill="none" stroke="#757575" d="M346.32,-565.37C363.19,-554.11 390.15,-536.98 415,-524.91 423,-521.02 431.74,-517.34 440.23,-514.04"/>
<polygon fill="#757575" stroke="#757575" points="441.55,-517.28 449.67,-510.48 439.08,-510.73 441.55,-517.28"/>
</g>
<!-- Resources/Consent.ts -->
<g id="node4" class="node">
<title>Resources/Consent.ts</title>
<path fill="none" stroke="#c6c5fe" d="M1003.83,-551.41C1003.83,-551.41 870.17,-551.41 870.17,-551.41 866.33,-551.41 862.5,-547.57 862.5,-543.74 862.5,-543.74 862.5,-536.07 862.5,-536.07 862.5,-532.24 866.33,-528.41 870.17,-528.41 870.17,-528.41 1003.83,-528.41 1003.83,-528.41 1007.67,-528.41 1011.5,-532.24 1011.5,-536.07 1011.5,-536.07 1011.5,-543.74 1011.5,-543.74 1011.5,-547.57 1007.67,-551.41 1003.83,-551.41"/>
<text text-anchor="middle" x="937" y="-536.21" font-family="Arial" font-size="14.00" fill="#c6c5fe">Resources/Consent.ts</text>
</g>
<!-- Logic/parse.ts&#45;&gt;Resources/Consent.ts -->
<g id="edge3" class="edge">
<title>Logic/parse.ts&#45;&gt;Resources/Consent.ts</title>
<path fill="none" stroke="#757575" d="M379.13,-573.88C482.84,-567.55 723.5,-552.87 851.84,-545.04"/>
<polygon fill="#757575" stroke="#757575" points="852.25,-548.52 862.02,-544.42 851.82,-541.54 852.25,-548.52"/>
</g>
<!-- Resources/Encounter.ts -->
<g id="node5" class="node">
<title>Resources/Encounter.ts</title>
<path fill="none" stroke="#c6c5fe" d="M1009.33,-700.41C1009.33,-700.41 864.67,-700.41 864.67,-700.41 860.83,-700.41 857,-696.57 857,-692.74 857,-692.74 857,-685.07 857,-685.07 857,-681.24 860.83,-677.41 864.67,-677.41 864.67,-677.41 1009.33,-677.41 1009.33,-677.41 1013.17,-677.41 1017,-681.24 1017,-685.07 1017,-685.07 1017,-692.74 1017,-692.74 1017,-696.57 1013.17,-700.41 1009.33,-700.41"/>
<text text-anchor="middle" x="937" y="-685.21" font-family="Arial" font-size="14.00" fill="#c6c5fe">Resources/Encounter.ts</text>
</g>
<!-- Logic/parse.ts&#45;&gt;Resources/Encounter.ts -->
<g id="edge4" class="edge">
<title>Logic/parse.ts&#45;&gt;Resources/Encounter.ts</title>
<path fill="none" stroke="#757575" d="M379.23,-586.24C390.96,-588.43 403.42,-590.76 415,-592.91 574.77,-622.58 762.17,-657.02 862.96,-675.51"/>
<polygon fill="#757575" stroke="#757575" points="862.57,-679 873.03,-677.36 863.83,-672.12 862.57,-679"/>
</g>
<!-- Resources/Flag.ts -->
<g id="node6" class="node">
<title>Resources/Flag.ts</title>
<path fill="none" stroke="#c6c5fe" d="M991.83,-592.41C991.83,-592.41 882.17,-592.41 882.17,-592.41 878.33,-592.41 874.5,-588.57 874.5,-584.74 874.5,-584.74 874.5,-577.07 874.5,-577.07 874.5,-573.24 878.33,-569.41 882.17,-569.41 882.17,-569.41 991.83,-569.41 991.83,-569.41 995.67,-569.41 999.5,-573.24 999.5,-577.07 999.5,-577.07 999.5,-584.74 999.5,-584.74 999.5,-588.57 995.67,-592.41 991.83,-592.41"/>
<text text-anchor="middle" x="937" y="-577.21" font-family="Arial" font-size="14.00" fill="#c6c5fe">Resources/Flag.ts</text>
</g>
<!-- Logic/parse.ts&#45;&gt;Resources/Flag.ts -->
<g id="edge5" class="edge">
<title>Logic/parse.ts&#45;&gt;Resources/Flag.ts</title>
<path fill="none" stroke="#757575" d="M379.13,-577.23C486.18,-577.94 739.12,-579.61 863.87,-580.43"/>
<polygon fill="#757575" stroke="#757575" points="864.06,-583.93 874.08,-580.5 864.1,-576.93 864.06,-583.93"/>
</g>
<!-- Resources/Organization.ts -->
<g id="node7" class="node">
<title>Resources/Organization.ts</title>
<path fill="none" stroke="#c6c5fe" d="M1017.33,-430.41C1017.33,-430.41 856.67,-430.41 856.67,-430.41 852.83,-430.41 849,-426.57 849,-422.74 849,-422.74 849,-415.07 849,-415.07 849,-411.24 852.83,-407.41 856.67,-407.41 856.67,-407.41 1017.33,-407.41 1017.33,-407.41 1021.17,-407.41 1025,-411.24 1025,-415.07 1025,-415.07 1025,-422.74 1025,-422.74 1025,-426.57 1021.17,-430.41 1017.33,-430.41"/>
<text text-anchor="middle" x="937" y="-415.21" font-family="Arial" font-size="14.00" fill="#c6c5fe">Resources/Organization.ts</text>
</g>
<!-- Logic/parse.ts&#45;&gt;Resources/Organization.ts -->
<g id="edge6" class="edge">
<title>Logic/parse.ts&#45;&gt;Resources/Organization.ts</title>
<path fill="none" stroke="#757575" d="M332.65,-565.4C340.86,-537.9 365.8,-468.51 415,-439.91 563.87,-353.37 779.15,-383.84 879.96,-405.21"/>
<polygon fill="#757575" stroke="#757575" points="879.42,-408.67 889.94,-407.38 880.91,-401.83 879.42,-408.67"/>
</g>
<!-- Resources/Patient.ts -->
<g id="node8" class="node">
<title>Resources/Patient.ts</title>
<path fill="none" stroke="#c6c5fe" d="M999.83,-344.41C999.83,-344.41 874.17,-344.41 874.17,-344.41 870.33,-344.41 866.5,-340.57 866.5,-336.74 866.5,-336.74 866.5,-329.07 866.5,-329.07 866.5,-325.24 870.33,-321.41 874.17,-321.41 874.17,-321.41 999.83,-321.41 999.83,-321.41 1003.67,-321.41 1007.5,-325.24 1007.5,-329.07 1007.5,-329.07 1007.5,-336.74 1007.5,-336.74 1007.5,-340.57 1003.67,-344.41 999.83,-344.41"/>
<text text-anchor="middle" x="937" y="-329.21" font-family="Arial" font-size="14.00" fill="#c6c5fe">Resources/Patient.ts</text>
</g>
<!-- Logic/parse.ts&#45;&gt;Resources/Patient.ts -->
<g id="edge7" class="edge">
<title>Logic/parse.ts&#45;&gt;Resources/Patient.ts</title>
<path fill="none" stroke="#757575" d="M330.9,-565.21C335.63,-531.51 354.23,-433.8 415,-389.91 548.63,-293.4 754.03,-304.93 862.71,-319.93"/>
<polygon fill="#757575" stroke="#757575" points="862.52,-323.44 872.92,-321.39 863.51,-316.51 862.52,-323.44"/>
</g>
<!-- Resources/PractitionerRole.ts -->
<g id="node9" class="node">
<title>Resources/PractitionerRole.ts</title>
<path fill="none" stroke="#c6c5fe" d="M1026.83,-510.41C1026.83,-510.41 847.17,-510.41 847.17,-510.41 843.33,-510.41 839.5,-506.57 839.5,-502.74 839.5,-502.74 839.5,-495.07 839.5,-495.07 839.5,-491.24 843.33,-487.41 847.17,-487.41 847.17,-487.41 1026.83,-487.41 1026.83,-487.41 1030.67,-487.41 1034.5,-491.24 1034.5,-495.07 1034.5,-495.07 1034.5,-502.74 1034.5,-502.74 1034.5,-506.57 1030.67,-510.41 1026.83,-510.41"/>
<text text-anchor="middle" x="937" y="-495.21" font-family="Arial" font-size="14.00" fill="#c6c5fe">Resources/PractitionerRole.ts</text>
</g>
<!-- Logic/parse.ts&#45;&gt;Resources/PractitionerRole.ts -->
<g id="edge8" class="edge">
<title>Logic/parse.ts&#45;&gt;Resources/PractitionerRole.ts</title>
<path fill="none" stroke="#757575" d="M335.24,-565.18C346.79,-543.15 375.15,-496.15 415,-477.91 577.41,-403.57 798.97,-456.3 892.02,-484.38"/>
<polygon fill="#757575" stroke="#757575" points="891.08,-487.75 901.67,-487.35 893.13,-481.06 891.08,-487.75"/>
</g>
<!-- Resources/resources.ts -->
<g id="node10" class="node">
<title>Resources/resources.ts</title>
<path fill="none" stroke="#cfffac" d="M1285.83,-763.41C1285.83,-763.41 1143.17,-763.41 1143.17,-763.41 1139.33,-763.41 1135.5,-759.57 1135.5,-755.74 1135.5,-755.74 1135.5,-748.07 1135.5,-748.07 1135.5,-744.24 1139.33,-740.41 1143.17,-740.41 1143.17,-740.41 1285.83,-740.41 1285.83,-740.41 1289.67,-740.41 1293.5,-744.24 1293.5,-748.07 1293.5,-748.07 1293.5,-755.74 1293.5,-755.74 1293.5,-759.57 1289.67,-763.41 1285.83,-763.41"/>
<text text-anchor="middle" x="1214.5" y="-748.21" font-family="Arial" font-size="14.00" fill="#cfffac">Resources/resources.ts</text>
</g>
<!-- Logic/parse.ts&#45;&gt;Resources/resources.ts -->
<g id="edge9" class="edge">
<title>Logic/parse.ts&#45;&gt;Resources/resources.ts</title>
<path fill="none" stroke="#757575" d="M348.92,-588.43C365.86,-598.05 391.36,-611.51 415,-619.91 490.9,-646.88 513.26,-641.89 592,-658.91 696.8,-681.55 722.15,-691.83 828,-708.91 929.32,-725.25 1046.64,-737.37 1124.99,-744.51"/>
<polygon fill="#757575" stroke="#757575" points="1125.03,-748.03 1135.3,-745.44 1125.66,-741.06 1125.03,-748.03"/>
</g>
<!-- Resources/Bundle.ts&#45;&gt;Resources/resources.ts -->
<g id="edge17" class="edge">
<title>Resources/Bundle.ts&#45;&gt;Resources/resources.ts</title>
<path fill="none" stroke="#757575" d="M525.28,-510.52C650,-547.89 1033.38,-662.87 1046,-667.91 1095.91,-687.82 1151.16,-717.01 1184.07,-735.21"/>
<polygon fill="#757575" stroke="#757575" points="1182.69,-738.46 1193.13,-740.26 1186.1,-732.34 1182.69,-738.46"/>
</g>
<!-- Resources/Elements/DomainResource.ts -->
<g id="node12" class="node">
<title>Resources/Elements/DomainResource.ts</title>
<path fill="none" stroke="#c6c5fe" d="M1339.33,-489.41C1339.33,-489.41 1089.67,-489.41 1089.67,-489.41 1085.83,-489.41 1082,-485.57 1082,-481.74 1082,-481.74 1082,-474.07 1082,-474.07 1082,-470.24 1085.83,-466.41 1089.67,-466.41 1089.67,-466.41 1339.33,-466.41 1339.33,-466.41 1343.17,-466.41 1347,-470.24 1347,-474.07 1347,-474.07 1347,-481.74 1347,-481.74 1347,-485.57 1343.17,-489.41 1339.33,-489.41"/>
<text text-anchor="middle" x="1214.5" y="-474.21" font-family="Arial" font-size="14.00" fill="#c6c5fe">Resources/Elements/DomainResource.ts</text>
</g>
<!-- Resources/Bundle.ts&#45;&gt;Resources/Elements/DomainResource.ts -->
<g id="edge13" class="edge">
<title>Resources/Bundle.ts&#45;&gt;Resources/Elements/DomainResource.ts</title>
<path fill="none" stroke="#757575" d="M533.99,-487.39C552.04,-483.56 572.86,-479.79 592,-477.91 756.01,-461.74 945.55,-464.87 1071.77,-470.02"/>
<polygon fill="#757575" stroke="#757575" points="1071.75,-473.52 1081.88,-470.44 1072.04,-466.52 1071.75,-473.52"/>
</g>
<!-- Resources/Elements/Signature.ts -->
<g id="node13" class="node">
<title>Resources/Elements/Signature.ts</title>
<path fill="none" stroke="#c6c5fe" d="M1038.33,-820.41C1038.33,-820.41 835.67,-820.41 835.67,-820.41 831.83,-820.41 828,-816.57 828,-812.74 828,-812.74 828,-805.07 828,-805.07 828,-801.24 831.83,-797.41 835.67,-797.41 835.67,-797.41 1038.33,-797.41 1038.33,-797.41 1042.17,-797.41 1046,-801.24 1046,-805.07 1046,-805.07 1046,-812.74 1046,-812.74 1046,-816.57 1042.17,-820.41 1038.33,-820.41"/>
<text text-anchor="middle" x="937" y="-805.21" font-family="Arial" font-size="14.00" fill="#c6c5fe">Resources/Elements/Signature.ts</text>
</g>
<!-- Resources/Bundle.ts&#45;&gt;Resources/Elements/Signature.ts -->
<g id="edge14" class="edge">
<title>Resources/Bundle.ts&#45;&gt;Resources/Elements/Signature.ts</title>
<path fill="none" stroke="#757575" d="M498.65,-510.6C517.76,-528.73 556.36,-564.31 592,-590.91 703.08,-673.78 845.73,-757.55 906.49,-792.26"/>
<polygon fill="#757575" stroke="#757575" points="905.09,-795.49 915.52,-797.4 908.56,-789.41 905.09,-795.49"/>
</g>
<!-- Resources/dataTypes.ts -->
<g id="node14" class="node">
<title>Resources/dataTypes.ts</title>
<path fill="none" stroke="#cfffac" d="M2115.33,-274.41C2115.33,-274.41 1969.67,-274.41 1969.67,-274.41 1965.83,-274.41 1962,-270.57 1962,-266.74 1962,-266.74 1962,-259.07 1962,-259.07 1962,-255.24 1965.83,-251.41 1969.67,-251.41 1969.67,-251.41 2115.33,-251.41 2115.33,-251.41 2119.17,-251.41 2123,-255.24 2123,-259.07 2123,-259.07 2123,-266.74 2123,-266.74 2123,-270.57 2119.17,-274.41 2115.33,-274.41"/>
<text text-anchor="middle" x="2042.5" y="-259.21" font-family="Arial" font-size="14.00" fill="#cfffac">Resources/dataTypes.ts</text>
</g>
<!-- Resources/Bundle.ts&#45;&gt;Resources/dataTypes.ts -->
<g id="edge15" class="edge">
<title>Resources/Bundle.ts&#45;&gt;Resources/dataTypes.ts</title>
<path fill="none" stroke="#757575" d="M497.13,-487.19C551.6,-428.16 807.58,-162.62 1082,-74.91 1431.28,36.73 1575.72,28.43 1905,-132.91 1958.27,-159 2004.53,-213.31 2027.01,-242.8"/>
<polygon fill="#757575" stroke="#757575" points="2024.41,-245.18 2033.2,-251.1 2030.02,-240.99 2024.41,-245.18"/>
</g>
<!-- Resources/fhirR4Resources.ts -->
<g id="node15" class="node">
<title>Resources/fhirR4Resources.ts</title>
<path fill="none" stroke="#c6c5fe" d="M784.33,-510.41C784.33,-510.41 599.67,-510.41 599.67,-510.41 595.83,-510.41 592,-506.57 592,-502.74 592,-502.74 592,-495.07 592,-495.07 592,-491.24 595.83,-487.41 599.67,-487.41 599.67,-487.41 784.33,-487.41 784.33,-487.41 788.17,-487.41 792,-491.24 792,-495.07 792,-495.07 792,-502.74 792,-502.74 792,-506.57 788.17,-510.41 784.33,-510.41"/>
<text text-anchor="middle" x="692" y="-495.21" font-family="Arial" font-size="14.00" fill="#c6c5fe">Resources/fhirR4Resources.ts</text>
</g>
<!-- Resources/Bundle.ts&#45;&gt;Resources/fhirR4Resources.ts -->
<g id="edge16" class="edge">
<title>Resources/Bundle.ts&#45;&gt;Resources/fhirR4Resources.ts</title>
<path fill="none" stroke="#757575" d="M556.02,-498.91C564.34,-498.91 572.99,-498.91 581.7,-498.91"/>
<polygon fill="#757575" stroke="#757575" points="581.95,-502.41 591.95,-498.91 581.95,-495.41 581.95,-502.41"/>
</g>
<!-- Resources/Consent.ts&#45;&gt;Resources/resources.ts -->
<g id="edge23" class="edge">
<title>Resources/Consent.ts&#45;&gt;Resources/resources.ts</title>
<path fill="none" stroke="#757575" d="M1011.52,-543.27C1024.01,-546.58 1036.12,-551.81 1046,-559.91 1079.32,-587.22 1056.07,-615.5 1082,-649.91 1109.73,-686.71 1153.96,-717.25 1183.35,-735.04"/>
<polygon fill="#757575" stroke="#757575" points="1181.58,-738.06 1191.97,-740.15 1185.15,-732.04 1181.58,-738.06"/>
</g>
<!-- Resources/Consent.ts&#45;&gt;Resources/Elements/DomainResource.ts -->
<g id="edge20" class="edge">
<title>Resources/Consent.ts&#45;&gt;Resources/Elements/DomainResource.ts</title>
<path fill="none" stroke="#757575" d="M1000.07,-528.37C1015.13,-525.42 1031.17,-522.16 1046,-518.91 1083.9,-510.59 1126.35,-500.19 1159.03,-491.94"/>
<polygon fill="#757575" stroke="#757575" points="1160.01,-495.3 1168.85,-489.45 1158.29,-488.52 1160.01,-495.3"/>
</g>
<!-- Resources/Consent.ts&#45;&gt;Resources/dataTypes.ts -->
<g id="edge22" class="edge">
<title>Resources/Consent.ts&#45;&gt;Resources/dataTypes.ts</title>
<path fill="none" stroke="#757575" d="M1011.62,-550.67C1023.26,-553.19 1035.06,-556.24 1046,-559.91 1062.96,-565.59 1064.59,-573.8 1082,-577.91 1139.31,-591.44 1299.79,-613.11 1347,-577.91 1391.98,-544.36 1341.92,-495.12 1383,-456.91 1556.95,-295.11 1683.58,-427.98 1905,-341.91 1946.5,-325.77 1990.36,-298.26 2016.83,-280.33"/>
<polygon fill="#757575" stroke="#757575" points="2018.84,-283.19 2025.11,-274.65 2014.88,-277.42 2018.84,-283.19"/>
</g>
<!-- Resources/Elements/Attachment.ts -->
<g id="node16" class="node">
<title>Resources/Elements/Attachment.ts</title>
<path fill="none" stroke="#c6c5fe" d="M1321.33,-409.41C1321.33,-409.41 1107.67,-409.41 1107.67,-409.41 1103.83,-409.41 1100,-405.57 1100,-401.74 1100,-401.74 1100,-394.07 1100,-394.07 1100,-390.24 1103.83,-386.41 1107.67,-386.41 1107.67,-386.41 1321.33,-386.41 1321.33,-386.41 1325.17,-386.41 1329,-390.24 1329,-394.07 1329,-394.07 1329,-401.74 1329,-401.74 1329,-405.57 1325.17,-409.41 1321.33,-409.41"/>
<text text-anchor="middle" x="1214.5" y="-394.21" font-family="Arial" font-size="14.00" fill="#c6c5fe">Resources/Elements/Attachment.ts</text>
</g>
<!-- Resources/Consent.ts&#45;&gt;Resources/Elements/Attachment.ts -->
<g id="edge18" class="edge">
<title>Resources/Consent.ts&#45;&gt;Resources/Elements/Attachment.ts</title>
<path fill="none" stroke="#757575" d="M1011.75,-534.3C1023.94,-531 1035.88,-526.1 1046,-518.91 1071.96,-500.43 1058.32,-478.23 1082,-456.91 1104.59,-436.56 1135.35,-422.24 1161.44,-412.81"/>
<polygon fill="#757575" stroke="#757575" points="1162.88,-416.01 1171.18,-409.43 1160.59,-409.4 1162.88,-416.01"/>
</g>
<!-- Resources/Elements/CodeableConcept.ts -->
<g id="node17" class="node">
<title>Resources/Elements/CodeableConcept.ts</title>
<path fill="none" stroke="#c6c5fe" d="M1897.33,-550.41C1897.33,-550.41 1644.67,-550.41 1644.67,-550.41 1640.83,-550.41 1637,-546.57 1637,-542.74 1637,-542.74 1637,-535.07 1637,-535.07 1637,-531.24 1640.83,-527.41 1644.67,-527.41 1644.67,-527.41 1897.33,-527.41 1897.33,-527.41 1901.17,-527.41 1905,-531.24 1905,-535.07 1905,-535.07 1905,-542.74 1905,-542.74 1905,-546.57 1901.17,-550.41 1897.33,-550.41"/>
<text text-anchor="middle" x="1771" y="-535.21" font-family="Arial" font-size="14.00" fill="#c6c5fe">Resources/Elements/CodeableConcept.ts</text>
</g>
<!-- Resources/Consent.ts&#45;&gt;Resources/Elements/CodeableConcept.ts -->
<g id="edge19" class="edge">
<title>Resources/Consent.ts&#45;&gt;Resources/Elements/CodeableConcept.ts</title>
<path fill="none" stroke="#757575" d="M1011.55,-545.52C1023.69,-548.64 1035.67,-553.23 1046,-559.91 1069.6,-575.17 1057.1,-598.86 1082,-611.91 1307.98,-730.31 1632.58,-601.99 1736.59,-554.84"/>
<polygon fill="#757575" stroke="#757575" points="1738.33,-557.9 1745.96,-550.54 1735.41,-551.53 1738.33,-557.9"/>
</g>
<!-- Resources/Elements/Reference.ts -->
<g id="node18" class="node">
<title>Resources/Elements/Reference.ts</title>
<path fill="none" stroke="#cfffac" d="M1317.83,-569.41C1317.83,-569.41 1111.17,-569.41 1111.17,-569.41 1107.33,-569.41 1103.5,-565.57 1103.5,-561.74 1103.5,-561.74 1103.5,-554.07 1103.5,-554.07 1103.5,-550.24 1107.33,-546.41 1111.17,-546.41 1111.17,-546.41 1317.83,-546.41 1317.83,-546.41 1321.67,-546.41 1325.5,-550.24 1325.5,-554.07 1325.5,-554.07 1325.5,-561.74 1325.5,-561.74 1325.5,-565.57 1321.67,-569.41 1317.83,-569.41"/>
<text text-anchor="middle" x="1214.5" y="-554.21" font-family="Arial" font-size="14.00" fill="#cfffac">Resources/Elements/Reference.ts</text>
</g>
<!-- Resources/Consent.ts&#45;&gt;Resources/Elements/Reference.ts -->
<g id="edge21" class="edge">
<title>Resources/Consent.ts&#45;&gt;Resources/Elements/Reference.ts</title>
<path fill="none" stroke="#757575" d="M1011.83,-544.73C1036.88,-546.37 1065.56,-548.24 1093.28,-550.05"/>
<polygon fill="#757575" stroke="#757575" points="1093.23,-553.56 1103.44,-550.72 1093.69,-546.57 1093.23,-553.56"/>
</g>
<!-- Resources/Encounter.ts&#45;&gt;Resources/resources.ts -->
<g id="edge42" class="edge">
<title>Resources/Encounter.ts&#45;&gt;Resources/resources.ts</title>
<path fill="none" stroke="#757575" d="M988.71,-700.45C1006.85,-704.75 1027.39,-709.83 1046,-714.91 1062.14,-719.31 1065.77,-721.83 1082,-725.91 1100.18,-730.47 1119.93,-734.73 1138.47,-738.44"/>
<polygon fill="#757575" stroke="#757575" points="1137.84,-741.88 1148.33,-740.38 1139.19,-735.01 1137.84,-741.88"/>
</g>
<!-- Resources/Flag.ts&#45;&gt;Resources/resources.ts -->
<g id="edge47" class="edge">
<title>Resources/Flag.ts&#45;&gt;Resources/resources.ts</title>
<path fill="none" stroke="#757575" d="M999.7,-584.56C1016.47,-588.32 1033.45,-595.06 1046,-606.91 1086.18,-644.84 1041.05,-688.81 1082,-725.91 1094.14,-736.9 1109.55,-743.82 1125.5,-748.07"/>
<polygon fill="#757575" stroke="#757575" points="1124.95,-751.53 1135.49,-750.38 1126.53,-744.71 1124.95,-751.53"/>
</g>
<!-- Resources/Flag.ts&#45;&gt;Resources/Elements/DomainResource.ts -->
<g id="edge44" class="edge">
<title>Resources/Flag.ts&#45;&gt;Resources/Elements/DomainResource.ts</title>
<path fill="none" stroke="#757575" d="M999.7,-573.05C1015.15,-569.96 1031.46,-565.72 1046,-559.91 1063.63,-552.86 1065.29,-545.93 1082,-536.91 1112.49,-520.44 1148.48,-504.52 1175.09,-493.38"/>
<polygon fill="#757575" stroke="#757575" points="1176.55,-496.56 1184.44,-489.5 1173.86,-490.1 1176.55,-496.56"/>
</g>
<!-- Resources/Flag.ts&#45;&gt;Resources/Elements/CodeableConcept.ts -->
<g id="edge43" class="edge">
<title>Resources/Flag.ts&#45;&gt;Resources/Elements/CodeableConcept.ts</title>
<path fill="none" stroke="#757575" d="M996.74,-592.41C1137.01,-618.97 1488.24,-679.86 1601,-646.91 1660.88,-629.41 1719.72,-583.51 1749.64,-557.53"/>
<polygon fill="#757575" stroke="#757575" points="1752.12,-560.01 1757.3,-550.77 1747.48,-554.77 1752.12,-560.01"/>
</g>
<!-- Resources/Flag.ts&#45;&gt;Resources/Elements/Reference.ts -->
<g id="edge46" class="edge">
<title>Resources/Flag.ts&#45;&gt;Resources/Elements/Reference.ts</title>
<path fill="none" stroke="#757575" d="M999.83,-575.74C1027.5,-573.43 1061.13,-570.63 1093.43,-567.93"/>
<polygon fill="#757575" stroke="#757575" points="1093.73,-571.42 1103.4,-567.1 1093.15,-564.44 1093.73,-571.42"/>
</g>
<!-- Resources/Elements/Period.ts -->
<g id="node20" class="node">
<title>Resources/Elements/Period.ts</title>
<path fill="none" stroke="#c6c5fe" d="M1583.83,-215.41C1583.83,-215.41 1400.17,-215.41 1400.17,-215.41 1396.33,-215.41 1392.5,-211.57 1392.5,-207.74 1392.5,-207.74 1392.5,-200.07 1392.5,-200.07 1392.5,-196.24 1396.33,-192.41 1400.17,-192.41 1400.17,-192.41 1583.83,-192.41 1583.83,-192.41 1587.67,-192.41 1591.5,-196.24 1591.5,-200.07 1591.5,-200.07 1591.5,-207.74 1591.5,-207.74 1591.5,-211.57 1587.67,-215.41 1583.83,-215.41"/>
<text text-anchor="middle" x="1492" y="-200.21" font-family="Arial" font-size="14.00" fill="#c6c5fe">Resources/Elements/Period.ts</text>
</g>
<!-- Resources/Flag.ts&#45;&gt;Resources/Elements/Period.ts -->
<g id="edge45" class="edge">
<title>Resources/Flag.ts&#45;&gt;Resources/Elements/Period.ts</title>
<path fill="none" stroke="#757575" d="M999.88,-589.91C1101.44,-603.18 1297.21,-621.97 1347,-577.91 1393.48,-536.77 1354.11,-355.85 1383,-300.91 1401.26,-266.19 1437.24,-237.83 1462.64,-220.93"/>
<polygon fill="#757575" stroke="#757575" points="1464.64,-223.81 1471.14,-215.44 1460.84,-217.93 1464.64,-223.81"/>
</g>
<!-- Resources/Organization.ts&#45;&gt;Resources/resources.ts -->
<g id="edge54" class="edge">
<title>Resources/Organization.ts&#45;&gt;Resources/resources.ts</title>
<path fill="none" stroke="#757575" d="M972.95,-430.48C996.5,-439.89 1026.68,-455.35 1046,-477.91 1076.73,-513.78 1059.5,-536.37 1082,-577.91 1115.11,-639.03 1168.36,-701.98 1195.84,-732.69"/>
<polygon fill="#757575" stroke="#757575" points="1193.25,-735.05 1202.55,-740.13 1198.45,-730.36 1193.25,-735.05"/>
</g>
<!-- Resources/Organization.ts&#45;&gt;Resources/Elements/DomainResource.ts -->
<g id="edge51" class="edge">
<title>Resources/Organization.ts&#45;&gt;Resources/Elements/DomainResource.ts</title>
<path fill="none" stroke="#757575" d="M986.58,-430.42C1014.46,-436.93 1050.14,-445.11 1082,-451.91 1101.86,-456.14 1123.46,-460.51 1143.3,-464.43"/>
<polygon fill="#757575" stroke="#757575" points="1142.71,-467.88 1153.19,-466.38 1144.06,-461.01 1142.71,-467.88"/>
</g>
<!-- Resources/Organization.ts&#45;&gt;Resources/Elements/CodeableConcept.ts -->
<g id="edge49" class="edge">
<title>Resources/Organization.ts&#45;&gt;Resources/Elements/CodeableConcept.ts</title>
<path fill="none" stroke="#757575" d="M1025.03,-420.17C1193.16,-423.14 1550.55,-432.3 1601,-456.91 1622.8,-467.54 1616.64,-484.73 1637,-497.91 1655.38,-509.81 1677.42,-518.43 1698.23,-524.59"/>
<polygon fill="#757575" stroke="#757575" points="1697.42,-528 1708,-527.33 1699.32,-521.26 1697.42,-528"/>
</g>
<!-- Resources/Organization.ts&#45;&gt;Resources/Elements/Reference.ts -->
<g id="edge53" class="edge">
<title>Resources/Organization.ts&#45;&gt;Resources/Elements/Reference.ts</title>
<path fill="none" stroke="#757575" d="M959.54,-430.62C981.36,-442.49 1016.06,-461.41 1046,-477.91 1062.03,-486.74 1065.66,-489.66 1082,-497.91 1113.72,-513.92 1150.59,-530.58 1177.2,-542.27"/>
<polygon fill="#757575" stroke="#757575" points="1175.94,-545.54 1186.51,-546.34 1178.75,-539.12 1175.94,-545.54"/>
</g>
<!-- Resources/Elements/Address.ts -->
<g id="node19" class="node">
<title>Resources/Elements/Address.ts</title>
<path fill="none" stroke="#c6c5fe" d="M1311.33,-212.41C1311.33,-212.41 1117.67,-212.41 1117.67,-212.41 1113.83,-212.41 1110,-208.57 1110,-204.74 1110,-204.74 1110,-197.07 1110,-197.07 1110,-193.24 1113.83,-189.41 1117.67,-189.41 1117.67,-189.41 1311.33,-189.41 1311.33,-189.41 1315.17,-189.41 1319,-193.24 1319,-197.07 1319,-197.07 1319,-204.74 1319,-204.74 1319,-208.57 1315.17,-212.41 1311.33,-212.41"/>
<text text-anchor="middle" x="1214.5" y="-197.21" font-family="Arial" font-size="14.00" fill="#c6c5fe">Resources/Elements/Address.ts</text>
</g>
<!-- Resources/Organization.ts&#45;&gt;Resources/Elements/Address.ts -->
<g id="edge48" class="edge">
<title>Resources/Organization.ts&#45;&gt;Resources/Elements/Address.ts</title>
<path fill="none" stroke="#757575" d="M969.51,-407.25C993.87,-396.66 1026.6,-378.73 1046,-352.91 1082.52,-304.29 1036.59,-261.36 1082,-220.91 1087.57,-215.94 1093.83,-211.91 1100.52,-208.66"/>
<polygon fill="#757575" stroke="#757575" points="1102.03,-211.82 1109.87,-204.7 1099.3,-205.38 1102.03,-211.82"/>
</g>
<!-- Resources/Elements/ContactPoint.ts -->
<g id="node22" class="node">
<title>Resources/Elements/ContactPoint.ts</title>
<path fill="none" stroke="#c6c5fe" d="M1325.33,-253.41C1325.33,-253.41 1103.67,-253.41 1103.67,-253.41 1099.83,-253.41 1096,-249.57 1096,-245.74 1096,-245.74 1096,-238.07 1096,-238.07 1096,-234.24 1099.83,-230.41 1103.67,-230.41 1103.67,-230.41 1325.33,-230.41 1325.33,-230.41 1329.17,-230.41 1333,-234.24 1333,-238.07 1333,-238.07 1333,-245.74 1333,-245.74 1333,-249.57 1329.17,-253.41 1325.33,-253.41"/>
<text text-anchor="middle" x="1214.5" y="-238.21" font-family="Arial" font-size="14.00" fill="#c6c5fe">Resources/Elements/ContactPoint.ts</text>
</g>
<!-- Resources/Organization.ts&#45;&gt;Resources/Elements/ContactPoint.ts -->
<g id="edge50" class="edge">
<title>Resources/Organization.ts&#45;&gt;Resources/Elements/ContactPoint.ts</title>
<path fill="none" stroke="#757575" d="M966.67,-407.39C990.65,-396.48 1024.34,-378.04 1046,-352.91 1072.79,-321.83 1050.17,-293.79 1082,-267.91 1086.68,-264.1 1091.77,-260.79 1097.13,-257.93"/>
<polygon fill="#757575" stroke="#757575" points="1098.86,-260.98 1106.38,-253.52 1095.85,-254.66 1098.86,-260.98"/>
</g>
<!-- Resources/Elements/HumanName.ts -->
<g id="node26" class="node">
<title>Resources/Elements/HumanName.ts</title>
<path fill="none" stroke="#c6c5fe" d="M1327.33,-171.41C1327.33,-171.41 1101.67,-171.41 1101.67,-171.41 1097.83,-171.41 1094,-167.57 1094,-163.74 1094,-163.74 1094,-156.07 1094,-156.07 1094,-152.24 1097.83,-148.41 1101.67,-148.41 1101.67,-148.41 1327.33,-148.41 1327.33,-148.41 1331.17,-148.41 1335,-152.24 1335,-156.07 1335,-156.07 1335,-163.74 1335,-163.74 1335,-167.57 1331.17,-171.41 1327.33,-171.41"/>
<text text-anchor="middle" x="1214.5" y="-156.21" font-family="Arial" font-size="14.00" fill="#c6c5fe">Resources/Elements/HumanName.ts</text>
</g>
<!-- Resources/Organization.ts&#45;&gt;Resources/Elements/HumanName.ts -->
<g id="edge52" class="edge">
<title>Resources/Organization.ts&#45;&gt;Resources/Elements/HumanName.ts</title>
<path fill="none" stroke="#757575" d="M970.45,-407.35C994.99,-396.91 1027.52,-379.13 1046,-352.91 1091.23,-288.7 1024.98,-233.91 1082,-179.91 1083.15,-178.81 1084.34,-177.77 1085.55,-176.76"/>
<polygon fill="#757575" stroke="#757575" points="1087.89,-179.39 1093.99,-170.73 1083.82,-173.7 1087.89,-179.39"/>
</g>
<!-- Resources/Patient.ts&#45;&gt;Resources/resources.ts -->
<g id="edge64" class="edge">
<title>Resources/Patient.ts&#45;&gt;Resources/resources.ts</title>
<path fill="none" stroke="#757575" d="M971.26,-344.44C995.74,-354.67 1027.8,-372.05 1046,-397.91 1092.95,-464.63 1048.56,-503.49 1082,-577.91 1110.35,-641 1165.2,-702.65 1194.29,-732.79"/>
<polygon fill="#757575" stroke="#757575" points="1191.94,-735.39 1201.44,-740.09 1196.95,-730.5 1191.94,-735.39"/>
</g>
<!-- Resources/Patient.ts&#45;&gt;Resources/Elements/DomainResource.ts -->
<g id="edge59" class="edge">
<title>Resources/Patient.ts&#45;&gt;Resources/Elements/DomainResource.ts</title>
<path fill="none" stroke="#757575" d="M957.17,-344.56C990.42,-364.72 1057.61,-405.19 1082,-417.91 1113.31,-434.23 1149.93,-450.74 1176.57,-462.3"/>
<polygon fill="#757575" stroke="#757575" points="1175.33,-465.57 1185.9,-466.32 1178.1,-459.15 1175.33,-465.57"/>
</g>
<!-- Resources/Patient.ts&#45;&gt;Resources/dataTypes.ts -->
<g id="edge63" class="edge">
<title>Resources/Patient.ts&#45;&gt;Resources/dataTypes.ts</title>
<path fill="none" stroke="#757575" d="M946.19,-321.25C964.67,-294.79 1010.78,-227.95 1046,-169.91 1063.13,-141.67 1053.55,-121.67 1082,-104.91 1230.76,-17.25 1788.83,-169.01 1905,-203.91 1942.16,-215.07 1982.73,-233.46 2009.9,-246.74"/>
<polygon fill="#757575" stroke="#757575" points="2008.41,-249.91 2018.93,-251.21 2011.52,-243.63 2008.41,-249.91"/>
</g>
<!-- Resources/Patient.ts&#45;&gt;Resources/Elements/Attachment.ts -->
<g id="edge56" class="edge">
<title>Resources/Patient.ts&#45;&gt;Resources/Elements/Attachment.ts</title>
<path fill="none" stroke="#757575" d="M977.54,-344.41C1006.37,-352.6 1046.44,-363.59 1082,-371.91 1100.91,-376.33 1121.47,-380.63 1140.58,-384.42"/>
<polygon fill="#757575" stroke="#757575" points="1139.95,-387.87 1150.43,-386.36 1141.3,-381 1139.95,-387.87"/>
</g>
<!-- Resources/Patient.ts&#45;&gt;Resources/Elements/CodeableConcept.ts -->
<g id="edge57" class="edge">
<title>Resources/Patient.ts&#45;&gt;Resources/Elements/CodeableConcept.ts</title>
<path fill="none" stroke="#757575" d="M1007.66,-334.69C1158.34,-339.83 1508.47,-359.16 1601,-428.91 1628.62,-449.73 1610.42,-475.77 1637,-497.91 1651.33,-509.84 1669.12,-518.31 1686.97,-524.31"/>
<polygon fill="#757575" stroke="#757575" points="1686.28,-527.77 1696.87,-527.4 1688.37,-521.08 1686.28,-527.77"/>
</g>
<!-- Resources/Patient.ts&#45;&gt;Resources/Elements/Reference.ts -->
<g id="edge62" class="edge">
<title>Resources/Patient.ts&#45;&gt;Resources/Elements/Reference.ts</title>
<path fill="none" stroke="#757575" d="M968.48,-344.48C992.57,-355.06 1025.45,-372.87 1046,-397.91 1075.97,-434.42 1050,-463.16 1082,-497.91 1101.82,-519.43 1130.87,-533.8 1156.62,-543.06"/>
<polygon fill="#757575" stroke="#757575" points="1155.71,-546.45 1166.31,-546.36 1157.97,-539.82 1155.71,-546.45"/>
</g>
<!-- Resources/Patient.ts&#45;&gt;Resources/Elements/Address.ts -->
<g id="edge55" class="edge">
<title>Resources/Patient.ts&#45;&gt;Resources/Elements/Address.ts</title>
<path fill="none" stroke="#757575" d="M948.62,-321.37C970.86,-298.05 1024.97,-245.42 1082,-220.91 1087.78,-218.42 1093.81,-216.24 1099.99,-214.33"/>
<polygon fill="#757575" stroke="#757575" points="1101.13,-217.64 1109.79,-211.53 1099.21,-210.91 1101.13,-217.64"/>
</g>
<!-- Resources/Patient.ts&#45;&gt;Resources/Elements/Period.ts -->
<g id="edge61" class="edge">
<title>Resources/Patient.ts&#45;&gt;Resources/Elements/Period.ts</title>
<path fill="none" stroke="#757575" d="M944.64,-321.4C967.18,-282.81 1041.63,-159.22 1082,-138.91 1187.21,-85.97 1231.86,-114.12 1347,-138.91 1389.88,-148.14 1435.38,-171.2 1463.5,-187.21"/>
<polygon fill="#757575" stroke="#757575" points="1461.93,-190.35 1472.33,-192.34 1465.44,-184.3 1461.93,-190.35"/>
</g>
<!-- Resources/Patient.ts&#45;&gt;Resources/Elements/ContactPoint.ts -->
<g id="edge58" class="edge">
<title>Resources/Patient.ts&#45;&gt;Resources/Elements/ContactPoint.ts</title>
<path fill="none" stroke="#757575" d="M959.34,-321.4C986.93,-306.97 1036.8,-282.36 1082,-267.91 1097.24,-263.03 1113.77,-258.9 1129.81,-255.47"/>
<polygon fill="#757575" stroke="#757575" points="1130.63,-258.87 1139.71,-253.42 1129.21,-252.02 1130.63,-258.87"/>
</g>
<!-- Resources/Patient.ts&#45;&gt;Resources/Elements/HumanName.ts -->
<g id="edge60" class="edge">
<title>Resources/Patient.ts&#45;&gt;Resources/Elements/HumanName.ts</title>
<path fill="none" stroke="#757575" d="M944.98,-321.25C963.28,-291.86 1015.79,-214.66 1082,-179.91 1085.31,-178.17 1088.73,-176.57 1092.23,-175.1"/>
<polygon fill="#757575" stroke="#757575" points="1093.57,-178.33 1101.67,-171.5 1091.08,-171.79 1093.57,-178.33"/>
</g>
<!-- Resources/PractitionerRole.ts&#45;&gt;Resources/resources.ts -->
<g id="edge71" class="edge">
<title>Resources/PractitionerRole.ts&#45;&gt;Resources/resources.ts</title>
<path fill="none" stroke="#757575" d="M1030.62,-510.44C1036.03,-512.81 1041.21,-515.61 1046,-518.91 1071.3,-536.33 1064.72,-552.51 1082,-577.91 1121.33,-635.71 1172.33,-700.65 1197.71,-732.36"/>
<polygon fill="#757575" stroke="#757575" points="1195.17,-734.78 1204.16,-740.39 1200.63,-730.4 1195.17,-734.78"/>
</g>
<!-- Resources/PractitionerRole.ts&#45;&gt;Resources/Elements/DomainResource.ts -->
<g id="edge67" class="edge">
<title>Resources/PractitionerRole.ts&#45;&gt;Resources/Elements/DomainResource.ts</title>
<path fill="none" stroke="#757575" d="M1034.74,-491.53C1046.73,-490.62 1059.18,-489.67 1071.67,-488.72"/>
<polygon fill="#757575" stroke="#757575" points="1071.98,-492.2 1081.69,-487.95 1071.45,-485.22 1071.98,-492.2"/>
</g>
<!-- Resources/PractitionerRole.ts&#45;&gt;Resources/dataTypes.ts -->
<g id="edge70" class="edge">
<title>Resources/PractitionerRole.ts&#45;&gt;Resources/dataTypes.ts</title>
<path fill="none" stroke="#757575" d="M968.3,-487.34C991.66,-477.27 1023.65,-460.84 1046,-438.91 1068.74,-416.59 1056.97,-396.62 1082,-376.91 1178.54,-300.85 1240.99,-360.09 1347,-297.91 1366.25,-286.62 1362.41,-271.5 1383,-262.91 1483.01,-221.15 1796.04,-241.24 1951.73,-254.48"/>
<polygon fill="#757575" stroke="#757575" points="1951.49,-257.97 1961.76,-255.34 1952.09,-250.99 1951.49,-257.97"/>
</g>
<!-- Resources/PractitionerRole.ts&#45;&gt;Resources/Elements/CodeableConcept.ts -->
<g id="edge65" class="edge">
<title>Resources/PractitionerRole.ts&#45;&gt;Resources/Elements/CodeableConcept.ts</title>
<path fill="none" stroke="#757575" d="M1034.56,-508.61C1144.56,-519.48 1317.52,-535.97 1383,-538.91 1463.61,-542.52 1553.76,-542.75 1626.76,-541.96"/>
<polygon fill="#757575" stroke="#757575" points="1626.99,-545.46 1636.95,-541.85 1626.91,-538.46 1626.99,-545.46"/>
</g>
<!-- Resources/PractitionerRole.ts&#45;&gt;Resources/Elements/Reference.ts -->
<g id="edge69" class="edge">
<title>Resources/PractitionerRole.ts&#45;&gt;Resources/Elements/Reference.ts</title>
<path fill="none" stroke="#757575" d="M1009.54,-510.45C1021.78,-512.91 1034.31,-515.74 1046,-518.91 1062.42,-523.36 1065.61,-527.35 1082,-531.91 1098.87,-536.59 1117.18,-540.77 1134.63,-544.33"/>
<polygon fill="#757575" stroke="#757575" points="1134.3,-547.83 1144.79,-546.36 1135.67,-540.97 1134.3,-547.83"/>
</g>
<!-- Resources/PractitionerRole.ts&#45;&gt;Resources/Elements/Period.ts -->
<g id="edge68" class="edge">
<title>Resources/PractitionerRole.ts&#45;&gt;Resources/Elements/Period.ts</title>
<path fill="none" stroke="#757575" d="M973.8,-487.38C997.58,-477.94 1027.69,-462.3 1046,-438.91 1083.74,-390.68 1036.59,-346.99 1082,-305.91 1170.53,-225.8 1239.27,-313.36 1347,-261.91 1366.32,-252.68 1364.03,-239.82 1383,-229.91 1391.78,-225.32 1401.39,-221.52 1411.14,-218.39"/>
<polygon fill="#757575" stroke="#757575" points="1412.32,-221.69 1420.9,-215.47 1410.32,-214.98 1412.32,-221.69"/>
</g>
<!-- Resources/PractitionerRole.ts&#45;&gt;Resources/Elements/ContactPoint.ts -->
<g id="edge66" class="edge">
<title>Resources/PractitionerRole.ts&#45;&gt;Resources/Elements/ContactPoint.ts</title>
<path fill="none" stroke="#757575" d="M975.01,-487.39C998.85,-478.07 1028.56,-462.55 1046,-438.91 1092.11,-376.41 1026.75,-322.49 1082,-267.91 1085.54,-264.41 1089.4,-261.32 1093.52,-258.58"/>
<polygon fill="#757575" stroke="#757575" points="1095.41,-261.53 1102.28,-253.46 1091.88,-255.49 1095.41,-261.53"/>
</g>
<!-- Logic/validator.ts -->
<g id="node11" class="node">
<title>Logic/validator.ts</title>
<path fill="none" stroke="#c6c5fe" d="M234.33,-761.41C234.33,-761.41 132.67,-761.41 132.67,-761.41 128.83,-761.41 125,-757.57 125,-753.74 125,-753.74 125,-746.07 125,-746.07 125,-742.24 128.83,-738.41 132.67,-738.41 132.67,-738.41 234.33,-738.41 234.33,-738.41 238.17,-738.41 242,-742.24 242,-746.07 242,-746.07 242,-753.74 242,-753.74 242,-757.57 238.17,-761.41 234.33,-761.41"/>
<text text-anchor="middle" x="183.5" y="-746.21" font-family="Arial" font-size="14.00" fill="#c6c5fe">Logic/validator.ts</text>
</g>
<!-- Logic/validator.ts&#45;&gt;Logic/dom.ts -->
<g id="edge10" class="edge">
<title>Logic/validator.ts&#45;&gt;Logic/dom.ts</title>
<path fill="none" stroke="#757575" d="M242.34,-749.91C295.82,-749.91 374.8,-749.91 427.88,-749.91"/>
<polygon fill="#757575" stroke="#757575" points="428.14,-753.41 438.14,-749.91 428.14,-746.41 428.14,-753.41"/>
</g>
<!-- Logic/validator.ts&#45;&gt;Logic/parse.ts -->
<g id="edge11" class="edge">
<title>Logic/validator.ts&#45;&gt;Logic/parse.ts</title>
<path fill="none" stroke="#757575" d="M194.1,-738.29C218.22,-709.11 281.53,-632.52 311.43,-596.35"/>
<polygon fill="#757575" stroke="#757575" points="314.26,-598.41 317.94,-588.48 308.87,-593.95 314.26,-598.41"/>
</g>
<!-- Logic/validator.ts&#45;&gt;Resources/resources.ts -->
<g id="edge12" class="edge">
<title>Logic/validator.ts&#45;&gt;Resources/resources.ts</title>
<path fill="none" stroke="#757575" d="M242.24,-759.52C254.04,-761.21 266.4,-762.79 278,-763.91 338.67,-769.76 354.07,-768.57 415,-769.91 672.9,-775.55 977.65,-763.49 1124.96,-756.47"/>
<polygon fill="#757575" stroke="#757575" points="1125.47,-759.95 1135.3,-755.97 1125.14,-752.96 1125.47,-759.95"/>
</g>
<!-- Resources/Elements/Narrative.ts -->
<g id="node23" class="node">
<title>Resources/Elements/Narrative.ts</title>
<path fill="none" stroke="#cfffac" d="M1591.83,-530.41C1591.83,-530.41 1392.17,-530.41 1392.17,-530.41 1388.33,-530.41 1384.5,-526.57 1384.5,-522.74 1384.5,-522.74 1384.5,-515.07 1384.5,-515.07 1384.5,-511.24 1388.33,-507.41 1392.17,-507.41 1392.17,-507.41 1591.83,-507.41 1591.83,-507.41 1595.67,-507.41 1599.5,-511.24 1599.5,-515.07 1599.5,-515.07 1599.5,-522.74 1599.5,-522.74 1599.5,-526.57 1595.67,-530.41 1591.83,-530.41"/>
<text text-anchor="middle" x="1492" y="-515.21" font-family="Arial" font-size="14.00" fill="#cfffac">Resources/Elements/Narrative.ts</text>
</g>
<!-- Resources/Elements/DomainResource.ts&#45;&gt;Resources/Elements/Narrative.ts -->
<g id="edge28" class="edge">
<title>Resources/Elements/DomainResource.ts&#45;&gt;Resources/Elements/Narrative.ts</title>
<path fill="none" stroke="#757575" d="M1292.98,-489.44C1327.31,-494.55 1367.86,-500.58 1403.3,-505.85"/>
<polygon fill="#757575" stroke="#757575" points="1403.22,-509.38 1413.63,-507.39 1404.25,-502.46 1403.22,-509.38"/>
</g>
<!-- Resources/Elements/Resource.ts -->
<g id="node24" class="node">
<title>Resources/Elements/Resource.ts</title>
<path fill="none" stroke="#c6c5fe" d="M1593.33,-333.41C1593.33,-333.41 1390.67,-333.41 1390.67,-333.41 1386.83,-333.41 1383,-329.57 1383,-325.74 1383,-325.74 1383,-318.07 1383,-318.07 1383,-314.24 1386.83,-310.41 1390.67,-310.41 1390.67,-310.41 1593.33,-310.41 1593.33,-310.41 1597.17,-310.41 1601,-314.24 1601,-318.07 1601,-318.07 1601,-325.74 1601,-325.74 1601,-329.57 1597.17,-333.41 1593.33,-333.41"/>
<text text-anchor="middle" x="1492" y="-318.21" font-family="Arial" font-size="14.00" fill="#c6c5fe">Resources/Elements/Resource.ts</text>
</g>
<!-- Resources/Elements/DomainResource.ts&#45;&gt;Resources/Elements/Resource.ts -->
<g id="edge29" class="edge">
<title>Resources/Elements/DomainResource.ts&#45;&gt;Resources/Elements/Resource.ts</title>
<path fill="none" stroke="#757575" d="M1258.51,-466.35C1286.48,-457.04 1322.22,-441.55 1347,-417.91 1372.31,-393.76 1355.49,-369.52 1383,-347.91 1388.13,-343.88 1393.78,-340.46 1399.73,-337.56"/>
<polygon fill="#757575" stroke="#757575" points="1401.52,-340.61 1409.3,-333.43 1398.74,-334.18 1401.52,-340.61"/>
</g>
<!-- Resources/Elements/extension.ts -->
<g id="node25" class="node">
<title>Resources/Elements/extension.ts</title>
<path fill="none" stroke="#c6c5fe" d="M1593.33,-489.41C1593.33,-489.41 1390.67,-489.41 1390.67,-489.41 1386.83,-489.41 1383,-485.57 1383,-481.74 1383,-481.74 1383,-474.07 1383,-474.07 1383,-470.24 1386.83,-466.41 1390.67,-466.41 1390.67,-466.41 1593.33,-466.41 1593.33,-466.41 1597.17,-466.41 1601,-470.24 1601,-474.07 1601,-474.07 1601,-481.74 1601,-481.74 1601,-485.57 1597.17,-489.41 1593.33,-489.41"/>
<text text-anchor="middle" x="1492" y="-474.21" font-family="Arial" font-size="14.00" fill="#c6c5fe">Resources/Elements/extension.ts</text>
</g>
<!-- Resources/Elements/DomainResource.ts&#45;&gt;Resources/Elements/extension.ts -->
<g id="edge30" class="edge">
<title>Resources/Elements/DomainResource.ts&#45;&gt;Resources/Elements/extension.ts</title>
<path fill="none" stroke="#757575" d="M1347.2,-477.91C1355.66,-477.91 1364.15,-477.91 1372.54,-477.91"/>
<polygon fill="#757575" stroke="#757575" points="1372.72,-481.41 1382.72,-477.91 1372.72,-474.41 1372.72,-481.41"/>
</g>
<!-- Resources/Elements/Signature.ts&#45;&gt;Resources/resources.ts -->
<g id="edge39" class="edge">
<title>Resources/Elements/Signature.ts&#45;&gt;Resources/resources.ts</title>
<path fill="none" stroke="#757575" d="M990.62,-797.36C1017.87,-791.43 1051.7,-784.16 1082,-777.91 1102.18,-773.74 1124.13,-769.34 1144.21,-765.38"/>
<polygon fill="#757575" stroke="#757575" points="1145.08,-768.78 1154.22,-763.41 1143.73,-761.91 1145.08,-768.78"/>
</g>
<!-- Resources/Elements/Signature.ts&#45;&gt;Resources/dataTypes.ts -->
<g id="edge38" class="edge">
<title>Resources/Elements/Signature.ts&#45;&gt;Resources/dataTypes.ts</title>
<path fill="none" stroke="#757575" d="M1046.18,-812.48C1243.3,-812.96 1662.89,-785.22 1905,-558.91 1948.39,-518.35 2012.39,-345.31 2034.04,-284.3"/>
<polygon fill="#757575" stroke="#757575" points="2037.44,-285.17 2037.46,-274.58 2030.84,-282.85 2037.44,-285.17"/>
</g>
<!-- Resources/Elements/Signature.ts&#45;&gt;Resources/Elements/Reference.ts -->
<g id="edge37" class="edge">
<title>Resources/Elements/Signature.ts&#45;&gt;Resources/Elements/Reference.ts</title>
<path fill="none" stroke="#757575" d="M950.92,-797.14C994.93,-757.03 1139.29,-625.51 1193.07,-576.52"/>
<polygon fill="#757575" stroke="#757575" points="1195.57,-578.97 1200.61,-569.65 1190.86,-573.8 1195.57,-578.97"/>
</g>
<!-- Resources/Elements/Coding.ts -->
<g id="node21" class="node">
<title>Resources/Elements/Coding.ts</title>
<path fill="none" stroke="#cfffac" d="M2136.33,-550.41C2136.33,-550.41 1948.67,-550.41 1948.67,-550.41 1944.83,-550.41 1941,-546.57 1941,-542.74 1941,-542.74 1941,-535.07 1941,-535.07 1941,-531.24 1944.83,-527.41 1948.67,-527.41 1948.67,-527.41 2136.33,-527.41 2136.33,-527.41 2140.17,-527.41 2144,-531.24 2144,-535.07 2144,-535.07 2144,-542.74 2144,-542.74 2144,-546.57 2140.17,-550.41 2136.33,-550.41"/>
<text text-anchor="middle" x="2042.5" y="-535.21" font-family="Arial" font-size="14.00" fill="#cfffac">Resources/Elements/Coding.ts</text>
</g>
<!-- Resources/Elements/Signature.ts&#45;&gt;Resources/Elements/Coding.ts -->
<g id="edge36" class="edge">
<title>Resources/Elements/Signature.ts&#45;&gt;Resources/Elements/Coding.ts</title>
<path fill="none" stroke="#757575" d="M972.22,-820.5C1104.54,-863.09 1590.97,-998.72 1905,-805.91 1995.5,-750.34 2028.44,-613.8 2038.09,-560.61"/>
<polygon fill="#757575" stroke="#757575" points="2041.57,-561.03 2039.81,-550.58 2034.67,-559.85 2041.57,-561.03"/>
</g>
<!-- Resources/fhirR4Resources.ts&#45;&gt;Resources/Consent.ts -->
<g id="edge72" class="edge">
<title>Resources/fhirR4Resources.ts&#45;&gt;Resources/Consent.ts</title>
<path fill="none" stroke="#757575" d="M761.34,-510.44C791.36,-515.5 826.77,-521.48 857.84,-526.72"/>
<polygon fill="#757575" stroke="#757575" points="857.31,-530.18 867.76,-528.39 858.48,-523.28 857.31,-530.18"/>
</g>
<!-- Resources/fhirR4Resources.ts&#45;&gt;Resources/Encounter.ts -->
<g id="edge73" class="edge">
<title>Resources/fhirR4Resources.ts&#45;&gt;Resources/Encounter.ts</title>
<path fill="none" stroke="#757575" d="M707.83,-510.51C748.76,-542.5 863.48,-632.2 912.89,-670.83"/>
<polygon fill="#757575" stroke="#757575" points="911.02,-673.81 921.05,-677.22 915.33,-668.3 911.02,-673.81"/>
</g>
<!-- Resources/fhirR4Resources.ts&#45;&gt;Resources/Flag.ts -->
<g id="edge74" class="edge">
<title>Resources/fhirR4Resources.ts&#45;&gt;Resources/Flag.ts</title>
<path fill="none" stroke="#757575" d="M714.36,-510.44C740.48,-524.09 786.34,-546.64 828,-559.91 839.52,-563.57 851.94,-566.71 864.12,-569.36"/>
<polygon fill="#757575" stroke="#757575" points="863.76,-572.86 874.26,-571.46 865.18,-566 863.76,-572.86"/>
</g>
<!-- Resources/fhirR4Resources.ts&#45;&gt;Resources/Organization.ts -->
<g id="edge75" class="edge">
<title>Resources/fhirR4Resources.ts&#45;&gt;Resources/Organization.ts</title>
<path fill="none" stroke="#757575" d="M728.07,-487.36C771.14,-473.18 844.26,-449.11 891.31,-433.62"/>
<polygon fill="#757575" stroke="#757575" points="892.53,-436.9 900.94,-430.45 890.34,-430.25 892.53,-436.9"/>
</g>
<!-- Resources/fhirR4Resources.ts&#45;&gt;Resources/Patient.ts -->
<g id="edge76" class="edge">
<title>Resources/fhirR4Resources.ts&#45;&gt;Resources/Patient.ts</title>
<path fill="none" stroke="#757575" d="M707.63,-487.2C732.03,-467.84 782.82,-428.29 828,-397.91 853.9,-380.49 884.46,-362.3 906.45,-349.61"/>
<polygon fill="#757575" stroke="#757575" points="908.38,-352.54 915.32,-344.53 904.9,-346.47 908.38,-352.54"/>
</g>
<!-- Resources/fhirR4Resources.ts&#45;&gt;Resources/PractitionerRole.ts -->
<g id="edge77" class="edge">
<title>Resources/fhirR4Resources.ts&#45;&gt;Resources/PractitionerRole.ts</title>
<path fill="none" stroke="#757575" d="M792.19,-498.91C804.39,-498.91 816.9,-498.91 829.21,-498.91"/>
<polygon fill="#757575" stroke="#757575" points="829.49,-502.41 839.49,-498.91 829.49,-495.41 829.49,-502.41"/>
</g>
<!-- Resources/Elements/Attachment.ts&#45;&gt;Resources/dataTypes.ts -->
<g id="edge25" class="edge">
<title>Resources/Elements/Attachment.ts&#45;&gt;Resources/dataTypes.ts</title>
<path fill="none" stroke="#757575" d="M1245.29,-386.33C1272.85,-374.96 1314.36,-356.12 1347,-333.91 1364.95,-321.7 1363.01,-309.35 1383,-300.91 1482.99,-258.65 1796.04,-258.14 1951.73,-260.72"/>
<polygon fill="#757575" stroke="#757575" points="1951.69,-264.22 1961.75,-260.89 1951.82,-257.22 1951.69,-264.22"/>
</g>
<!-- Resources/Elements/CodeableConcept.ts&#45;&gt;Resources/Elements/Coding.ts -->
<g id="edge26" class="edge">
<title>Resources/Elements/CodeableConcept.ts&#45;&gt;Resources/Elements/Coding.ts</title>
<path fill="none" stroke="#757575" d="M1905.17,-538.91C1913.66,-538.91 1922.15,-538.91 1930.52,-538.91"/>
<polygon fill="#757575" stroke="#757575" points="1930.65,-542.41 1940.65,-538.91 1930.65,-535.41 1930.65,-542.41"/>
</g>
<!-- Resources/Elements/Address.ts&#45;&gt;Resources/Elements/Period.ts -->
<g id="edge24" class="edge">
<title>Resources/Elements/Address.ts&#45;&gt;Resources/Elements/Period.ts</title>
<path fill="none" stroke="#757575" d="M1319.26,-202.04C1339.84,-202.26 1361.5,-202.5 1382.24,-202.72"/>
<polygon fill="#757575" stroke="#757575" points="1382.3,-206.22 1392.34,-202.83 1382.38,-199.22 1382.3,-206.22"/>
</g>
<!-- Resources/Elements/Period.ts&#45;&gt;Resources/dataTypes.ts -->
<g id="edge34" class="edge">
<title>Resources/Elements/Period.ts&#45;&gt;Resources/dataTypes.ts</title>
<path fill="none" stroke="#757575" d="M1591.74,-205.32C1675.52,-207.67 1798.7,-213.83 1905,-229.91 1934.16,-234.32 1966.23,-241.92 1991.96,-248.73"/>
<polygon fill="#757575" stroke="#757575" points="1991.28,-252.17 2001.85,-251.38 1993.1,-245.41 1991.28,-252.17"/>
</g>
<!-- Resources/Elements/ContactPoint.ts&#45;&gt;Resources/Elements/Period.ts -->
<g id="edge27" class="edge">
<title>Resources/Elements/ContactPoint.ts&#45;&gt;Resources/Elements/Period.ts</title>
<path fill="none" stroke="#757575" d="M1298.91,-230.4C1329.92,-226.12 1365.3,-221.24 1397.18,-216.85"/>
<polygon fill="#757575" stroke="#757575" points="1397.97,-220.27 1407.4,-215.44 1397.02,-213.34 1397.97,-220.27"/>
</g>
<!-- Resources/Elements/Meta.ts -->
<g id="node27" class="node">
<title>Resources/Elements/Meta.ts</title>
<path fill="none" stroke="#c6c5fe" d="M1858.83,-333.41C1858.83,-333.41 1683.17,-333.41 1683.17,-333.41 1679.33,-333.41 1675.5,-329.57 1675.5,-325.74 1675.5,-325.74 1675.5,-318.07 1675.5,-318.07 1675.5,-314.24 1679.33,-310.41 1683.17,-310.41 1683.17,-310.41 1858.83,-310.41 1858.83,-310.41 1862.67,-310.41 1866.5,-314.24 1866.5,-318.07 1866.5,-318.07 1866.5,-325.74 1866.5,-325.74 1866.5,-329.57 1862.67,-333.41 1858.83,-333.41"/>
<text text-anchor="middle" x="1771" y="-318.21" font-family="Arial" font-size="14.00" fill="#c6c5fe">Resources/Elements/Meta.ts</text>
</g>
<!-- Resources/Elements/Resource.ts&#45;&gt;Resources/Elements/Meta.ts -->
<g id="edge35" class="edge">
<title>Resources/Elements/Resource.ts&#45;&gt;Resources/Elements/Meta.ts</title>
<path fill="none" stroke="#757575" d="M1601.29,-321.91C1622.28,-321.91 1644.25,-321.91 1665.13,-321.91"/>
<polygon fill="#757575" stroke="#757575" points="1665.29,-325.41 1675.29,-321.91 1665.29,-318.41 1665.29,-325.41"/>
</g>
<!-- Resources/Elements/extension.ts&#45;&gt;Resources/Elements/CodeableConcept.ts -->
<g id="edge40" class="edge">
<title>Resources/Elements/extension.ts&#45;&gt;Resources/Elements/CodeableConcept.ts</title>
<path fill="none" stroke="#757575" d="M1558.51,-489.44C1572.56,-492.08 1587.29,-494.98 1601,-497.91 1639.4,-506.11 1682.39,-516.56 1715.41,-524.86"/>
<polygon fill="#757575" stroke="#757575" points="1714.77,-528.3 1725.32,-527.36 1716.48,-521.52 1714.77,-528.3"/>
</g>
<!-- Resources/Elements/Quantity.ts -->
<g id="node28" class="node">
<title>Resources/Elements/Quantity.ts</title>
<path fill="none" stroke="#cfffac" d="M1868.33,-489.41C1868.33,-489.41 1673.67,-489.41 1673.67,-489.41 1669.83,-489.41 1666,-485.57 1666,-481.74 1666,-481.74 1666,-474.07 1666,-474.07 1666,-470.24 1669.83,-466.41 1673.67,-466.41 1673.67,-466.41 1868.33,-466.41 1868.33,-466.41 1872.17,-466.41 1876,-470.24 1876,-474.07 1876,-474.07 1876,-481.74 1876,-481.74 1876,-485.57 1872.17,-489.41 1868.33,-489.41"/>
<text text-anchor="middle" x="1771" y="-474.21" font-family="Arial" font-size="14.00" fill="#cfffac">Resources/Elements/Quantity.ts</text>
</g>
<!-- Resources/Elements/extension.ts&#45;&gt;Resources/Elements/Quantity.ts -->
<g id="edge41" class="edge">
<title>Resources/Elements/extension.ts&#45;&gt;Resources/Elements/Quantity.ts</title>
<path fill="none" stroke="#757575" d="M1601.29,-477.91C1619.13,-477.91 1637.67,-477.91 1655.65,-477.91"/>
<polygon fill="#757575" stroke="#757575" points="1655.87,-481.41 1665.87,-477.91 1655.87,-474.41 1655.87,-481.41"/>
</g>
<!-- Resources/Elements/HumanName.ts&#45;&gt;Resources/Elements/Period.ts -->
<g id="edge31" class="edge">
<title>Resources/Elements/HumanName.ts&#45;&gt;Resources/Elements/Period.ts</title>
<path fill="none" stroke="#757575" d="M1292.36,-171.41C1310.3,-174.15 1329.33,-177.09 1347,-179.91 1368.39,-183.32 1391.55,-187.12 1412.91,-190.68"/>
<polygon fill="#757575" stroke="#757575" points="1412.47,-194.16 1422.91,-192.35 1413.62,-187.25 1412.47,-194.16"/>
</g>
<!-- Resources/Elements/Meta.ts&#45;&gt;Resources/dataTypes.ts -->
<g id="edge33" class="edge">
<title>Resources/Elements/Meta.ts&#45;&gt;Resources/dataTypes.ts</title>
<path fill="none" stroke="#757575" d="M1834.03,-310.37C1856.44,-306.05 1881.9,-300.95 1905,-295.91 1931.8,-290.05 1961.4,-282.97 1986.17,-276.87"/>
<polygon fill="#757575" stroke="#757575" points="1987.25,-280.21 1996.12,-274.41 1985.57,-273.41 1987.25,-280.21"/>
</g>
<!-- Resources/Elements/Meta.ts&#45;&gt;Resources/Elements/Coding.ts -->
<g id="edge32" class="edge">
<title>Resources/Elements/Meta.ts&#45;&gt;Resources/Elements/Coding.ts</title>
<path fill="none" stroke="#757575" d="M1786.49,-333.57C1830.91,-369.34 1965.4,-477.63 2019.05,-520.83"/>
<polygon fill="#757575" stroke="#757575" points="2016.95,-523.64 2026.94,-527.18 2021.35,-518.18 2016.95,-523.64"/>
</g>
<!-- main.ts -->
<g id="node29" class="node">
<title>main.ts</title>
<path fill="none" stroke="#c6c5fe" d="M67.33,-761.41C67.33,-761.41 21.67,-761.41 21.67,-761.41 17.83,-761.41 14,-757.57 14,-753.74 14,-753.74 14,-746.07 14,-746.07 14,-742.24 17.83,-738.41 21.67,-738.41 21.67,-738.41 67.33,-738.41 67.33,-738.41 71.17,-738.41 75,-742.24 75,-746.07 75,-746.07 75,-753.74 75,-753.74 75,-757.57 71.17,-761.41 67.33,-761.41"/>
<text text-anchor="middle" x="44.5" y="-746.21" font-family="Arial" font-size="14.00" fill="#c6c5fe">main.ts</text>
</g>
<!-- main.ts&#45;&gt;Logic/validator.ts -->
<g id="edge78" class="edge">
<title>main.ts&#45;&gt;Logic/validator.ts</title>
<path fill="none" stroke="#757575" d="M75.23,-749.91C86.94,-749.91 100.91,-749.91 114.84,-749.91"/>
<polygon fill="#757575" stroke="#757575" points="114.94,-753.41 124.94,-749.91 114.94,-746.41 114.94,-753.41"/>
</g>
<!-- vite&#45;env.d.ts -->
<g id="node30" class="node">
<title>vite&#45;env.d.ts</title>
<path fill="none" stroke="#cfffac" d="M81.33,-802.41C81.33,-802.41 7.67,-802.41 7.67,-802.41 3.83,-802.41 0,-798.57 0,-794.74 0,-794.74 0,-787.07 0,-787.07 0,-783.24 3.83,-779.41 7.67,-779.41 7.67,-779.41 81.33,-779.41 81.33,-779.41 85.17,-779.41 89,-783.24 89,-787.07 89,-787.07 89,-794.74 89,-794.74 89,-798.57 85.17,-802.41 81.33,-802.41"/>
<text text-anchor="middle" x="44.5" y="-787.21" font-family="Arial" font-size="14.00" fill="#cfffac">vite&#45;env.d.ts</text>
</g>
</g>
</svg>
