<?xml version="1.0" encoding="UTF-8" standalone="no"?>
<!DOCTYPE svg PUBLIC "-//W3C//DTD SVG 1.1//EN"
 "http://www.w3.org/Graphics/SVG/1.1/DTD/svg11.dtd">
<!-- Generated by graphviz version 2.43.0 (0)
 -->
<!-- Title: G Pages: 1 -->
<svg width="1457pt" height="1087pt"
 viewBox="0.00 0.00 1457.20 1086.90" xmlns="http://www.w3.org/2000/svg" xmlns:xlink="http://www.w3.org/1999/xlink">
<g id="graph0" class="graph" transform="scale(1 1) rotate(0) translate(21.6 1065.3)">
<title>G</title>
<polygon fill="#111111" stroke="transparent" points="-21.6,21.6 -21.6,-1065.3 1435.6,-1065.3 1435.6,21.6 -21.6,21.6"/>
<!-- Logic/dom.ts -->
<g id="node1" class="node">
<title>Logic/dom.ts</title>
<path fill="none" stroke="#cfffac" d="M544.83,-969.09C544.83,-969.09 466.17,-969.09 466.17,-969.09 462.33,-969.09 458.5,-965.26 458.5,-961.42 458.5,-961.42 458.5,-953.76 458.5,-953.76 458.5,-949.92 462.33,-946.09 466.17,-946.09 466.17,-946.09 544.83,-946.09 544.83,-946.09 548.67,-946.09 552.5,-949.92 552.5,-953.76 552.5,-953.76 552.5,-961.42 552.5,-961.42 552.5,-965.26 548.67,-969.09 544.83,-969.09"/>
<text text-anchor="middle" x="505.5" y="-953.89" font-family="Arial" font-size="14.00" fill="#cfffac">Logic/dom.ts</text>
</g>
<!-- Logic/parse.ts -->
<g id="node2" class="node">
<title>Logic/parse.ts</title>
<path fill="none" stroke="#c6c5fe" d="M371.33,-569.09C371.33,-569.09 285.67,-569.09 285.67,-569.09 281.83,-569.09 278,-565.26 278,-561.42 278,-561.42 278,-553.76 278,-553.76 278,-549.92 281.83,-546.09 285.67,-546.09 285.67,-546.09 371.33,-546.09 371.33,-546.09 375.17,-546.09 379,-549.92 379,-553.76 379,-553.76 379,-561.42 379,-561.42 379,-565.26 375.17,-569.09 371.33,-569.09"/>
<text text-anchor="middle" x="328.5" y="-553.89" font-family="Arial" font-size="14.00" fill="#c6c5fe">Logic/parse.ts</text>
</g>
<!-- Logic/parse.ts&#45;&gt;Logic/dom.ts -->
<g id="edge1" class="edge">
<title>Logic/parse.ts&#45;&gt;Logic/dom.ts</title>
<path fill="none" stroke="#757575" d="M332.91,-569.34C341.37,-598.71 363.75,-677.8 379,-744.59 397.84,-827.1 357.98,-869.04 415,-931.59 423.77,-941.22 435.88,-947.36 448.35,-951.26"/>
<polygon fill="#757575" stroke="#757575" points="447.81,-954.74 458.37,-953.93 449.61,-947.97 447.81,-954.74"/>
</g>
<!-- fhirR4/Resources/Bundle.ts -->
<g id="node3" class="node">
<title>fhirR4/Resources/Bundle.ts</title>
<path fill="none" stroke="#c6c5fe" d="M588.33,-529.09C588.33,-529.09 422.67,-529.09 422.67,-529.09 418.83,-529.09 415,-525.26 415,-521.42 415,-521.42 415,-513.76 415,-513.76 415,-509.92 418.83,-506.09 422.67,-506.09 422.67,-506.09 588.33,-506.09 588.33,-506.09 592.17,-506.09 596,-509.92 596,-513.76 596,-513.76 596,-521.42 596,-521.42 596,-525.26 592.17,-529.09 588.33,-529.09"/>
<text text-anchor="middle" x="505.5" y="-513.89" font-family="Arial" font-size="14.00" fill="#c6c5fe">fhirR4/Resources/Bundle.ts</text>
</g>
<!-- Logic/parse.ts&#45;&gt;fhirR4/Resources/Bundle.ts -->
<g id="edge2" class="edge">
<title>Logic/parse.ts&#45;&gt;fhirR4/Resources/Bundle.ts</title>
<path fill="none" stroke="#757575" d="M379.18,-546.24C399.42,-541.61 423,-536.22 444.21,-531.37"/>
<polygon fill="#757575" stroke="#757575" points="445.12,-534.75 454.09,-529.11 443.56,-527.93 445.12,-534.75"/>
</g>
<!-- fhirR4/Resources/Consent.ts -->
<g id="node4" class="node">
<title>fhirR4/Resources/Consent.ts</title>
<path fill="none" stroke="#c6c5fe" d="M836.33,-610.09C836.33,-610.09 662.67,-610.09 662.67,-610.09 658.83,-610.09 655,-606.26 655,-602.42 655,-602.42 655,-594.76 655,-594.76 655,-590.92 658.83,-587.09 662.67,-587.09 662.67,-587.09 836.33,-587.09 836.33,-587.09 840.17,-587.09 844,-590.92 844,-594.76 844,-594.76 844,-602.42 844,-602.42 844,-606.26 840.17,-610.09 836.33,-610.09"/>
<text text-anchor="middle" x="749.5" y="-594.89" font-family="Arial" font-size="14.00" fill="#c6c5fe">fhirR4/Resources/Consent.ts</text>
</g>
<!-- Logic/parse.ts&#45;&gt;fhirR4/Resources/Consent.ts -->
<g id="edge3" class="edge">
<title>Logic/parse.ts&#45;&gt;fhirR4/Resources/Consent.ts</title>
<path fill="none" stroke="#757575" d="M379.13,-566.42C390.87,-568.31 403.35,-570.17 415,-571.59 491.78,-580.97 578.92,-587.9 644.87,-592.39"/>
<polygon fill="#757575" stroke="#757575" points="644.64,-595.88 654.85,-593.06 645.11,-588.89 644.64,-595.88"/>
</g>
<!-- fhirR4/Resources/Encounter.ts -->
<g id="node5" class="node">
<title>fhirR4/Resources/Encounter.ts</title>
<path fill="none" stroke="#c6c5fe" d="M841.83,-945.09C841.83,-945.09 657.17,-945.09 657.17,-945.09 653.33,-945.09 649.5,-941.26 649.5,-937.42 649.5,-937.42 649.5,-929.76 649.5,-929.76 649.5,-925.92 653.33,-922.09 657.17,-922.09 657.17,-922.09 841.83,-922.09 841.83,-922.09 845.67,-922.09 849.5,-925.92 849.5,-929.76 849.5,-929.76 849.5,-937.42 849.5,-937.42 849.5,-941.26 845.67,-945.09 841.83,-945.09"/>
<text text-anchor="middle" x="749.5" y="-929.89" font-family="Arial" font-size="14.00" fill="#c6c5fe">fhirR4/Resources/Encounter.ts</text>
</g>
<!-- Logic/parse.ts&#45;&gt;fhirR4/Resources/Encounter.ts -->
<g id="edge4" class="edge">
<title>Logic/parse.ts&#45;&gt;fhirR4/Resources/Encounter.ts</title>
<path fill="none" stroke="#757575" d="M335.79,-569.32C363.25,-619.36 478.25,-816.52 632,-907.59 639.58,-912.08 647.85,-915.8 656.38,-918.87"/>
<polygon fill="#757575" stroke="#757575" points="655.5,-922.27 666.09,-922.08 657.7,-915.62 655.5,-922.27"/>
</g>
<!-- fhirR4/Resources/Flag.ts -->
<g id="node6" class="node">
<title>fhirR4/Resources/Flag.ts</title>
<path fill="none" stroke="#c6c5fe" d="M824.33,-489.09C824.33,-489.09 674.67,-489.09 674.67,-489.09 670.83,-489.09 667,-485.26 667,-481.42 667,-481.42 667,-473.76 667,-473.76 667,-469.92 670.83,-466.09 674.67,-466.09 674.67,-466.09 824.33,-466.09 824.33,-466.09 828.17,-466.09 832,-469.92 832,-473.76 832,-473.76 832,-481.42 832,-481.42 832,-485.26 828.17,-489.09 824.33,-489.09"/>
<text text-anchor="middle" x="749.5" y="-473.89" font-family="Arial" font-size="14.00" fill="#c6c5fe">fhirR4/Resources/Flag.ts</text>
</g>
<!-- Logic/parse.ts&#45;&gt;fhirR4/Resources/Flag.ts -->
<g id="edge5" class="edge">
<title>Logic/parse.ts&#45;&gt;fhirR4/Resources/Flag.ts</title>
<path fill="none" stroke="#757575" d="M341.29,-546.02C356.75,-531.7 385.38,-507.93 415,-497.59 493.26,-470.27 588.08,-467.22 656.58,-469.86"/>
<polygon fill="#757575" stroke="#757575" points="656.77,-473.37 666.91,-470.3 657.07,-466.37 656.77,-473.37"/>
</g>
<!-- fhirR4/Resources/Group.ts -->
<g id="node7" class="node">
<title>fhirR4/Resources/Group.ts</title>
<path fill="none" stroke="#c6c5fe" d="M830.33,-409.09C830.33,-409.09 668.67,-409.09 668.67,-409.09 664.83,-409.09 661,-405.26 661,-401.42 661,-401.42 661,-393.76 661,-393.76 661,-389.92 664.83,-386.09 668.67,-386.09 668.67,-386.09 830.33,-386.09 830.33,-386.09 834.17,-386.09 838,-389.92 838,-393.76 838,-393.76 838,-401.42 838,-401.42 838,-405.26 834.17,-409.09 830.33,-409.09"/>
<text text-anchor="middle" x="749.5" y="-393.89" font-family="Arial" font-size="14.00" fill="#c6c5fe">fhirR4/Resources/Group.ts</text>
</g>
<!-- Logic/parse.ts&#45;&gt;fhirR4/Resources/Group.ts -->
<g id="edge6" class="edge">
<title>Logic/parse.ts&#45;&gt;fhirR4/Resources/Group.ts</title>
<path fill="none" stroke="#757575" d="M336.58,-545.99C349.49,-525.93 378.88,-484.93 415,-464.59 487.47,-423.79 581.13,-407.6 650.73,-401.3"/>
<polygon fill="#757575" stroke="#757575" points="651.15,-404.77 660.82,-400.43 650.56,-397.8 651.15,-404.77"/>
</g>
<!-- fhirR4/Resources/Location.ts -->
<g id="node8" class="node">
<title>fhirR4/Resources/Location.ts</title>
<path fill="none" stroke="#c6c5fe" d="M836.83,-692.09C836.83,-692.09 662.17,-692.09 662.17,-692.09 658.33,-692.09 654.5,-688.26 654.5,-684.42 654.5,-684.42 654.5,-676.76 654.5,-676.76 654.5,-672.92 658.33,-669.09 662.17,-669.09 662.17,-669.09 836.83,-669.09 836.83,-669.09 840.67,-669.09 844.5,-672.92 844.5,-676.76 844.5,-676.76 844.5,-684.42 844.5,-684.42 844.5,-688.26 840.67,-692.09 836.83,-692.09"/>
<text text-anchor="middle" x="749.5" y="-676.89" font-family="Arial" font-size="14.00" fill="#c6c5fe">fhirR4/Resources/Location.ts</text>
</g>
<!-- Logic/parse.ts&#45;&gt;fhirR4/Resources/Location.ts -->
<g id="edge7" class="edge">
<title>Logic/parse.ts&#45;&gt;fhirR4/Resources/Location.ts</title>
<path fill="none" stroke="#757575" d="M340.74,-569.27C356.03,-584.41 384.95,-610.41 415,-623.59 487.66,-655.46 576.48,-669.57 644.19,-675.78"/>
<polygon fill="#757575" stroke="#757575" points="644.17,-679.3 654.44,-676.68 644.78,-672.32 644.17,-679.3"/>
</g>
<!-- fhirR4/Resources/Organization.ts -->
<g id="node9" class="node">
<title>fhirR4/Resources/Organization.ts</title>
<path fill="none" stroke="#c6c5fe" d="M849.83,-327.09C849.83,-327.09 649.17,-327.09 649.17,-327.09 645.33,-327.09 641.5,-323.26 641.5,-319.42 641.5,-319.42 641.5,-311.76 641.5,-311.76 641.5,-307.92 645.33,-304.09 649.17,-304.09 649.17,-304.09 849.83,-304.09 849.83,-304.09 853.67,-304.09 857.5,-307.92 857.5,-311.76 857.5,-311.76 857.5,-319.42 857.5,-319.42 857.5,-323.26 853.67,-327.09 849.83,-327.09"/>
<text text-anchor="middle" x="749.5" y="-311.89" font-family="Arial" font-size="14.00" fill="#c6c5fe">fhirR4/Resources/Organization.ts</text>
</g>
<!-- Logic/parse.ts&#45;&gt;fhirR4/Resources/Organization.ts -->
<g id="edge8" class="edge">
<title>Logic/parse.ts&#45;&gt;fhirR4/Resources/Organization.ts</title>
<path fill="none" stroke="#757575" d="M330.71,-545.94C334.96,-511.37 352.56,-408.89 415,-361.59 448.43,-336.27 549.19,-324.88 631.28,-319.76"/>
<polygon fill="#757575" stroke="#757575" points="631.68,-323.25 641.45,-319.15 631.26,-316.26 631.68,-323.25"/>
</g>
<!-- fhirR4/Resources/Patient.ts -->
<g id="node10" class="node">
<title>fhirR4/Resources/Patient.ts</title>
<path fill="none" stroke="#c6c5fe" d="M832.33,-286.09C832.33,-286.09 666.67,-286.09 666.67,-286.09 662.83,-286.09 659,-282.26 659,-278.42 659,-278.42 659,-270.76 659,-270.76 659,-266.92 662.83,-263.09 666.67,-263.09 666.67,-263.09 832.33,-263.09 832.33,-263.09 836.17,-263.09 840,-266.92 840,-270.76 840,-270.76 840,-278.42 840,-278.42 840,-282.26 836.17,-286.09 832.33,-286.09"/>
<text text-anchor="middle" x="749.5" y="-270.89" font-family="Arial" font-size="14.00" fill="#c6c5fe">fhirR4/Resources/Patient.ts</text>
</g>
<!-- Logic/parse.ts&#45;&gt;fhirR4/Resources/Patient.ts -->
<g id="edge9" class="edge">
<title>Logic/parse.ts&#45;&gt;fhirR4/Resources/Patient.ts</title>
<path fill="none" stroke="#757575" d="M329.69,-546.02C331.03,-506.83 341.11,-378.25 415,-318.59 449.99,-290.34 563.55,-280.16 648.51,-276.53"/>
<polygon fill="#757575" stroke="#757575" points="648.87,-280.02 658.72,-276.12 648.58,-273.02 648.87,-280.02"/>
</g>
<!-- fhirR4/Resources/Person.ts -->
<g id="node11" class="node">
<title>fhirR4/Resources/Person.ts</title>
<path fill="none" stroke="#c6c5fe" d="M832.83,-651.09C832.83,-651.09 666.17,-651.09 666.17,-651.09 662.33,-651.09 658.5,-647.26 658.5,-643.42 658.5,-643.42 658.5,-635.76 658.5,-635.76 658.5,-631.92 662.33,-628.09 666.17,-628.09 666.17,-628.09 832.83,-628.09 832.83,-628.09 836.67,-628.09 840.5,-631.92 840.5,-635.76 840.5,-635.76 840.5,-643.42 840.5,-643.42 840.5,-647.26 836.67,-651.09 832.83,-651.09"/>
<text text-anchor="middle" x="749.5" y="-635.89" font-family="Arial" font-size="14.00" fill="#c6c5fe">fhirR4/Resources/Person.ts</text>
</g>
<!-- Logic/parse.ts&#45;&gt;fhirR4/Resources/Person.ts -->
<g id="edge10" class="edge">
<title>Logic/parse.ts&#45;&gt;fhirR4/Resources/Person.ts</title>
<path fill="none" stroke="#757575" d="M352.5,-569.22C369.39,-577.27 393.1,-587.58 415,-593.59 491.8,-614.66 581.32,-626.34 648.27,-632.64"/>
<polygon fill="#757575" stroke="#757575" points="648.12,-636.15 658.4,-633.57 648.76,-629.17 648.12,-636.15"/>
</g>
<!-- fhirR4/Resources/Practitioner.ts -->
<g id="node12" class="node">
<title>fhirR4/Resources/Practitioner.ts</title>
<path fill="none" stroke="#c6c5fe" d="M844.83,-245.09C844.83,-245.09 654.17,-245.09 654.17,-245.09 650.33,-245.09 646.5,-241.26 646.5,-237.42 646.5,-237.42 646.5,-229.76 646.5,-229.76 646.5,-225.92 650.33,-222.09 654.17,-222.09 654.17,-222.09 844.83,-222.09 844.83,-222.09 848.67,-222.09 852.5,-225.92 852.5,-229.76 852.5,-229.76 852.5,-237.42 852.5,-237.42 852.5,-241.26 848.67,-245.09 844.83,-245.09"/>
<text text-anchor="middle" x="749.5" y="-229.89" font-family="Arial" font-size="14.00" fill="#c6c5fe">fhirR4/Resources/Practitioner.ts</text>
</g>
<!-- Logic/parse.ts&#45;&gt;fhirR4/Resources/Practitioner.ts -->
<g id="edge11" class="edge">
<title>Logic/parse.ts&#45;&gt;fhirR4/Resources/Practitioner.ts</title>
<path fill="none" stroke="#757575" d="M328.99,-545.9C327.79,-502.37 329.91,-348.53 415,-276.59 484.08,-218.19 591.73,-214.73 665.94,-221.1"/>
<polygon fill="#757575" stroke="#757575" points="665.9,-224.62 676.18,-222.06 666.55,-217.65 665.9,-224.62"/>
</g>
<!-- fhirR4/Resources/PractitionerRole.ts -->
<g id="node13" class="node">
<title>fhirR4/Resources/PractitionerRole.ts</title>
<path fill="none" stroke="#c6c5fe" d="M859.33,-569.09C859.33,-569.09 639.67,-569.09 639.67,-569.09 635.83,-569.09 632,-565.26 632,-561.42 632,-561.42 632,-553.76 632,-553.76 632,-549.92 635.83,-546.09 639.67,-546.09 639.67,-546.09 859.33,-546.09 859.33,-546.09 863.17,-546.09 867,-549.92 867,-553.76 867,-553.76 867,-561.42 867,-561.42 867,-565.26 863.17,-569.09 859.33,-569.09"/>
<text text-anchor="middle" x="749.5" y="-553.89" font-family="Arial" font-size="14.00" fill="#c6c5fe">fhirR4/Resources/PractitionerRole.ts</text>
</g>
<!-- Logic/parse.ts&#45;&gt;fhirR4/Resources/PractitionerRole.ts -->
<g id="edge12" class="edge">
<title>Logic/parse.ts&#45;&gt;fhirR4/Resources/PractitionerRole.ts</title>
<path fill="none" stroke="#757575" d="M379.21,-557.59C438.56,-557.59 540.04,-557.59 621.61,-557.59"/>
<polygon fill="#757575" stroke="#757575" points="621.97,-561.09 631.97,-557.59 621.97,-554.09 621.97,-561.09"/>
</g>
<!-- fhirR4/Resources/RelatedPerson.ts -->
<g id="node14" class="node">
<title>fhirR4/Resources/RelatedPerson.ts</title>
<path fill="none" stroke="#c6c5fe" d="M855.83,-368.09C855.83,-368.09 643.17,-368.09 643.17,-368.09 639.33,-368.09 635.5,-364.26 635.5,-360.42 635.5,-360.42 635.5,-352.76 635.5,-352.76 635.5,-348.92 639.33,-345.09 643.17,-345.09 643.17,-345.09 855.83,-345.09 855.83,-345.09 859.67,-345.09 863.5,-348.92 863.5,-352.76 863.5,-352.76 863.5,-360.42 863.5,-360.42 863.5,-364.26 859.67,-368.09 855.83,-368.09"/>
<text text-anchor="middle" x="749.5" y="-352.89" font-family="Arial" font-size="14.00" fill="#c6c5fe">fhirR4/Resources/RelatedPerson.ts</text>
</g>
<!-- Logic/parse.ts&#45;&gt;fhirR4/Resources/RelatedPerson.ts -->
<g id="edge13" class="edge">
<title>Logic/parse.ts&#45;&gt;fhirR4/Resources/RelatedPerson.ts</title>
<path fill="none" stroke="#757575" d="M332.21,-546C339.69,-516.78 363.59,-439.92 415,-404.59 448.63,-381.48 544.68,-369.3 625.11,-363"/>
<polygon fill="#757575" stroke="#757575" points="625.63,-366.48 635.34,-362.23 625.1,-359.5 625.63,-366.48"/>
</g>
<!-- fhirR4/resources.ts -->
<g id="node15" class="node">
<title>fhirR4/resources.ts</title>
<path fill="none" stroke="#cfffac" d="M1406.33,-681.09C1406.33,-681.09 1291.67,-681.09 1291.67,-681.09 1287.83,-681.09 1284,-677.26 1284,-673.42 1284,-673.42 1284,-665.76 1284,-665.76 1284,-661.92 1287.83,-658.09 1291.67,-658.09 1291.67,-658.09 1406.33,-658.09 1406.33,-658.09 1410.17,-658.09 1414,-661.92 1414,-665.76 1414,-665.76 1414,-673.42 1414,-673.42 1414,-677.26 1410.17,-681.09 1406.33,-681.09"/>
<text text-anchor="middle" x="1349" y="-665.89" font-family="Arial" font-size="14.00" fill="#cfffac">fhirR4/resources.ts</text>
</g>
<!-- Logic/parse.ts&#45;&gt;fhirR4/resources.ts -->
<g id="edge14" class="edge">
<title>Logic/parse.ts&#45;&gt;fhirR4/resources.ts</title>
<path fill="none" stroke="#757575" d="M333.33,-569.29C348.94,-616.98 407.4,-794.59 415,-804.59 432.73,-827.93 604.1,-945.6 632,-954.59 892.66,-1038.56 1032.44,-1109.49 1248,-940.59 1328.17,-877.77 1344.08,-744.06 1347.22,-691.48"/>
<polygon fill="#757575" stroke="#757575" points="1350.73,-691.44 1347.73,-681.27 1343.74,-691.09 1350.73,-691.44"/>
</g>
<!-- fhirR4/Resources/Bundle.ts&#45;&gt;fhirR4/Resources/Consent.ts -->
<g id="edge21" class="edge">
<title>fhirR4/Resources/Bundle.ts&#45;&gt;fhirR4/Resources/Consent.ts</title>
<path fill="none" stroke="#757575" d="M525.78,-529.1C549.82,-542.95 592.56,-565.91 632,-578.59 639.28,-580.93 646.91,-583.02 654.63,-584.87"/>
<polygon fill="#757575" stroke="#757575" points="653.92,-588.3 664.44,-587.09 655.46,-581.47 653.92,-588.3"/>
</g>
<!-- fhirR4/Resources/Bundle.ts&#45;&gt;fhirR4/Resources/Encounter.ts -->
<g id="edge22" class="edge">
<title>fhirR4/Resources/Bundle.ts&#45;&gt;fhirR4/Resources/Encounter.ts</title>
<path fill="none" stroke="#757575" d="M510.14,-529.46C529.99,-594.07 624.48,-900.73 632,-907.59 636.11,-911.34 640.65,-914.6 645.47,-917.41"/>
<polygon fill="#757575" stroke="#757575" points="643.94,-920.56 654.43,-922.02 647.14,-914.33 643.94,-920.56"/>
</g>
<!-- fhirR4/Resources/Bundle.ts&#45;&gt;fhirR4/Resources/Flag.ts -->
<g id="edge23" class="edge">
<title>fhirR4/Resources/Bundle.ts&#45;&gt;fhirR4/Resources/Flag.ts</title>
<path fill="none" stroke="#757575" d="M576.17,-506.08C605.15,-501.29 638.95,-495.7 668.9,-490.75"/>
<polygon fill="#757575" stroke="#757575" points="669.61,-494.18 678.9,-489.1 668.46,-487.27 669.61,-494.18"/>
</g>
<!-- fhirR4/Resources/Bundle.ts&#45;&gt;fhirR4/Resources/Group.ts -->
<g id="edge24" class="edge">
<title>fhirR4/Resources/Bundle.ts&#45;&gt;fhirR4/Resources/Group.ts</title>
<path fill="none" stroke="#757575" d="M518.18,-506.06C539.13,-486.08 585.26,-445.1 632,-423.59 642.27,-418.87 653.44,-414.98 664.68,-411.78"/>
<polygon fill="#757575" stroke="#757575" points="665.79,-415.11 674.55,-409.14 663.98,-408.34 665.79,-415.11"/>
</g>
<!-- fhirR4/Resources/Bundle.ts&#45;&gt;fhirR4/Resources/Location.ts -->
<g id="edge25" class="edge">
<title>fhirR4/Resources/Bundle.ts&#45;&gt;fhirR4/Resources/Location.ts</title>
<path fill="none" stroke="#757575" d="M512.89,-529.23C528.86,-557.11 573.49,-627.84 632,-660.59 636.04,-662.85 640.27,-664.87 644.63,-666.67"/>
<polygon fill="#757575" stroke="#757575" points="643.75,-670.07 654.34,-670.27 646.18,-663.51 643.75,-670.07"/>
</g>
<!-- fhirR4/Resources/Bundle.ts&#45;&gt;fhirR4/Resources/Organization.ts -->
<g id="edge26" class="edge">
<title>fhirR4/Resources/Bundle.ts&#45;&gt;fhirR4/Resources/Organization.ts</title>
<path fill="none" stroke="#757575" d="M510.8,-505.81C523.53,-472.76 564.4,-378.78 632,-335.59 634.31,-334.11 636.7,-332.74 639.15,-331.45"/>
<polygon fill="#757575" stroke="#757575" points="640.68,-334.6 648.26,-327.2 637.72,-328.26 640.68,-334.6"/>
</g>
<!-- fhirR4/Resources/Bundle.ts&#45;&gt;fhirR4/Resources/Patient.ts -->
<g id="edge27" class="edge">
<title>fhirR4/Resources/Bundle.ts&#45;&gt;fhirR4/Resources/Patient.ts</title>
<path fill="none" stroke="#757575" d="M509.25,-505.98C518.81,-468.4 554.3,-349.37 632,-294.59 637.34,-290.83 643.15,-287.69 649.23,-285.08"/>
<polygon fill="#757575" stroke="#757575" points="650.87,-288.21 658.99,-281.41 648.4,-281.66 650.87,-288.21"/>
</g>
<!-- fhirR4/Resources/Bundle.ts&#45;&gt;fhirR4/Resources/Person.ts -->
<g id="edge28" class="edge">
<title>fhirR4/Resources/Bundle.ts&#45;&gt;fhirR4/Resources/Person.ts</title>
<path fill="none" stroke="#757575" d="M516.91,-529.35C536.86,-551.07 582.92,-597.3 632,-619.59 637.33,-622.01 642.91,-624.14 648.63,-626.01"/>
<polygon fill="#757575" stroke="#757575" points="647.78,-629.41 658.36,-628.93 649.79,-622.7 647.78,-629.41"/>
</g>
<!-- fhirR4/Resources/Bundle.ts&#45;&gt;fhirR4/Resources/Practitioner.ts -->
<g id="edge29" class="edge">
<title>fhirR4/Resources/Bundle.ts&#45;&gt;fhirR4/Resources/Practitioner.ts</title>
<path fill="none" stroke="#757575" d="M508.19,-506C514.95,-464.21 544.03,-320.26 632,-253.59 633.83,-252.21 635.72,-250.9 637.66,-249.68"/>
<polygon fill="#757575" stroke="#757575" points="639.43,-252.7 646.49,-244.8 636.05,-246.57 639.43,-252.7"/>
</g>
<!-- fhirR4/Resources/Bundle.ts&#45;&gt;fhirR4/Resources/PractitionerRole.ts -->
<g id="edge30" class="edge">
<title>fhirR4/Resources/Bundle.ts&#45;&gt;fhirR4/Resources/PractitionerRole.ts</title>
<path fill="none" stroke="#757575" d="M576.17,-529.11C605.15,-533.9 638.95,-539.48 668.9,-544.43"/>
<polygon fill="#757575" stroke="#757575" points="668.46,-547.91 678.9,-546.09 669.61,-541 668.46,-547.91"/>
</g>
<!-- fhirR4/Resources/Bundle.ts&#45;&gt;fhirR4/Resources/RelatedPerson.ts -->
<g id="edge31" class="edge">
<title>fhirR4/Resources/Bundle.ts&#45;&gt;fhirR4/Resources/RelatedPerson.ts</title>
<path fill="none" stroke="#757575" d="M513.21,-505.82C529.57,-478.32 574.43,-409.73 632,-377.59 635.79,-375.48 639.74,-373.57 643.8,-371.85"/>
<polygon fill="#757575" stroke="#757575" points="645.38,-375 653.47,-368.16 642.88,-368.45 645.38,-375"/>
</g>
<!-- fhirR4/Resources/Bundle.ts&#45;&gt;fhirR4/resources.ts -->
<g id="edge33" class="edge">
<title>fhirR4/Resources/Bundle.ts&#45;&gt;fhirR4/resources.ts</title>
<path fill="none" stroke="#757575" d="M511.45,-529.29C525.56,-561.33 569.09,-651.49 632,-701.59 733.17,-782.16 776.97,-778.56 903,-807.59 1052.6,-842.06 1113.19,-898.05 1248,-824.59 1300.5,-795.99 1329.61,-726.67 1341.52,-691.23"/>
<polygon fill="#757575" stroke="#757575" points="1344.95,-692 1344.68,-681.41 1338.29,-689.86 1344.95,-692"/>
</g>
<!-- fhirR4/DomainResource.ts -->
<g id="node18" class="node">
<title>fhirR4/DomainResource.ts</title>
<path fill="none" stroke="#c6c5fe" d="M1071.33,-451.09C1071.33,-451.09 910.67,-451.09 910.67,-451.09 906.83,-451.09 903,-447.26 903,-443.42 903,-443.42 903,-435.76 903,-435.76 903,-431.92 906.83,-428.09 910.67,-428.09 910.67,-428.09 1071.33,-428.09 1071.33,-428.09 1075.17,-428.09 1079,-431.92 1079,-435.76 1079,-435.76 1079,-443.42 1079,-443.42 1079,-447.26 1075.17,-451.09 1071.33,-451.09"/>
<text text-anchor="middle" x="991" y="-435.89" font-family="Arial" font-size="14.00" fill="#c6c5fe">fhirR4/DomainResource.ts</text>
</g>
<!-- fhirR4/Resources/Bundle.ts&#45;&gt;fhirR4/DomainResource.ts -->
<g id="edge20" class="edge">
<title>fhirR4/Resources/Bundle.ts&#45;&gt;fhirR4/DomainResource.ts</title>
<path fill="none" stroke="#757575" d="M524.75,-506C548.42,-491.64 591.5,-467.85 632,-457.59 718.28,-435.73 819.89,-432.68 892.78,-434.24"/>
<polygon fill="#757575" stroke="#757575" points="892.79,-437.74 902.87,-434.49 892.96,-430.75 892.79,-437.74"/>
</g>
<!-- fhirR4/dataTypes.ts -->
<g id="node19" class="node">
<title>fhirR4/dataTypes.ts</title>
<path fill="none" stroke="#c6c5fe" d="M1240.33,-491.09C1240.33,-491.09 1122.67,-491.09 1122.67,-491.09 1118.83,-491.09 1115,-487.26 1115,-483.42 1115,-483.42 1115,-475.76 1115,-475.76 1115,-471.92 1118.83,-468.09 1122.67,-468.09 1122.67,-468.09 1240.33,-468.09 1240.33,-468.09 1244.17,-468.09 1248,-471.92 1248,-475.76 1248,-475.76 1248,-483.42 1248,-483.42 1248,-487.26 1244.17,-491.09 1240.33,-491.09"/>
<text text-anchor="middle" x="1181.5" y="-475.89" font-family="Arial" font-size="14.00" fill="#c6c5fe">fhirR4/dataTypes.ts</text>
</g>
<!-- fhirR4/Resources/Bundle.ts&#45;&gt;fhirR4/dataTypes.ts -->
<g id="edge32" class="edge">
<title>fhirR4/Resources/Bundle.ts&#45;&gt;fhirR4/dataTypes.ts</title>
<path fill="none" stroke="#757575" d="M596.39,-515.99C709.26,-513.45 908.76,-507.18 1079,-492.59 1087.33,-491.88 1096.03,-490.99 1104.69,-490.01"/>
<polygon fill="#757575" stroke="#757575" points="1105.27,-493.46 1114.79,-488.82 1104.45,-486.51 1105.27,-493.46"/>
</g>
<!-- fhirR4/Resources/Consent.ts&#45;&gt;fhirR4/resources.ts -->
<g id="edge36" class="edge">
<title>fhirR4/Resources/Consent.ts&#45;&gt;fhirR4/resources.ts</title>
<path fill="none" stroke="#757575" d="M844.26,-606.12C852.51,-609.47 860.27,-613.86 867,-619.59 903.62,-650.74 863.76,-693.82 903,-721.59 965.59,-765.87 1173.53,-739.8 1248,-721.59 1275.4,-714.89 1303.66,-699.25 1323.11,-686.86"/>
<polygon fill="#757575" stroke="#757575" points="1325.21,-689.67 1331.65,-681.26 1321.37,-683.81 1325.21,-689.67"/>
</g>
<!-- fhirR4/Resources/Consent.ts&#45;&gt;fhirR4/DomainResource.ts -->
<g id="edge34" class="edge">
<title>fhirR4/Resources/Consent.ts&#45;&gt;fhirR4/DomainResource.ts</title>
<path fill="none" stroke="#757575" d="M844.04,-588.43C852.05,-585.82 859.83,-582.59 867,-578.59 918.53,-549.89 959.26,-491.16 978.29,-460.02"/>
<polygon fill="#757575" stroke="#757575" points="981.37,-461.69 983.48,-451.31 975.35,-458.1 981.37,-461.69"/>
</g>
<!-- fhirR4/Resources/Consent.ts&#45;&gt;fhirR4/dataTypes.ts -->
<g id="edge35" class="edge">
<title>fhirR4/Resources/Consent.ts&#45;&gt;fhirR4/dataTypes.ts</title>
<path fill="none" stroke="#757575" d="M844.07,-599.85C911.67,-597.72 1003.9,-588.43 1079,-557.59 1111.92,-544.07 1143.37,-516.95 1162.31,-498.53"/>
<polygon fill="#757575" stroke="#757575" points="1165.01,-500.77 1169.62,-491.23 1160.07,-495.81 1165.01,-500.77"/>
</g>
<!-- fhirR4/Resources/Encounter.ts&#45;&gt;fhirR4/resources.ts -->
<g id="edge37" class="edge">
<title>fhirR4/Resources/Encounter.ts&#45;&gt;fhirR4/resources.ts</title>
<path fill="none" stroke="#757575" d="M849.53,-941.41C976.02,-949.35 1186.02,-955.06 1248,-911.59 1322.59,-859.29 1341.68,-740.59 1346.45,-691.48"/>
<polygon fill="#757575" stroke="#757575" points="1349.95,-691.6 1347.33,-681.34 1342.98,-691 1349.95,-691.6"/>
</g>
<!-- fhirR4/Resources/Flag.ts&#45;&gt;fhirR4/resources.ts -->
<g id="edge40" class="edge">
<title>fhirR4/Resources/Flag.ts&#45;&gt;fhirR4/resources.ts</title>
<path fill="none" stroke="#757575" d="M786.53,-489.17C889.99,-522.41 1187.86,-618.13 1302.39,-654.93"/>
<polygon fill="#757575" stroke="#757575" points="1301.33,-658.27 1311.92,-658 1303.47,-651.61 1301.33,-658.27"/>
</g>
<!-- fhirR4/Resources/Flag.ts&#45;&gt;fhirR4/DomainResource.ts -->
<g id="edge38" class="edge">
<title>fhirR4/Resources/Flag.ts&#45;&gt;fhirR4/DomainResource.ts</title>
<path fill="none" stroke="#757575" d="M823.01,-466.09C849.62,-461.87 879.93,-457.06 907.36,-452.7"/>
<polygon fill="#757575" stroke="#757575" points="908,-456.15 917.33,-451.12 906.9,-449.23 908,-456.15"/>
</g>
<!-- fhirR4/Resources/Flag.ts&#45;&gt;fhirR4/dataTypes.ts -->
<g id="edge39" class="edge">
<title>fhirR4/Resources/Flag.ts&#45;&gt;fhirR4/dataTypes.ts</title>
<path fill="none" stroke="#757575" d="M832.14,-477.97C910.7,-478.34 1028.51,-478.88 1104.96,-479.24"/>
<polygon fill="#757575" stroke="#757575" points="1104.98,-482.74 1115,-479.29 1105.01,-475.74 1104.98,-482.74"/>
</g>
<!-- fhirR4/Resources/Group.ts&#45;&gt;fhirR4/resources.ts -->
<g id="edge43" class="edge">
<title>fhirR4/Resources/Group.ts&#45;&gt;fhirR4/resources.ts</title>
<path fill="none" stroke="#757575" d="M838.36,-391.52C859.52,-390.3 882.06,-389.21 903,-388.59 1059.48,-383.98 1134.75,-351.51 1248,-459.59 1304.58,-513.59 1332.79,-606.09 1343.17,-647.92"/>
<polygon fill="#757575" stroke="#757575" points="1339.81,-648.94 1345.53,-657.86 1346.62,-647.32 1339.81,-648.94"/>
</g>
<!-- fhirR4/Resources/Group.ts&#45;&gt;fhirR4/DomainResource.ts -->
<g id="edge41" class="edge">
<title>fhirR4/Resources/Group.ts&#45;&gt;fhirR4/DomainResource.ts</title>
<path fill="none" stroke="#757575" d="M816.26,-409.12C846.63,-414.45 882.85,-420.8 914.34,-426.32"/>
<polygon fill="#757575" stroke="#757575" points="913.93,-429.8 924.39,-428.08 915.14,-422.91 913.93,-429.8"/>
</g>
<!-- fhirR4/Resources/Group.ts&#45;&gt;fhirR4/dataTypes.ts -->
<g id="edge42" class="edge">
<title>fhirR4/Resources/Group.ts&#45;&gt;fhirR4/dataTypes.ts</title>
<path fill="none" stroke="#757575" d="M838.27,-392.57C905.61,-391.29 1000.1,-395.15 1079,-419.59 1108.33,-428.68 1138.15,-447.72 1157.8,-461.93"/>
<polygon fill="#757575" stroke="#757575" points="1155.96,-464.92 1166.08,-468.06 1160.13,-459.3 1155.96,-464.92"/>
</g>
<!-- fhirR4/Resources/Location.ts&#45;&gt;fhirR4/resources.ts -->
<g id="edge46" class="edge">
<title>fhirR4/Resources/Location.ts&#45;&gt;fhirR4/resources.ts</title>
<path fill="none" stroke="#757575" d="M767.28,-692.26C832.34,-735.92 1072.95,-882.97 1248,-797.59 1293.77,-775.27 1324.73,-720.74 1338.99,-690.56"/>
<polygon fill="#757575" stroke="#757575" points="1342.24,-691.89 1343.19,-681.34 1335.86,-688.99 1342.24,-691.89"/>
</g>
<!-- fhirR4/Resources/Location.ts&#45;&gt;fhirR4/DomainResource.ts -->
<g id="edge44" class="edge">
<title>fhirR4/Resources/Location.ts&#45;&gt;fhirR4/DomainResource.ts</title>
<path fill="none" stroke="#757575" d="M844.76,-672.15C852.67,-669.18 860.22,-665.4 867,-660.59 937.83,-610.4 972.62,-505.93 984.79,-460.95"/>
<polygon fill="#757575" stroke="#757575" points="988.22,-461.66 987.35,-451.1 981.44,-459.9 988.22,-461.66"/>
</g>
<!-- fhirR4/Resources/Location.ts&#45;&gt;fhirR4/dataTypes.ts -->
<g id="edge45" class="edge">
<title>fhirR4/Resources/Location.ts&#45;&gt;fhirR4/dataTypes.ts</title>
<path fill="none" stroke="#757575" d="M844.86,-684.58C914.57,-683.2 1009.1,-671.89 1079,-627.59 1127.44,-596.89 1158.7,-533.82 1172.44,-500.8"/>
<polygon fill="#757575" stroke="#757575" points="1175.81,-501.8 1176.28,-491.22 1169.31,-499.2 1175.81,-501.8"/>
</g>
<!-- fhirR4/Resources/Organization.ts&#45;&gt;fhirR4/resources.ts -->
<g id="edge49" class="edge">
<title>fhirR4/Resources/Organization.ts&#45;&gt;fhirR4/resources.ts</title>
<path fill="none" stroke="#757575" d="M857.68,-307.56C985.57,-300.3 1189.51,-296.81 1248,-342.59 1297.61,-381.42 1333.69,-580.6 1344.58,-647.58"/>
<polygon fill="#757575" stroke="#757575" points="1341.18,-648.5 1346.21,-657.82 1348.09,-647.4 1341.18,-648.5"/>
</g>
<!-- fhirR4/Resources/Organization.ts&#45;&gt;fhirR4/DomainResource.ts -->
<g id="edge47" class="edge">
<title>fhirR4/Resources/Organization.ts&#45;&gt;fhirR4/DomainResource.ts</title>
<path fill="none" stroke="#757575" d="M844.38,-327.15C852.2,-329.47 859.84,-332.25 867,-335.59 910.76,-355.98 951.44,-396.17 973.29,-420.18"/>
<polygon fill="#757575" stroke="#757575" points="970.94,-422.8 980.21,-427.94 976.17,-418.14 970.94,-422.8"/>
</g>
<!-- fhirR4/Resources/Organization.ts&#45;&gt;fhirR4/dataTypes.ts -->
<g id="edge48" class="edge">
<title>fhirR4/Resources/Organization.ts&#45;&gt;fhirR4/dataTypes.ts</title>
<path fill="none" stroke="#757575" d="M857.81,-305.57C925.28,-304.1 1011.94,-311.44 1079,-348.59 1124.45,-373.77 1156.28,-428.61 1171.1,-458.74"/>
<polygon fill="#757575" stroke="#757575" points="1168.01,-460.4 1175.46,-467.93 1174.33,-457.4 1168.01,-460.4"/>
</g>
<!-- fhirR4/Resources/Patient.ts&#45;&gt;fhirR4/resources.ts -->
<g id="edge52" class="edge">
<title>fhirR4/Resources/Patient.ts&#45;&gt;fhirR4/resources.ts</title>
<path fill="none" stroke="#757575" d="M840.02,-267.98C966.14,-260.62 1187.53,-255.51 1248,-304.59 1302.84,-349.1 1336.1,-576.29 1345.35,-647.93"/>
<polygon fill="#757575" stroke="#757575" points="1341.9,-648.55 1346.62,-658.04 1348.84,-647.68 1341.9,-648.55"/>
</g>
<!-- fhirR4/Resources/Patient.ts&#45;&gt;fhirR4/DomainResource.ts -->
<g id="edge50" class="edge">
<title>fhirR4/Resources/Patient.ts&#45;&gt;fhirR4/DomainResource.ts</title>
<path fill="none" stroke="#757575" d="M840.21,-283.35C849.59,-286.19 858.71,-289.86 867,-294.59 919.74,-324.7 960.2,-386.41 978.79,-418.76"/>
<polygon fill="#757575" stroke="#757575" points="975.91,-420.78 983.85,-427.79 982.02,-417.36 975.91,-420.78"/>
</g>
<!-- fhirR4/Resources/Patient.ts&#45;&gt;fhirR4/dataTypes.ts -->
<g id="edge51" class="edge">
<title>fhirR4/Resources/Patient.ts&#45;&gt;fhirR4/dataTypes.ts</title>
<path fill="none" stroke="#757575" d="M818.57,-263.06C889.35,-254.78 1000.57,-252.59 1079,-302.59 1136.06,-338.97 1164.48,-419.62 1175.23,-458.21"/>
<polygon fill="#757575" stroke="#757575" points="1171.86,-459.14 1177.81,-467.91 1178.62,-457.35 1171.86,-459.14"/>
</g>
<!-- fhirR4/Resources/Person.ts&#45;&gt;fhirR4/resources.ts -->
<g id="edge55" class="edge">
<title>fhirR4/Resources/Person.ts&#45;&gt;fhirR4/resources.ts</title>
<path fill="none" stroke="#757575" d="M840.72,-645.85C850.28,-649.33 859.3,-654.1 867,-660.59 902.8,-690.76 864.65,-732.73 903,-759.59 965.8,-803.57 1176.42,-787.06 1248,-759.59 1284.58,-745.56 1316.15,-711.28 1333.58,-689.3"/>
<polygon fill="#757575" stroke="#757575" points="1336.43,-691.34 1339.75,-681.28 1330.88,-687.08 1336.43,-691.34"/>
</g>
<!-- fhirR4/Resources/Person.ts&#45;&gt;fhirR4/DomainResource.ts -->
<g id="edge53" class="edge">
<title>fhirR4/Resources/Person.ts&#45;&gt;fhirR4/DomainResource.ts</title>
<path fill="none" stroke="#757575" d="M840.73,-631.69C850.01,-628.69 858.97,-624.75 867,-619.59 927.85,-580.53 966.38,-499.53 982.01,-460.93"/>
<polygon fill="#757575" stroke="#757575" points="985.42,-461.83 985.82,-451.24 978.91,-459.27 985.42,-461.83"/>
</g>
<!-- fhirR4/Resources/Person.ts&#45;&gt;fhirR4/dataTypes.ts -->
<g id="edge54" class="edge">
<title>fhirR4/Resources/Person.ts&#45;&gt;fhirR4/dataTypes.ts</title>
<path fill="none" stroke="#757575" d="M840.59,-642.1C909.61,-640.37 1005.19,-629.87 1079,-590.59 1119.03,-569.29 1151.46,-525.8 1168.18,-500.04"/>
<polygon fill="#757575" stroke="#757575" points="1171.24,-501.75 1173.61,-491.42 1165.32,-498.01 1171.24,-501.75"/>
</g>
<!-- fhirR4/Resources/Practitioner.ts&#45;&gt;fhirR4/resources.ts -->
<g id="edge58" class="edge">
<title>fhirR4/Resources/Practitioner.ts&#45;&gt;fhirR4/resources.ts</title>
<path fill="none" stroke="#757575" d="M790.69,-222.03C883.38,-198.04 1114.35,-153.89 1248,-265.59 1308.12,-315.84 1338.14,-570.88 1345.92,-647.68"/>
<polygon fill="#757575" stroke="#757575" points="1342.48,-648.44 1346.94,-658.05 1349.44,-647.75 1342.48,-648.44"/>
</g>
<!-- fhirR4/Resources/Practitioner.ts&#45;&gt;fhirR4/DomainResource.ts -->
<g id="edge56" class="edge">
<title>fhirR4/Resources/Practitioner.ts&#45;&gt;fhirR4/DomainResource.ts</title>
<path fill="none" stroke="#757575" d="M851.1,-245.21C856.67,-247.57 862.02,-250.34 867,-253.59 929.5,-294.38 967.62,-379.21 982.63,-418.62"/>
<polygon fill="#757575" stroke="#757575" points="979.36,-419.87 986.11,-428.04 985.93,-417.44 979.36,-419.87"/>
</g>
<!-- fhirR4/Resources/Practitioner.ts&#45;&gt;fhirR4/dataTypes.ts -->
<g id="edge57" class="edge">
<title>fhirR4/Resources/Practitioner.ts&#45;&gt;fhirR4/dataTypes.ts</title>
<path fill="none" stroke="#757575" d="M801.58,-222.06C871,-209.47 995.97,-198.04 1079,-255.59 1148.53,-303.79 1171.24,-411.59 1177.95,-457.84"/>
<polygon fill="#757575" stroke="#757575" points="1174.5,-458.5 1179.3,-467.95 1181.44,-457.58 1174.5,-458.5"/>
</g>
<!-- fhirR4/Resources/PractitionerRole.ts&#45;&gt;fhirR4/resources.ts -->
<g id="edge61" class="edge">
<title>fhirR4/Resources/PractitionerRole.ts&#45;&gt;fhirR4/resources.ts</title>
<path fill="none" stroke="#757575" d="M853.01,-569.12C858,-571.78 862.71,-574.91 867,-578.59 904.43,-610.73 862.86,-654.92 903,-683.59 960.49,-724.65 1162.76,-699.94 1273.75,-682.44"/>
<polygon fill="#757575" stroke="#757575" points="1274.54,-685.86 1283.87,-680.83 1273.44,-678.95 1274.54,-685.86"/>
</g>
<!-- fhirR4/Resources/PractitionerRole.ts&#45;&gt;fhirR4/DomainResource.ts -->
<g id="edge59" class="edge">
<title>fhirR4/Resources/PractitionerRole.ts&#45;&gt;fhirR4/DomainResource.ts</title>
<path fill="none" stroke="#757575" d="M773.9,-546.06C816.83,-524.91 908.24,-479.87 957.29,-455.71"/>
<polygon fill="#757575" stroke="#757575" points="959.08,-458.73 966.5,-451.17 955.99,-452.45 959.08,-458.73"/>
</g>
<!-- fhirR4/Resources/PractitionerRole.ts&#45;&gt;fhirR4/dataTypes.ts -->
<g id="edge60" class="edge">
<title>fhirR4/Resources/PractitionerRole.ts&#45;&gt;fhirR4/dataTypes.ts</title>
<path fill="none" stroke="#757575" d="M867.24,-559.43C930.9,-557.7 1010.47,-551.02 1079,-531.59 1106.13,-523.9 1134.5,-508.67 1154.32,-496.67"/>
<polygon fill="#757575" stroke="#757575" points="1156.4,-499.5 1163.06,-491.25 1152.71,-493.55 1156.4,-499.5"/>
</g>
<!-- fhirR4/Resources/RelatedPerson.ts&#45;&gt;fhirR4/resources.ts -->
<g id="edge64" class="edge">
<title>fhirR4/Resources/RelatedPerson.ts&#45;&gt;fhirR4/resources.ts</title>
<path fill="none" stroke="#757575" d="M863.55,-346.77C992.49,-338.17 1192.64,-333.56 1248,-381.59 1329.73,-452.52 1344.7,-593.85 1347.41,-647.89"/>
<polygon fill="#757575" stroke="#757575" points="1343.92,-648.19 1347.82,-658.04 1350.91,-647.91 1343.92,-648.19"/>
</g>
<!-- fhirR4/Resources/RelatedPerson.ts&#45;&gt;fhirR4/DomainResource.ts -->
<g id="edge62" class="edge">
<title>fhirR4/Resources/RelatedPerson.ts&#45;&gt;fhirR4/DomainResource.ts</title>
<path fill="none" stroke="#757575" d="M831.79,-368.13C843.74,-370.72 855.79,-373.84 867,-377.59 901.39,-389.09 938.19,-408.72 962.48,-422.81"/>
<polygon fill="#757575" stroke="#757575" points="960.76,-425.86 971.15,-427.91 964.31,-419.82 960.76,-425.86"/>
</g>
<!-- fhirR4/Resources/RelatedPerson.ts&#45;&gt;fhirR4/dataTypes.ts -->
<g id="edge63" class="edge">
<title>fhirR4/Resources/RelatedPerson.ts&#45;&gt;fhirR4/dataTypes.ts</title>
<path fill="none" stroke="#757575" d="M863.62,-350.46C929.08,-351.02 1011.59,-358.97 1079,-388.59 1115.15,-404.48 1147.3,-438.31 1165.3,-459.95"/>
<polygon fill="#757575" stroke="#757575" points="1162.68,-462.28 1171.7,-467.85 1168.12,-457.88 1162.68,-462.28"/>
</g>
<!-- Logic/resource.ts -->
<g id="node16" class="node">
<title>Logic/resource.ts</title>
<path fill="none" stroke="#c6c5fe" d="M1042.83,-29.09C1042.83,-29.09 939.17,-29.09 939.17,-29.09 935.33,-29.09 931.5,-25.26 931.5,-21.42 931.5,-21.42 931.5,-13.76 931.5,-13.76 931.5,-9.92 935.33,-6.09 939.17,-6.09 939.17,-6.09 1042.83,-6.09 1042.83,-6.09 1046.67,-6.09 1050.5,-9.92 1050.5,-13.76 1050.5,-13.76 1050.5,-21.42 1050.5,-21.42 1050.5,-25.26 1046.67,-29.09 1042.83,-29.09"/>
<text text-anchor="middle" x="991" y="-13.89" font-family="Arial" font-size="14.00" fill="#c6c5fe">Logic/resource.ts</text>
</g>
<!-- Logic/resource.ts&#45;&gt;fhirR4/resources.ts -->
<g id="edge15" class="edge">
<title>Logic/resource.ts&#45;&gt;fhirR4/resources.ts</title>
<path fill="none" stroke="#757575" d="M1044.94,-6.05C1102.73,3.15 1194.17,7.25 1248,-43.59 1337.95,-128.54 1347.04,-547.14 1347.91,-647.79"/>
<polygon fill="#757575" stroke="#757575" points="1344.42,-648 1347.98,-657.98 1351.42,-647.96 1344.42,-648"/>
</g>
<!-- Logic/validator.ts -->
<g id="node17" class="node">
<title>Logic/validator.ts</title>
<path fill="none" stroke="#c6c5fe" d="M234.33,-588.09C234.33,-588.09 132.67,-588.09 132.67,-588.09 128.83,-588.09 125,-584.26 125,-580.42 125,-580.42 125,-572.76 125,-572.76 125,-568.92 128.83,-565.09 132.67,-565.09 132.67,-565.09 234.33,-565.09 234.33,-565.09 238.17,-565.09 242,-568.92 242,-572.76 242,-572.76 242,-580.42 242,-580.42 242,-584.26 238.17,-588.09 234.33,-588.09"/>
<text text-anchor="middle" x="183.5" y="-572.89" font-family="Arial" font-size="14.00" fill="#c6c5fe">Logic/validator.ts</text>
</g>
<!-- Logic/validator.ts&#45;&gt;Logic/dom.ts -->
<g id="edge16" class="edge">
<title>Logic/validator.ts&#45;&gt;Logic/dom.ts</title>
<path fill="none" stroke="#757575" d="M193.16,-588.25C221.44,-626.55 313.04,-752.31 379,-862.59 396.76,-892.28 388.24,-909.67 415,-931.59 424.58,-939.44 436.44,-944.92 448.35,-948.75"/>
<polygon fill="#757575" stroke="#757575" points="447.75,-952.21 458.32,-951.59 449.66,-945.48 447.75,-952.21"/>
</g>
<!-- Logic/validator.ts&#45;&gt;Logic/parse.ts -->
<g id="edge17" class="edge">
<title>Logic/validator.ts&#45;&gt;Logic/parse.ts</title>
<path fill="none" stroke="#757575" d="M242.25,-568.92C250.63,-567.8 259.27,-566.66 267.68,-565.54"/>
<polygon fill="#757575" stroke="#757575" points="268.35,-568.98 277.81,-564.19 267.43,-562.04 268.35,-568.98"/>
</g>
<!-- Logic/validator.ts&#45;&gt;Logic/resource.ts -->
<g id="edge18" class="edge">
<title>Logic/validator.ts&#45;&gt;Logic/resource.ts</title>
<path fill="none" stroke="#757575" d="M188.63,-564.92C206.86,-515.08 285.02,-317.96 415,-215.59 570.19,-93.37 805.68,-44.04 921.2,-26.34"/>
<polygon fill="#757575" stroke="#757575" points="921.95,-29.76 931.32,-24.82 920.91,-22.84 921.95,-29.76"/>
</g>
<!-- fhirR4/DomainResource.ts&#45;&gt;fhirR4/dataTypes.ts -->
<g id="edge19" class="edge">
<title>fhirR4/DomainResource.ts&#45;&gt;fhirR4/dataTypes.ts</title>
<path fill="none" stroke="#757575" d="M1046.27,-451.11C1068.15,-455.75 1093.57,-461.14 1116.36,-465.98"/>
<polygon fill="#757575" stroke="#757575" points="1115.78,-469.44 1126.29,-468.09 1117.23,-462.59 1115.78,-469.44"/>
</g>
<!-- fhirR4/dataTypes.ts&#45;&gt;fhirR4/resources.ts -->
<g id="edge65" class="edge">
<title>fhirR4/dataTypes.ts&#45;&gt;fhirR4/resources.ts</title>
<path fill="none" stroke="#757575" d="M1192.6,-491.19C1220.12,-522.78 1296.63,-610.62 1330.96,-650.02"/>
<polygon fill="#757575" stroke="#757575" points="1328.4,-652.42 1337.61,-657.66 1333.68,-647.82 1328.4,-652.42"/>
</g>
<!-- main.ts -->
<g id="node20" class="node">
<title>main.ts</title>
<path fill="none" stroke="#c6c5fe" d="M67.33,-627.09C67.33,-627.09 21.67,-627.09 21.67,-627.09 17.83,-627.09 14,-623.26 14,-619.42 14,-619.42 14,-611.76 14,-611.76 14,-607.92 17.83,-604.09 21.67,-604.09 21.67,-604.09 67.33,-604.09 67.33,-604.09 71.17,-604.09 75,-607.92 75,-611.76 75,-611.76 75,-619.42 75,-619.42 75,-623.26 71.17,-627.09 67.33,-627.09"/>
<text text-anchor="middle" x="44.5" y="-611.89" font-family="Arial" font-size="14.00" fill="#c6c5fe">main.ts</text>
</g>
<!-- main.ts&#45;&gt;Logic/dom.ts -->
<g id="edge66" class="edge">
<title>main.ts&#45;&gt;Logic/dom.ts</title>
<path fill="none" stroke="#757575" d="M72.85,-627.32C78.36,-630.08 83.99,-633.22 89,-636.59 251.08,-745.73 244.38,-836.35 415,-931.59 425.38,-937.38 437.16,-941.99 448.7,-945.62"/>
<polygon fill="#757575" stroke="#757575" points="447.71,-948.98 458.29,-948.44 449.69,-942.26 447.71,-948.98"/>
</g>
<!-- main.ts&#45;&gt;Logic/validator.ts -->
<g id="edge67" class="edge">
<title>main.ts&#45;&gt;Logic/validator.ts</title>
<path fill="none" stroke="#757575" d="M75.23,-607.13C91.85,-602.4 113.01,-596.37 132.13,-590.93"/>
<polygon fill="#757575" stroke="#757575" points="133.26,-594.25 141.92,-588.14 131.34,-587.52 133.26,-594.25"/>
</g>
<!-- vite&#45;env.d.ts -->
<g id="node21" class="node">
<title>vite&#45;env.d.ts</title>
<path fill="none" stroke="#cfffac" d="M81.33,-668.09C81.33,-668.09 7.67,-668.09 7.67,-668.09 3.83,-668.09 0,-664.26 0,-660.42 0,-660.42 0,-652.76 0,-652.76 0,-648.92 3.83,-645.09 7.67,-645.09 7.67,-645.09 81.33,-645.09 81.33,-645.09 85.17,-645.09 89,-648.92 89,-652.76 89,-652.76 89,-660.42 89,-660.42 89,-664.26 85.17,-668.09 81.33,-668.09"/>
<text text-anchor="middle" x="44.5" y="-652.89" font-family="Arial" font-size="14.00" fill="#cfffac">vite&#45;env.d.ts</text>
</g>
</g>
</svg>
