<?xml version="1.0" encoding="UTF-8" standalone="no"?>
<!DOCTYPE svg PUBLIC "-//W3C//DTD SVG 1.1//EN"
 "http://www.w3.org/Graphics/SVG/1.1/DTD/svg11.dtd">
<!-- Generated by graphviz version 2.43.0 (0)
 -->
<!-- Title: G Pages: 1 -->
<svg width="2303pt" height="927pt"
 viewBox="0.00 0.00 2303.20 927.06" xmlns="http://www.w3.org/2000/svg" xmlns:xlink="http://www.w3.org/1999/xlink">
<g id="graph0" class="graph" transform="scale(1 1) rotate(0) translate(21.6 905.46)">
<title>G</title>
<polygon fill="#111111" stroke="transparent" points="-21.6,21.6 -21.6,-905.46 2281.6,-905.46 2281.6,21.6 -21.6,21.6"/>
<!-- Logic/dom.ts -->
<g id="node1" class="node">
<title>Logic/dom.ts</title>
<path fill="none" stroke="#cfffac" d="M524.83,-842.86C524.83,-842.86 446.17,-842.86 446.17,-842.86 442.33,-842.86 438.5,-839.02 438.5,-835.19 438.5,-835.19 438.5,-827.52 438.5,-827.52 438.5,-823.69 442.33,-819.86 446.17,-819.86 446.17,-819.86 524.83,-819.86 524.83,-819.86 528.67,-819.86 532.5,-823.69 532.5,-827.52 532.5,-827.52 532.5,-835.19 532.5,-835.19 532.5,-839.02 528.67,-842.86 524.83,-842.86"/>
<text text-anchor="middle" x="485.5" y="-827.66" font-family="Arial" font-size="14.00" fill="#cfffac">Logic/dom.ts</text>
</g>
<!-- Logic/parse.ts -->
<g id="node2" class="node">
<title>Logic/parse.ts</title>
<path fill="none" stroke="#c6c5fe" d="M371.33,-591.86C371.33,-591.86 285.67,-591.86 285.67,-591.86 281.83,-591.86 278,-588.02 278,-584.19 278,-584.19 278,-576.52 278,-576.52 278,-572.69 281.83,-568.86 285.67,-568.86 285.67,-568.86 371.33,-568.86 371.33,-568.86 375.17,-568.86 379,-572.69 379,-576.52 379,-576.52 379,-584.19 379,-584.19 379,-588.02 375.17,-591.86 371.33,-591.86"/>
<text text-anchor="middle" x="328.5" y="-576.66" font-family="Arial" font-size="14.00" fill="#c6c5fe">Logic/parse.ts</text>
</g>
<!-- Logic/parse.ts&#45;&gt;Logic/dom.ts -->
<g id="edge1" class="edge">
<title>Logic/parse.ts&#45;&gt;Logic/dom.ts</title>
<path fill="none" stroke="#757575" d="M330.59,-591.96C334.61,-628.51 351.9,-742.58 415,-805.36 419.15,-809.49 424.03,-812.98 429.23,-815.91"/>
<polygon fill="#757575" stroke="#757575" points="427.72,-819.07 438.23,-820.36 430.81,-812.79 427.72,-819.07"/>
</g>
<!-- Resources/Bundle.ts -->
<g id="node3" class="node">
<title>Resources/Bundle.ts</title>
<path fill="none" stroke="#c6c5fe" d="M548.33,-571.86C548.33,-571.86 422.67,-571.86 422.67,-571.86 418.83,-571.86 415,-568.02 415,-564.19 415,-564.19 415,-556.52 415,-556.52 415,-552.69 418.83,-548.86 422.67,-548.86 422.67,-548.86 548.33,-548.86 548.33,-548.86 552.17,-548.86 556,-552.69 556,-556.52 556,-556.52 556,-564.19 556,-564.19 556,-568.02 552.17,-571.86 548.33,-571.86"/>
<text text-anchor="middle" x="485.5" y="-556.66" font-family="Arial" font-size="14.00" fill="#c6c5fe">Resources/Bundle.ts</text>
</g>
<!-- Logic/parse.ts&#45;&gt;Resources/Bundle.ts -->
<g id="edge2" class="edge">
<title>Logic/parse.ts&#45;&gt;Resources/Bundle.ts</title>
<path fill="none" stroke="#757575" d="M379.4,-573.92C387.54,-572.87 396.15,-571.76 404.79,-570.64"/>
<polygon fill="#757575" stroke="#757575" points="405.46,-574.09 414.93,-569.33 404.57,-567.14 405.46,-574.09"/>
</g>
<!-- Resources/Consent.ts -->
<g id="node4" class="node">
<title>Resources/Consent.ts</title>
<path fill="none" stroke="#c6c5fe" d="M992.33,-516.86C992.33,-516.86 858.67,-516.86 858.67,-516.86 854.83,-516.86 851,-513.02 851,-509.19 851,-509.19 851,-501.52 851,-501.52 851,-497.69 854.83,-493.86 858.67,-493.86 858.67,-493.86 992.33,-493.86 992.33,-493.86 996.17,-493.86 1000,-497.69 1000,-501.52 1000,-501.52 1000,-509.19 1000,-509.19 1000,-513.02 996.17,-516.86 992.33,-516.86"/>
<text text-anchor="middle" x="925.5" y="-501.66" font-family="Arial" font-size="14.00" fill="#c6c5fe">Resources/Consent.ts</text>
</g>
<!-- Logic/parse.ts&#45;&gt;Resources/Consent.ts -->
<g id="edge3" class="edge">
<title>Logic/parse.ts&#45;&gt;Resources/Consent.ts</title>
<path fill="none" stroke="#757575" d="M348.38,-568.7C365.19,-558.98 390.8,-545.72 415,-539.36 561.1,-500.98 738.44,-498.63 840.7,-501.35"/>
<polygon fill="#757575" stroke="#757575" points="840.87,-504.85 850.97,-501.64 841.07,-497.86 840.87,-504.85"/>
</g>
<!-- Resources/Encounter.ts -->
<g id="node5" class="node">
<title>Resources/Encounter.ts</title>
<path fill="none" stroke="#c6c5fe" d="M997.83,-694.86C997.83,-694.86 853.17,-694.86 853.17,-694.86 849.33,-694.86 845.5,-691.02 845.5,-687.19 845.5,-687.19 845.5,-679.52 845.5,-679.52 845.5,-675.69 849.33,-671.86 853.17,-671.86 853.17,-671.86 997.83,-671.86 997.83,-671.86 1001.67,-671.86 1005.5,-675.69 1005.5,-679.52 1005.5,-679.52 1005.5,-687.19 1005.5,-687.19 1005.5,-691.02 1001.67,-694.86 997.83,-694.86"/>
<text text-anchor="middle" x="925.5" y="-679.66" font-family="Arial" font-size="14.00" fill="#c6c5fe">Resources/Encounter.ts</text>
</g>
<!-- Logic/parse.ts&#45;&gt;Resources/Encounter.ts -->
<g id="edge4" class="edge">
<title>Logic/parse.ts&#45;&gt;Resources/Encounter.ts</title>
<path fill="none" stroke="#757575" d="M360.91,-591.88C409.64,-609.23 506.75,-641.7 592,-657.36 673.52,-672.33 767.84,-678.69 835.15,-681.39"/>
<polygon fill="#757575" stroke="#757575" points="835.18,-684.89 845.3,-681.77 835.44,-677.89 835.18,-684.89"/>
</g>
<!-- Resources/Flag.ts -->
<g id="node6" class="node">
<title>Resources/Flag.ts</title>
<path fill="none" stroke="#c6c5fe" d="M980.33,-594.86C980.33,-594.86 870.67,-594.86 870.67,-594.86 866.83,-594.86 863,-591.02 863,-587.19 863,-587.19 863,-579.52 863,-579.52 863,-575.69 866.83,-571.86 870.67,-571.86 870.67,-571.86 980.33,-571.86 980.33,-571.86 984.17,-571.86 988,-575.69 988,-579.52 988,-579.52 988,-587.19 988,-587.19 988,-591.02 984.17,-594.86 980.33,-594.86"/>
<text text-anchor="middle" x="925.5" y="-579.66" font-family="Arial" font-size="14.00" fill="#c6c5fe">Resources/Flag.ts</text>
</g>
<!-- Logic/parse.ts&#45;&gt;Resources/Flag.ts -->
<g id="edge5" class="edge">
<title>Logic/parse.ts&#45;&gt;Resources/Flag.ts</title>
<path fill="none" stroke="#757575" d="M379.21,-580.61C484.48,-581.14 730.26,-582.38 852.63,-583"/>
<polygon fill="#757575" stroke="#757575" points="852.63,-586.5 862.65,-583.05 852.67,-579.5 852.63,-586.5"/>
</g>
<!-- Resources/Organization.ts -->
<g id="node7" class="node">
<title>Resources/Organization.ts</title>
<path fill="none" stroke="#c6c5fe" d="M1005.83,-304.86C1005.83,-304.86 845.17,-304.86 845.17,-304.86 841.33,-304.86 837.5,-301.02 837.5,-297.19 837.5,-297.19 837.5,-289.52 837.5,-289.52 837.5,-285.69 841.33,-281.86 845.17,-281.86 845.17,-281.86 1005.83,-281.86 1005.83,-281.86 1009.67,-281.86 1013.5,-285.69 1013.5,-289.52 1013.5,-289.52 1013.5,-297.19 1013.5,-297.19 1013.5,-301.02 1009.67,-304.86 1005.83,-304.86"/>
<text text-anchor="middle" x="925.5" y="-289.66" font-family="Arial" font-size="14.00" fill="#c6c5fe">Resources/Organization.ts</text>
</g>
<!-- Logic/parse.ts&#45;&gt;Resources/Organization.ts -->
<g id="edge6" class="edge">
<title>Logic/parse.ts&#45;&gt;Resources/Organization.ts</title>
<path fill="none" stroke="#757575" d="M332.1,-568.72C339.47,-538.55 363.38,-457.22 415,-415.36 533.52,-319.25 715.5,-296.71 826.88,-292.59"/>
<polygon fill="#757575" stroke="#757575" points="827.22,-296.08 837.1,-292.26 826.99,-289.09 827.22,-296.08"/>
</g>
<!-- Resources/Patient.ts -->
<g id="node8" class="node">
<title>Resources/Patient.ts</title>
<path fill="none" stroke="#c6c5fe" d="M988.33,-381.86C988.33,-381.86 862.67,-381.86 862.67,-381.86 858.83,-381.86 855,-378.02 855,-374.19 855,-374.19 855,-366.52 855,-366.52 855,-362.69 858.83,-358.86 862.67,-358.86 862.67,-358.86 988.33,-358.86 988.33,-358.86 992.17,-358.86 996,-362.69 996,-366.52 996,-366.52 996,-374.19 996,-374.19 996,-378.02 992.17,-381.86 988.33,-381.86"/>
<text text-anchor="middle" x="925.5" y="-366.66" font-family="Arial" font-size="14.00" fill="#c6c5fe">Resources/Patient.ts</text>
</g>
<!-- Logic/parse.ts&#45;&gt;Resources/Patient.ts -->
<g id="edge7" class="edge">
<title>Logic/parse.ts&#45;&gt;Resources/Patient.ts</title>
<path fill="none" stroke="#757575" d="M341.27,-568.8C376,-535.56 482.48,-439.81 592,-403.36 675.11,-375.69 775.86,-369.18 844.52,-368.5"/>
<polygon fill="#757575" stroke="#757575" points="844.86,-371.99 854.83,-368.44 844.81,-365 844.86,-371.99"/>
</g>
<!-- Resources/PractitionerRole.ts -->
<g id="node9" class="node">
<title>Resources/PractitionerRole.ts</title>
<path fill="none" stroke="#c6c5fe" d="M1015.33,-246.86C1015.33,-246.86 835.67,-246.86 835.67,-246.86 831.83,-246.86 828,-243.02 828,-239.19 828,-239.19 828,-231.52 828,-231.52 828,-227.69 831.83,-223.86 835.67,-223.86 835.67,-223.86 1015.33,-223.86 1015.33,-223.86 1019.17,-223.86 1023,-227.69 1023,-231.52 1023,-231.52 1023,-239.19 1023,-239.19 1023,-243.02 1019.17,-246.86 1015.33,-246.86"/>
<text text-anchor="middle" x="925.5" y="-231.66" font-family="Arial" font-size="14.00" fill="#c6c5fe">Resources/PractitionerRole.ts</text>
</g>
<!-- Logic/parse.ts&#45;&gt;Resources/PractitionerRole.ts -->
<g id="edge8" class="edge">
<title>Logic/parse.ts&#45;&gt;Resources/PractitionerRole.ts</title>
<path fill="none" stroke="#757575" d="M329.99,-568.79C332.27,-530.13 344.99,-404.24 415,-339.36 524.03,-238.32 703.58,-224.23 817.83,-227.04"/>
<polygon fill="#757575" stroke="#757575" points="817.9,-230.54 828,-227.34 818.1,-223.55 817.9,-230.54"/>
</g>
<!-- Resources/resources.ts -->
<g id="node10" class="node">
<title>Resources/resources.ts</title>
<path fill="none" stroke="#cfffac" d="M2220.33,-711.86C2220.33,-711.86 2077.67,-711.86 2077.67,-711.86 2073.83,-711.86 2070,-708.02 2070,-704.19 2070,-704.19 2070,-696.52 2070,-696.52 2070,-692.69 2073.83,-688.86 2077.67,-688.86 2077.67,-688.86 2220.33,-688.86 2220.33,-688.86 2224.17,-688.86 2228,-692.69 2228,-696.52 2228,-696.52 2228,-704.19 2228,-704.19 2228,-708.02 2224.17,-711.86 2220.33,-711.86"/>
<text text-anchor="middle" x="2149" y="-696.66" font-family="Arial" font-size="14.00" fill="#cfffac">Resources/resources.ts</text>
</g>
<!-- Logic/parse.ts&#45;&gt;Resources/resources.ts -->
<g id="edge9" class="edge">
<title>Logic/parse.ts&#45;&gt;Resources/resources.ts</title>
<path fill="none" stroke="#757575" d="M343.09,-591.94C359.45,-605.55 388.09,-628.3 415,-644.36 622.38,-768.16 682.98,-833.36 924.5,-833.36 924.5,-833.36 924.5,-833.36 1710.5,-833.36 1841.52,-833.36 1878.86,-834.12 2002,-789.36 2049.08,-772.25 2097.52,-739.03 2125.08,-718.37"/>
<polygon fill="#757575" stroke="#757575" points="2127.43,-720.98 2133.27,-712.14 2123.19,-715.41 2127.43,-720.98"/>
</g>
<!-- Resources/Bundle.ts&#45;&gt;Resources/resources.ts -->
<g id="edge16" class="edge">
<title>Resources/Bundle.ts&#45;&gt;Resources/resources.ts</title>
<path fill="none" stroke="#757575" d="M497.81,-572.01C545.08,-619.43 733.36,-795.36 924.5,-795.36 924.5,-795.36 924.5,-795.36 1710.5,-795.36 1841.1,-795.36 1875.54,-790.95 2002,-758.36 2042.1,-748.02 2085.99,-729.55 2115.07,-716.22"/>
<polygon fill="#757575" stroke="#757575" points="2116.74,-719.3 2124.34,-711.92 2113.8,-712.95 2116.74,-719.3"/>
</g>
<!-- Resources/Elements/DomainResource.ts -->
<g id="node12" class="node">
<title>Resources/Elements/DomainResource.ts</title>
<path fill="none" stroke="#c6c5fe" d="M1316.33,-421.86C1316.33,-421.86 1066.67,-421.86 1066.67,-421.86 1062.83,-421.86 1059,-418.02 1059,-414.19 1059,-414.19 1059,-406.52 1059,-406.52 1059,-402.69 1062.83,-398.86 1066.67,-398.86 1066.67,-398.86 1316.33,-398.86 1316.33,-398.86 1320.17,-398.86 1324,-402.69 1324,-406.52 1324,-406.52 1324,-414.19 1324,-414.19 1324,-418.02 1320.17,-421.86 1316.33,-421.86"/>
<text text-anchor="middle" x="1191.5" y="-406.66" font-family="Arial" font-size="14.00" fill="#c6c5fe">Resources/Elements/DomainResource.ts</text>
</g>
<!-- Resources/Bundle.ts&#45;&gt;Resources/Elements/DomainResource.ts -->
<g id="edge13" class="edge">
<title>Resources/Bundle.ts&#45;&gt;Resources/Elements/DomainResource.ts</title>
<path fill="none" stroke="#757575" d="M494.41,-548.67C510.07,-526.64 547.37,-479.43 592,-459.36 750.49,-388.08 956.33,-388.85 1080.66,-398.06"/>
<polygon fill="#757575" stroke="#757575" points="1080.71,-401.58 1090.95,-398.86 1081.25,-394.6 1080.71,-401.58"/>
</g>
<!-- Resources/dataTypes.ts -->
<g id="node13" class="node">
<title>Resources/dataTypes.ts</title>
<path fill="none" stroke="#c6c5fe" d="M1994.33,-462.86C1994.33,-462.86 1848.67,-462.86 1848.67,-462.86 1844.83,-462.86 1841,-459.02 1841,-455.19 1841,-455.19 1841,-447.52 1841,-447.52 1841,-443.69 1844.83,-439.86 1848.67,-439.86 1848.67,-439.86 1994.33,-439.86 1994.33,-439.86 1998.17,-439.86 2002,-443.69 2002,-447.52 2002,-447.52 2002,-455.19 2002,-455.19 2002,-459.02 1998.17,-462.86 1994.33,-462.86"/>
<text text-anchor="middle" x="1921.5" y="-447.66" font-family="Arial" font-size="14.00" fill="#c6c5fe">Resources/dataTypes.ts</text>
</g>
<!-- Resources/Bundle.ts&#45;&gt;Resources/dataTypes.ts -->
<g id="edge14" class="edge">
<title>Resources/Bundle.ts&#45;&gt;Resources/dataTypes.ts</title>
<path fill="none" stroke="#757575" d="M556.24,-571.74C625.09,-582.36 733.47,-597.43 828,-603.36 1161.18,-624.25 1246.9,-604.94 1578,-562.36 1679.39,-549.32 1709.54,-561.91 1805,-525.36 1840.34,-511.83 1876.31,-486.58 1898.51,-469.38"/>
<polygon fill="#757575" stroke="#757575" points="1900.91,-471.94 1906.59,-463 1896.57,-466.45 1900.91,-471.94"/>
</g>
<!-- Resources/fhirR4Resources.ts -->
<g id="node14" class="node">
<title>Resources/fhirR4Resources.ts</title>
<path fill="none" stroke="#c6c5fe" d="M784.33,-491.86C784.33,-491.86 599.67,-491.86 599.67,-491.86 595.83,-491.86 592,-488.02 592,-484.19 592,-484.19 592,-476.52 592,-476.52 592,-472.69 595.83,-468.86 599.67,-468.86 599.67,-468.86 784.33,-468.86 784.33,-468.86 788.17,-468.86 792,-472.69 792,-476.52 792,-476.52 792,-484.19 792,-484.19 792,-488.02 788.17,-491.86 784.33,-491.86"/>
<text text-anchor="middle" x="692" y="-476.66" font-family="Arial" font-size="14.00" fill="#c6c5fe">Resources/fhirR4Resources.ts</text>
</g>
<!-- Resources/Bundle.ts&#45;&gt;Resources/fhirR4Resources.ts -->
<g id="edge15" class="edge">
<title>Resources/Bundle.ts&#45;&gt;Resources/fhirR4Resources.ts</title>
<path fill="none" stroke="#757575" d="M516.24,-548.73C552.08,-534.7 612.42,-511.1 651.98,-495.62"/>
<polygon fill="#757575" stroke="#757575" points="653.52,-498.78 661.56,-491.88 650.97,-492.26 653.52,-498.78"/>
</g>
<!-- Resources/Consent.ts&#45;&gt;Resources/resources.ts -->
<g id="edge20" class="edge">
<title>Resources/Consent.ts&#45;&gt;Resources/resources.ts</title>
<path fill="none" stroke="#757575" d="M946.39,-516.91C1015.77,-556.06 1254.48,-681.36 1468,-681.36 1468,-681.36 1468,-681.36 1710.5,-681.36 1831.53,-681.36 1971.22,-688.71 2059.56,-694.26"/>
<polygon fill="#757575" stroke="#757575" points="2059.6,-697.77 2069.8,-694.91 2060.05,-690.79 2059.6,-697.77"/>
</g>
<!-- Resources/Consent.ts&#45;&gt;Resources/Elements/DomainResource.ts -->
<g id="edge17" class="edge">
<title>Resources/Consent.ts&#45;&gt;Resources/Elements/DomainResource.ts</title>
<path fill="none" stroke="#757575" d="M958.61,-493.8C1006.24,-476.66 1095.68,-444.48 1148.47,-425.48"/>
<polygon fill="#757575" stroke="#757575" points="1149.98,-428.66 1158.2,-421.98 1147.61,-422.07 1149.98,-428.66"/>
</g>
<!-- Resources/Consent.ts&#45;&gt;Resources/dataTypes.ts -->
<g id="edge19" class="edge">
<title>Resources/Consent.ts&#45;&gt;Resources/dataTypes.ts</title>
<path fill="none" stroke="#757575" d="M1000.2,-505.8C1151.49,-505.99 1507.87,-502.69 1805,-471.36 1820.52,-469.72 1837.11,-467.27 1852.73,-464.64"/>
<polygon fill="#757575" stroke="#757575" points="1853.58,-468.04 1862.84,-462.89 1852.39,-461.15 1853.58,-468.04"/>
</g>
<!-- Resources/Elements/Reference.ts -->
<g id="node15" class="node">
<title>Resources/Elements/Reference.ts</title>
<path fill="none" stroke="#cfffac" d="M2252.33,-287.86C2252.33,-287.86 2045.67,-287.86 2045.67,-287.86 2041.83,-287.86 2038,-284.02 2038,-280.19 2038,-280.19 2038,-272.52 2038,-272.52 2038,-268.69 2041.83,-264.86 2045.67,-264.86 2045.67,-264.86 2252.33,-264.86 2252.33,-264.86 2256.17,-264.86 2260,-268.69 2260,-272.52 2260,-272.52 2260,-280.19 2260,-280.19 2260,-284.02 2256.17,-287.86 2252.33,-287.86"/>
<text text-anchor="middle" x="2149" y="-272.66" font-family="Arial" font-size="14.00" fill="#cfffac">Resources/Elements/Reference.ts</text>
</g>
<!-- Resources/Consent.ts&#45;&gt;Resources/Elements/Reference.ts -->
<g id="edge18" class="edge">
<title>Resources/Consent.ts&#45;&gt;Resources/Elements/Reference.ts</title>
<path fill="none" stroke="#757575" d="M967.97,-516.9C1118.98,-556.46 1649.12,-673.25 2002,-471.36 2073.57,-430.41 2120.81,-338.72 2139.27,-297.34"/>
<polygon fill="#757575" stroke="#757575" points="2142.57,-298.53 2143.34,-287.96 2136.15,-295.74 2142.57,-298.53"/>
</g>
<!-- Resources/Encounter.ts&#45;&gt;Resources/resources.ts -->
<g id="edge26" class="edge">
<title>Resources/Encounter.ts&#45;&gt;Resources/resources.ts</title>
<path fill="none" stroke="#757575" d="M950.73,-695.06C976.8,-707.03 1019.8,-725.01 1059,-733.36 1237.1,-771.27 1285.91,-757.36 1468,-757.36 1468,-757.36 1468,-757.36 1710.5,-757.36 1840.49,-757.36 1873.51,-753.07 2002,-733.36 2033,-728.6 2067.22,-721 2094.73,-714.29"/>
<polygon fill="#757575" stroke="#757575" points="2095.67,-717.66 2104.54,-711.86 2094,-710.86 2095.67,-717.66"/>
</g>
<!-- Resources/Flag.ts&#45;&gt;Resources/resources.ts -->
<g id="edge30" class="edge">
<title>Resources/Flag.ts&#45;&gt;Resources/resources.ts</title>
<path fill="none" stroke="#757575" d="M941.1,-594.89C960.18,-610.06 994.53,-637.69 1023,-662.36 1039.4,-676.57 1039.01,-686.9 1059,-695.36 1142.85,-730.84 1376.95,-719.36 1468,-719.36 1468,-719.36 1468,-719.36 1710.5,-719.36 1831.53,-719.36 1971.22,-712.01 2059.56,-706.45"/>
<polygon fill="#757575" stroke="#757575" points="2060.05,-709.93 2069.8,-705.8 2059.6,-702.94 2060.05,-709.93"/>
</g>
<!-- Resources/Flag.ts&#45;&gt;Resources/Elements/DomainResource.ts -->
<g id="edge27" class="edge">
<title>Resources/Flag.ts&#45;&gt;Resources/Elements/DomainResource.ts</title>
<path fill="none" stroke="#757575" d="M946.68,-571.71C966.35,-560.24 997.02,-542.06 1023,-525.36 1074.53,-492.23 1133.23,-451.12 1165.66,-428.11"/>
<polygon fill="#757575" stroke="#757575" points="1167.96,-430.77 1174.08,-422.12 1163.9,-425.06 1167.96,-430.77"/>
</g>
<!-- Resources/Flag.ts&#45;&gt;Resources/dataTypes.ts -->
<g id="edge29" class="edge">
<title>Resources/Flag.ts&#45;&gt;Resources/dataTypes.ts</title>
<path fill="none" stroke="#757575" d="M988.05,-582.25C1132.52,-578.52 1503.89,-562.41 1805,-493.36 1832.54,-487.04 1862.49,-476.03 1884.99,-466.86"/>
<polygon fill="#757575" stroke="#757575" points="1886.56,-470 1894.45,-462.93 1883.88,-463.53 1886.56,-470"/>
</g>
<!-- Resources/Flag.ts&#45;&gt;Resources/Elements/Reference.ts -->
<g id="edge28" class="edge">
<title>Resources/Flag.ts&#45;&gt;Resources/Elements/Reference.ts</title>
<path fill="none" stroke="#757575" d="M988.24,-591.01C1132.74,-607.21 1503.5,-638.93 1805,-580.36 1894.97,-562.88 1929.88,-575.92 2002,-519.36 2079.41,-458.65 2124.95,-344.6 2141.19,-297.52"/>
<polygon fill="#757575" stroke="#757575" points="2144.51,-298.63 2144.37,-288.04 2137.87,-296.4 2144.51,-298.63"/>
</g>
<!-- Resources/Organization.ts&#45;&gt;Resources/resources.ts -->
<g id="edge34" class="edge">
<title>Resources/Organization.ts&#45;&gt;Resources/resources.ts</title>
<path fill="none" stroke="#757575" d="M956.71,-281.8C1096.84,-230.34 1689.86,-36.71 2002,-317.36 2113.8,-417.88 2140.51,-613.35 2146.43,-678.58"/>
<polygon fill="#757575" stroke="#757575" points="2142.94,-678.87 2147.26,-688.55 2149.91,-678.29 2142.94,-678.87"/>
</g>
<!-- Resources/Organization.ts&#45;&gt;Resources/Elements/DomainResource.ts -->
<g id="edge31" class="edge">
<title>Resources/Organization.ts&#45;&gt;Resources/Elements/DomainResource.ts</title>
<path fill="none" stroke="#757575" d="M952.78,-305C1000.42,-326.12 1101.07,-370.73 1154.85,-394.56"/>
<polygon fill="#757575" stroke="#757575" points="1153.77,-397.91 1164.33,-398.76 1156.6,-391.51 1153.77,-397.91"/>
</g>
<!-- Resources/Organization.ts&#45;&gt;Resources/dataTypes.ts -->
<g id="edge33" class="edge">
<title>Resources/Organization.ts&#45;&gt;Resources/dataTypes.ts</title>
<path fill="none" stroke="#757575" d="M1013.67,-291.87C1206.72,-289.73 1664.3,-291.39 1805,-351.36 1846.94,-369.23 1884.63,-408.19 1904.87,-431.86"/>
<polygon fill="#757575" stroke="#757575" points="1902.42,-434.38 1911.51,-439.82 1907.79,-429.9 1902.42,-434.38"/>
</g>
<!-- Resources/Organization.ts&#45;&gt;Resources/Elements/Reference.ts -->
<g id="edge32" class="edge">
<title>Resources/Organization.ts&#45;&gt;Resources/Elements/Reference.ts</title>
<path fill="none" stroke="#757575" d="M980.67,-281.8C996.17,-276.13 1011.86,-267.74 1023,-255.36 1063.11,-210.8 1014.15,-165.14 1059,-125.36 1196.55,-3.36 1284.15,-63.36 1468,-63.36 1468,-63.36 1468,-63.36 1710.5,-63.36 1840.49,-63.36 1887.77,-25.31 2002,-87.36 2072.87,-125.85 2120.33,-214.97 2139.04,-255.55"/>
<polygon fill="#757575" stroke="#757575" points="2135.89,-257.07 2143.18,-264.76 2142.28,-254.21 2135.89,-257.07"/>
</g>
<!-- Resources/Patient.ts&#45;&gt;Resources/resources.ts -->
<g id="edge38" class="edge">
<title>Resources/Patient.ts&#45;&gt;Resources/resources.ts</title>
<path fill="none" stroke="#757575" d="M956.76,-358.8C983.28,-349.26 1023.09,-336.36 1059,-330.36 1386.15,-275.71 1485.81,-219.16 1805,-309.36 1903.88,-337.3 1931.37,-355.73 2002,-430.36 2075.71,-508.25 2123.75,-630.52 2140.93,-679.27"/>
<polygon fill="#757575" stroke="#757575" points="2137.64,-680.46 2144.22,-688.77 2144.26,-678.17 2137.64,-680.46"/>
</g>
<!-- Resources/Patient.ts&#45;&gt;Resources/Elements/DomainResource.ts -->
<g id="edge35" class="edge">
<title>Resources/Patient.ts&#45;&gt;Resources/Elements/DomainResource.ts</title>
<path fill="none" stroke="#757575" d="M996.21,-380.92C1029.3,-385.93 1069.17,-391.97 1104.16,-397.28"/>
<polygon fill="#757575" stroke="#757575" points="1103.95,-400.78 1114.36,-398.82 1105,-393.86 1103.95,-400.78"/>
</g>
<!-- Resources/Patient.ts&#45;&gt;Resources/dataTypes.ts -->
<g id="edge37" class="edge">
<title>Resources/Patient.ts&#45;&gt;Resources/dataTypes.ts</title>
<path fill="none" stroke="#757575" d="M996.38,-359.84C1116.16,-343.63 1368.06,-317.47 1578,-348.36 1692,-365.13 1820.7,-411.71 1882.88,-436.07"/>
<polygon fill="#757575" stroke="#757575" points="1881.69,-439.36 1892.28,-439.78 1884.26,-432.85 1881.69,-439.36"/>
</g>
<!-- Resources/Patient.ts&#45;&gt;Resources/Elements/Reference.ts -->
<g id="edge36" class="edge">
<title>Resources/Patient.ts&#45;&gt;Resources/Elements/Reference.ts</title>
<path fill="none" stroke="#757575" d="M955.28,-358.8C976.24,-349.2 1004.14,-333.81 1023,-313.36 1047.8,-286.47 1029.27,-260.66 1059,-239.36 1109.22,-203.37 1720,-168.13 1841,-163.36 1912.5,-160.54 1934.29,-140.22 2002,-163.36 2056.42,-181.96 2106.28,-230 2131.24,-257.07"/>
<polygon fill="#757575" stroke="#757575" points="2128.86,-259.67 2138.16,-264.75 2134.06,-254.98 2128.86,-259.67"/>
</g>
<!-- Resources/PractitionerRole.ts&#45;&gt;Resources/resources.ts -->
<g id="edge42" class="edge">
<title>Resources/PractitionerRole.ts&#45;&gt;Resources/resources.ts</title>
<path fill="none" stroke="#757575" d="M950.24,-223.68C976.24,-211.49 1019.51,-192.99 1059,-184.36 1263.86,-139.57 1850.68,-74.18 2002,-219.36 2036.91,-252.85 2120.89,-589.23 2142.73,-678.63"/>
<polygon fill="#757575" stroke="#757575" points="2139.37,-679.6 2145.14,-688.49 2146.17,-677.95 2139.37,-679.6"/>
</g>
<!-- Resources/PractitionerRole.ts&#45;&gt;Resources/Elements/DomainResource.ts -->
<g id="edge39" class="edge">
<title>Resources/PractitionerRole.ts&#45;&gt;Resources/Elements/DomainResource.ts</title>
<path fill="none" stroke="#757575" d="M964.91,-246.89C983.15,-253.15 1004.86,-261.79 1023,-272.36 1082.47,-307.01 1142.36,-362.48 1171.78,-391.41"/>
<polygon fill="#757575" stroke="#757575" points="1169.36,-393.93 1178.92,-398.5 1174.29,-388.97 1169.36,-393.93"/>
</g>
<!-- Resources/PractitionerRole.ts&#45;&gt;Resources/dataTypes.ts -->
<g id="edge41" class="edge">
<title>Resources/PractitionerRole.ts&#45;&gt;Resources/dataTypes.ts</title>
<path fill="none" stroke="#757575" d="M995.95,-223.82C1151.35,-201.55 1534.67,-166.55 1805,-309.36 1856.69,-336.66 1893.74,-398.06 1910.49,-430.44"/>
<polygon fill="#757575" stroke="#757575" points="1907.42,-432.13 1915.03,-439.49 1913.68,-428.99 1907.42,-432.13"/>
</g>
<!-- Resources/PractitionerRole.ts&#45;&gt;Resources/Elements/Reference.ts -->
<g id="edge40" class="edge">
<title>Resources/PractitionerRole.ts&#45;&gt;Resources/Elements/Reference.ts</title>
<path fill="none" stroke="#757575" d="M930.46,-223.62C942.89,-188.87 984.75,-86.44 1059,-45.36 1218.25,42.75 1286.01,-25.36 1468,-25.36 1468,-25.36 1468,-25.36 1710.5,-25.36 1840.46,-25.36 1890.53,18.46 2002,-48.36 2082.41,-96.56 2126.15,-208.06 2141.55,-254.96"/>
<polygon fill="#757575" stroke="#757575" points="2138.27,-256.21 2144.63,-264.68 2144.95,-254.09 2138.27,-256.21"/>
</g>
<!-- Logic/validator.ts -->
<g id="node11" class="node">
<title>Logic/validator.ts</title>
<path fill="none" stroke="#c6c5fe" d="M234.33,-842.86C234.33,-842.86 132.67,-842.86 132.67,-842.86 128.83,-842.86 125,-839.02 125,-835.19 125,-835.19 125,-827.52 125,-827.52 125,-823.69 128.83,-819.86 132.67,-819.86 132.67,-819.86 234.33,-819.86 234.33,-819.86 238.17,-819.86 242,-823.69 242,-827.52 242,-827.52 242,-835.19 242,-835.19 242,-839.02 238.17,-842.86 234.33,-842.86"/>
<text text-anchor="middle" x="183.5" y="-827.66" font-family="Arial" font-size="14.00" fill="#c6c5fe">Logic/validator.ts</text>
</g>
<!-- Logic/validator.ts&#45;&gt;Logic/dom.ts -->
<g id="edge10" class="edge">
<title>Logic/validator.ts&#45;&gt;Logic/dom.ts</title>
<path fill="none" stroke="#757575" d="M242.34,-831.36C295.82,-831.36 374.8,-831.36 427.88,-831.36"/>
<polygon fill="#757575" stroke="#757575" points="428.14,-834.86 438.14,-831.36 428.14,-827.86 428.14,-834.86"/>
</g>
<!-- Logic/validator.ts&#45;&gt;Logic/parse.ts -->
<g id="edge11" class="edge">
<title>Logic/validator.ts&#45;&gt;Logic/parse.ts</title>
<path fill="none" stroke="#757575" d="M191.21,-819.59C213.77,-779.98 287.14,-651.19 315.84,-600.82"/>
<polygon fill="#757575" stroke="#757575" points="318.9,-602.52 320.81,-592.1 312.82,-599.06 318.9,-602.52"/>
</g>
<!-- Logic/validator.ts&#45;&gt;Resources/resources.ts -->
<g id="edge12" class="edge">
<title>Logic/validator.ts&#45;&gt;Resources/resources.ts</title>
<path fill="none" stroke="#757575" d="M238.14,-842.87C297.94,-854.69 397.67,-871.36 484.5,-871.36 484.5,-871.36 484.5,-871.36 1710.5,-871.36 1841.73,-871.36 1882.83,-879.3 2002,-824.36 2056.7,-799.14 2107.08,-747.54 2131.87,-719.51"/>
<polygon fill="#757575" stroke="#757575" points="2134.53,-721.79 2138.45,-711.94 2129.25,-717.19 2134.53,-721.79"/>
</g>
<!-- Resources/Elements/Narrative.ts -->
<g id="node16" class="node">
<title>Resources/Elements/Narrative.ts</title>
<path fill="none" stroke="#cfffac" d="M1568.83,-380.86C1568.83,-380.86 1369.17,-380.86 1369.17,-380.86 1365.33,-380.86 1361.5,-377.02 1361.5,-373.19 1361.5,-373.19 1361.5,-365.52 1361.5,-365.52 1361.5,-361.69 1365.33,-357.86 1369.17,-357.86 1369.17,-357.86 1568.83,-357.86 1568.83,-357.86 1572.67,-357.86 1576.5,-361.69 1576.5,-365.52 1576.5,-365.52 1576.5,-373.19 1576.5,-373.19 1576.5,-377.02 1572.67,-380.86 1568.83,-380.86"/>
<text text-anchor="middle" x="1469" y="-365.66" font-family="Arial" font-size="14.00" fill="#cfffac">Resources/Elements/Narrative.ts</text>
</g>
<!-- Resources/Elements/DomainResource.ts&#45;&gt;Resources/Elements/Narrative.ts -->
<g id="edge21" class="edge">
<title>Resources/Elements/DomainResource.ts&#45;&gt;Resources/Elements/Narrative.ts</title>
<path fill="none" stroke="#757575" d="M1269.98,-398.83C1304.31,-393.72 1344.86,-387.68 1380.3,-382.41"/>
<polygon fill="#757575" stroke="#757575" points="1381.25,-385.81 1390.63,-380.87 1380.22,-378.88 1381.25,-385.81"/>
</g>
<!-- Resources/Elements/Resource.ts -->
<g id="node17" class="node">
<title>Resources/Elements/Resource.ts</title>
<path fill="none" stroke="#c6c5fe" d="M1570.33,-462.86C1570.33,-462.86 1367.67,-462.86 1367.67,-462.86 1363.83,-462.86 1360,-459.02 1360,-455.19 1360,-455.19 1360,-447.52 1360,-447.52 1360,-443.69 1363.83,-439.86 1367.67,-439.86 1367.67,-439.86 1570.33,-439.86 1570.33,-439.86 1574.17,-439.86 1578,-443.69 1578,-447.52 1578,-447.52 1578,-455.19 1578,-455.19 1578,-459.02 1574.17,-462.86 1570.33,-462.86"/>
<text text-anchor="middle" x="1469" y="-447.66" font-family="Arial" font-size="14.00" fill="#c6c5fe">Resources/Elements/Resource.ts</text>
</g>
<!-- Resources/Elements/DomainResource.ts&#45;&gt;Resources/Elements/Resource.ts -->
<g id="edge22" class="edge">
<title>Resources/Elements/DomainResource.ts&#45;&gt;Resources/Elements/Resource.ts</title>
<path fill="none" stroke="#757575" d="M1269.98,-421.89C1304.31,-427 1344.86,-433.03 1380.3,-438.31"/>
<polygon fill="#757575" stroke="#757575" points="1380.22,-441.83 1390.63,-439.84 1381.25,-434.91 1380.22,-441.83"/>
</g>
<!-- Resources/Elements/extension.ts -->
<g id="node18" class="node">
<title>Resources/Elements/extension.ts</title>
<path fill="none" stroke="#cfffac" d="M1570.33,-421.86C1570.33,-421.86 1367.67,-421.86 1367.67,-421.86 1363.83,-421.86 1360,-418.02 1360,-414.19 1360,-414.19 1360,-406.52 1360,-406.52 1360,-402.69 1363.83,-398.86 1367.67,-398.86 1367.67,-398.86 1570.33,-398.86 1570.33,-398.86 1574.17,-398.86 1578,-402.69 1578,-406.52 1578,-406.52 1578,-414.19 1578,-414.19 1578,-418.02 1574.17,-421.86 1570.33,-421.86"/>
<text text-anchor="middle" x="1469" y="-406.66" font-family="Arial" font-size="14.00" fill="#cfffac">Resources/Elements/extension.ts</text>
</g>
<!-- Resources/Elements/DomainResource.ts&#45;&gt;Resources/Elements/extension.ts -->
<g id="edge23" class="edge">
<title>Resources/Elements/DomainResource.ts&#45;&gt;Resources/Elements/extension.ts</title>
<path fill="none" stroke="#757575" d="M1324.2,-410.36C1332.66,-410.36 1341.15,-410.36 1349.54,-410.36"/>
<polygon fill="#757575" stroke="#757575" points="1349.72,-413.86 1359.72,-410.36 1349.72,-406.86 1349.72,-413.86"/>
</g>
<!-- Resources/dataTypes.ts&#45;&gt;Resources/resources.ts -->
<g id="edge44" class="edge">
<title>Resources/dataTypes.ts&#45;&gt;Resources/resources.ts</title>
<path fill="none" stroke="#757575" d="M1933.07,-463.03C1968.95,-502.65 2086.29,-632.22 2130.73,-681.29"/>
<polygon fill="#757575" stroke="#757575" points="2128.14,-683.64 2137.45,-688.71 2133.33,-678.95 2128.14,-683.64"/>
</g>
<!-- Resources/dataTypes.ts&#45;&gt;Resources/Elements/Reference.ts -->
<g id="edge43" class="edge">
<title>Resources/dataTypes.ts&#45;&gt;Resources/Elements/Reference.ts</title>
<path fill="none" stroke="#757575" d="M1937.65,-439.6C1976.32,-409.59 2078.9,-329.98 2125,-294.21"/>
<polygon fill="#757575" stroke="#757575" points="2127.17,-296.96 2132.92,-288.06 2122.87,-291.43 2127.17,-296.96"/>
</g>
<!-- Resources/fhirR4Resources.ts&#45;&gt;Resources/Consent.ts -->
<g id="edge45" class="edge">
<title>Resources/fhirR4Resources.ts&#45;&gt;Resources/Consent.ts</title>
<path fill="none" stroke="#757575" d="M792.18,-491.07C808.29,-492.81 824.84,-494.6 840.53,-496.29"/>
<polygon fill="#757575" stroke="#757575" points="840.4,-499.8 850.71,-497.39 841.15,-492.84 840.4,-499.8"/>
</g>
<!-- Resources/fhirR4Resources.ts&#45;&gt;Resources/Encounter.ts -->
<g id="edge46" class="edge">
<title>Resources/fhirR4Resources.ts&#45;&gt;Resources/Encounter.ts</title>
<path fill="none" stroke="#757575" d="M705.48,-492.09C729.09,-514.2 782.05,-563.42 828,-603.36 853.01,-625.09 882.4,-649.27 902.12,-665.3"/>
<polygon fill="#757575" stroke="#757575" points="899.96,-668.06 909.94,-671.64 904.37,-662.62 899.96,-668.06"/>
</g>
<!-- Resources/fhirR4Resources.ts&#45;&gt;Resources/Flag.ts -->
<g id="edge47" class="edge">
<title>Resources/fhirR4Resources.ts&#45;&gt;Resources/Flag.ts</title>
<path fill="none" stroke="#757575" d="M719.11,-491.97C760.81,-510.53 842.53,-546.89 889.34,-567.71"/>
<polygon fill="#757575" stroke="#757575" points="887.93,-570.92 898.49,-571.79 890.78,-564.52 887.93,-570.92"/>
</g>
<!-- Resources/fhirR4Resources.ts&#45;&gt;Resources/Organization.ts -->
<g id="edge48" class="edge">
<title>Resources/fhirR4Resources.ts&#45;&gt;Resources/Organization.ts</title>
<path fill="none" stroke="#757575" d="M703.36,-468.51C724.94,-444.26 776.97,-388 828,-349.36 848.04,-334.18 872.56,-320.01 891.87,-309.71"/>
<polygon fill="#757575" stroke="#757575" points="893.65,-312.73 900.88,-304.98 890.4,-306.53 893.65,-312.73"/>
</g>
<!-- Resources/fhirR4Resources.ts&#45;&gt;Resources/Patient.ts -->
<g id="edge49" class="edge">
<title>Resources/fhirR4Resources.ts&#45;&gt;Resources/Patient.ts</title>
<path fill="none" stroke="#757575" d="M717.34,-468.79C758.93,-449.03 843.77,-408.72 890.95,-386.3"/>
<polygon fill="#757575" stroke="#757575" points="892.61,-389.39 900.14,-381.93 889.61,-383.06 892.61,-389.39"/>
</g>
<!-- Resources/fhirR4Resources.ts&#45;&gt;Resources/PractitionerRole.ts -->
<g id="edge50" class="edge">
<title>Resources/fhirR4Resources.ts&#45;&gt;Resources/PractitionerRole.ts</title>
<path fill="none" stroke="#757575" d="M697.5,-468.64C711.47,-433.76 757.4,-329.52 828,-272.36 839.56,-263 853.74,-255.82 867.65,-250.4"/>
<polygon fill="#757575" stroke="#757575" points="869,-253.63 877.19,-246.91 866.6,-247.05 869,-253.63"/>
</g>
<!-- Resources/Elements/Meta.ts -->
<g id="node19" class="node">
<title>Resources/Elements/Meta.ts</title>
<path fill="none" stroke="#c6c5fe" d="M1797.33,-462.86C1797.33,-462.86 1621.67,-462.86 1621.67,-462.86 1617.83,-462.86 1614,-459.02 1614,-455.19 1614,-455.19 1614,-447.52 1614,-447.52 1614,-443.69 1617.83,-439.86 1621.67,-439.86 1621.67,-439.86 1797.33,-439.86 1797.33,-439.86 1801.17,-439.86 1805,-443.69 1805,-447.52 1805,-447.52 1805,-455.19 1805,-455.19 1805,-459.02 1801.17,-462.86 1797.33,-462.86"/>
<text text-anchor="middle" x="1709.5" y="-447.66" font-family="Arial" font-size="14.00" fill="#c6c5fe">Resources/Elements/Meta.ts</text>
</g>
<!-- Resources/Elements/Resource.ts&#45;&gt;Resources/Elements/Meta.ts -->
<g id="edge25" class="edge">
<title>Resources/Elements/Resource.ts&#45;&gt;Resources/Elements/Meta.ts</title>
<path fill="none" stroke="#757575" d="M1578.08,-451.36C1586.68,-451.36 1595.35,-451.36 1603.92,-451.36"/>
<polygon fill="#757575" stroke="#757575" points="1603.92,-454.86 1613.92,-451.36 1603.92,-447.86 1603.92,-454.86"/>
</g>
<!-- Resources/Elements/Meta.ts&#45;&gt;Resources/dataTypes.ts -->
<g id="edge24" class="edge">
<title>Resources/Elements/Meta.ts&#45;&gt;Resources/dataTypes.ts</title>
<path fill="none" stroke="#757575" d="M1805.06,-451.36C1813.57,-451.36 1822.18,-451.36 1830.65,-451.36"/>
<polygon fill="#757575" stroke="#757575" points="1830.9,-454.86 1840.9,-451.36 1830.9,-447.86 1830.9,-454.86"/>
</g>
<!-- main.ts -->
<g id="node20" class="node">
<title>main.ts</title>
<path fill="none" stroke="#c6c5fe" d="M67.33,-842.86C67.33,-842.86 21.67,-842.86 21.67,-842.86 17.83,-842.86 14,-839.02 14,-835.19 14,-835.19 14,-827.52 14,-827.52 14,-823.69 17.83,-819.86 21.67,-819.86 21.67,-819.86 67.33,-819.86 67.33,-819.86 71.17,-819.86 75,-823.69 75,-827.52 75,-827.52 75,-835.19 75,-835.19 75,-839.02 71.17,-842.86 67.33,-842.86"/>
<text text-anchor="middle" x="44.5" y="-827.66" font-family="Arial" font-size="14.00" fill="#c6c5fe">main.ts</text>
</g>
<!-- main.ts&#45;&gt;Logic/validator.ts -->
<g id="edge51" class="edge">
<title>main.ts&#45;&gt;Logic/validator.ts</title>
<path fill="none" stroke="#757575" d="M75.23,-831.36C86.94,-831.36 100.91,-831.36 114.84,-831.36"/>
<polygon fill="#757575" stroke="#757575" points="114.94,-834.86 124.94,-831.36 114.94,-827.86 114.94,-834.86"/>
</g>
<!-- vite&#45;env.d.ts -->
<g id="node21" class="node">
<title>vite&#45;env.d.ts</title>
<path fill="none" stroke="#cfffac" d="M81.33,-883.86C81.33,-883.86 7.67,-883.86 7.67,-883.86 3.83,-883.86 0,-880.02 0,-876.19 0,-876.19 0,-868.52 0,-868.52 0,-864.69 3.83,-860.86 7.67,-860.86 7.67,-860.86 81.33,-860.86 81.33,-860.86 85.17,-860.86 89,-864.69 89,-868.52 89,-868.52 89,-876.19 89,-876.19 89,-880.02 85.17,-883.86 81.33,-883.86"/>
<text text-anchor="middle" x="44.5" y="-868.66" font-family="Arial" font-size="14.00" fill="#cfffac">vite&#45;env.d.ts</text>
</g>
</g>
</svg>
